<svg width="36" height="32" viewBox="0 0 36 32" fill="none" xmlns="http://www.w3.org/2000/svg">
<path d="M9.18411 12.722C9.18411 15.2791 10.2197 17.595 11.8972 19.269C13.5712 20.9465 15.8836 21.9821 18.4442 21.9821C21.0049 21.9821 23.3137 20.943 24.9912 19.269C26.6652 17.595 27.7008 15.2791 27.7008 12.722C27.7008 9.39888 27.7008 6.07928 27.7008 2.75969C27.7008 1.47228 28.7541 0.422492 30.038 0.422492H31.9319C32.6625 0.422492 33.3505 0.61046 33.9605 0.961572C34.567 1.30914 35.0741 1.8163 35.443 2.45113L35.4891 2.53625C35.8295 3.1569 35.9998 3.82011 35.9998 4.47623C35.9998 5.16781 35.8118 5.85939 35.443 6.50132L31.1516 13.9349C31.1906 13.5342 31.2084 13.1299 31.2084 12.7256V9.16835L33.4214 5.3345C33.5775 5.06141 33.659 4.76705 33.659 4.47623C33.659 4.18541 33.5881 3.92296 33.4498 3.66406L33.4214 3.61796C33.2583 3.33778 33.0455 3.12144 32.8008 2.97957C32.5561 2.83771 32.2617 2.76323 31.9319 2.76323H30.038V12.7256C30.038 15.9246 28.7399 18.8257 26.6404 20.9217C24.5408 23.0248 21.6397 24.3264 18.4407 24.3264C15.2417 24.3264 12.3441 23.0248 10.241 20.9253C8.14142 18.8292 6.84337 15.9281 6.84337 12.7256V2.75969H4.9495C4.62322 2.75969 4.3253 2.83416 4.08059 2.97603C3.83588 3.11789 3.62308 3.33423 3.45994 3.61441C3.30389 3.8875 3.22232 4.18186 3.22232 4.47268C3.22232 4.7635 3.30034 5.05787 3.45994 5.32741V5.33095L5.673 9.1648V12.7185C5.673 13.1228 5.69428 13.5235 5.72975 13.9208L1.44548 6.49778C1.07309 5.85585 0.888672 5.16427 0.888672 4.47268C0.888672 3.7811 1.07309 3.08952 1.44548 2.44404C1.81078 1.8092 2.31794 1.30559 2.92441 0.954478C3.53087 0.606914 4.21891 0.418945 4.95305 0.418945H6.84692C8.13433 0.418945 9.18411 1.46873 9.18411 2.75614V12.7185V12.722Z" fill="black"/>
<path d="M12.0351 0.418945H9.69434L11.8045 2.52916C11.9571 2.68166 12.0315 2.86608 12.0315 3.07888V12.7185C12.0315 14.4882 12.7515 16.0913 13.9077 17.251C15.0674 18.4107 16.674 19.1271 18.4366 19.1271C20.1993 19.1271 21.8059 18.4072 22.9656 17.2475C24.1254 16.0913 24.8418 14.4882 24.8418 12.7185V3.07888C24.8418 2.86254 24.9198 2.67811 25.0687 2.52916L27.179 0.418945H24.8382C23.5508 0.418945 22.501 1.46873 22.501 2.75614V12.7185C22.501 13.8427 22.0435 14.8606 21.3094 15.5983C20.5752 16.336 19.5574 16.7899 18.4296 16.7899C17.3017 16.7899 16.2839 16.336 15.5497 15.6018C14.8156 14.8606 14.3581 13.8427 14.3581 12.7185C14.3581 9.39533 14.3581 6.07573 14.3581 2.75614C14.3581 1.46873 13.3048 0.418945 12.0209 0.418945L12.0351 0.418945Z" fill="black"/>
<path d="M14.9368 29.8699L11.0391 23.1172C12.1882 23.9364 13.4543 24.5571 14.7949 24.9579L16.9548 28.6995V28.703C17.1143 28.9761 17.3271 29.1925 17.5825 29.3379C17.8272 29.4797 18.1216 29.5542 18.4479 29.5542C18.7741 29.5542 19.065 29.4797 19.3097 29.3379H19.3132C19.5579 29.196 19.7707 28.9761 19.9339 28.696L22.0937 24.9543C23.4343 24.5571 24.704 23.9364 25.8496 23.1172L21.9519 29.8628C21.5866 30.4976 21.0794 31.0012 20.4765 31.3488C19.87 31.6999 19.1785 31.8879 18.4443 31.8879C17.7102 31.8879 17.0257 31.6999 16.4157 31.3488H16.4121C15.8163 31.0048 15.3091 30.4976 14.9403 29.8592L14.9368 29.8699Z" fill="black"/>
</svg>