<svg width="36" height="25" viewBox="0 0 36 25" fill="none" xmlns="http://www.w3.org/2000/svg">
<path d="M20.5011 6.88655C21.0982 6.288 21.467 5.46253 21.467 4.55065C21.467 2.72409 19.9861 1.24316 18.1595 1.24316C17.0046 1.24316 15.9895 1.8361 15.3979 2.73252C15.2406 2.88988 2.07524 19.1168 1.9523 19.303C1.35515 19.9015 0.986328 20.727 0.986328 21.6382C0.986328 23.4647 2.46725 24.9457 4.29382 24.9457C5.44877 24.9457 6.46391 24.3527 7.05544 23.4563C7.21281 23.2989 20.3781 7.07201 20.5011 6.88584V6.88655Z" fill="black"/>
<path d="M28.1197 14.5864C28.7183 13.9879 29.0878 13.161 29.0878 12.2484C29.0878 10.4218 27.6069 8.94092 25.7803 8.94092C24.6254 8.94092 23.6095 9.53385 23.018 10.4317C22.8592 10.5904 15.945 19.1135 15.8206 19.3018C15.2221 19.9003 14.8525 20.7272 14.8525 21.6398C14.8525 23.4663 16.3335 24.9472 18.16 24.9472C19.315 24.9472 20.3308 24.3543 20.9224 23.4565C21.0811 23.2977 27.9954 14.7747 28.1197 14.5864Z" fill="black"/>
<path d="M35.245 5.30529C35.6618 3.52681 34.5579 1.74717 32.7794 1.33036C31.001 0.913543 29.2213 2.0174 28.8045 3.79588C28.3877 5.57437 29.4916 7.35401 31.27 7.77082C33.0485 8.18763 34.8282 7.08378 35.245 5.30529Z" fill="black"/>
<path d="M5.51552 7.62535C7.21322 6.95113 8.0429 5.02831 7.36868 3.33062C6.69446 1.63292 4.77164 0.803233 3.07395 1.47746C1.37625 2.15168 0.546565 4.0745 1.22079 5.77219C1.89501 7.46988 3.81783 8.29957 5.51552 7.62535Z" fill="black"/>
</svg>