<svg width="34" height="34" viewBox="0 0 34 34" fill="none" xmlns="http://www.w3.org/2000/svg">
<path d="M5.63056 9.04616H3.64648V3.24268H9.45237V5.22435H5.63056V9.04616Z" fill="#30325E"/>
<path d="M31.2414 9.04616H29.2574V5.22435H25.4355V3.24268H31.2414V9.04616Z" fill="#30325E"/>
<path d="M9.45237 30.8352H3.64648V25.0293H5.63056V28.8511H9.45237V30.8352Z" fill="#30325E"/>
<path d="M31.2414 30.8352H25.4355V28.8511H29.2574V25.0293H31.2414V30.8352Z" fill="#30325E"/>
<path d="M21.7056 4.75659L17.4448 9.09901L13.1839 4.75659L11.5117 6.39999L17.4448 12.4434L23.3778 6.39999L21.7056 4.75659Z" fill="#FF4653"/>
<path d="M17.8792 5.39477C18.9877 5.15508 19.6921 4.06209 19.4524 2.95351C19.2128 1.84492 18.1198 1.14054 17.0112 1.38022C15.9026 1.61991 15.1982 2.7129 15.4379 3.82148C15.6776 4.93007 16.7706 5.63445 17.8792 5.39477Z" fill="#FF4653"/>
<path d="M21.7056 29.3189L17.4448 24.9789L13.1839 29.3189L11.5117 27.6779L17.4448 21.6321L23.3778 27.6779L21.7056 29.3189Z" fill="#FF7859"/>
<path d="M18.9502 32.0891C19.7219 31.258 19.6738 29.9585 18.8427 29.1868C18.0116 28.415 16.7122 28.4631 15.9404 29.2942C15.1686 30.1253 15.2167 31.4247 16.0478 32.1965C16.879 32.9683 18.1784 32.9202 18.9502 32.0891Z" fill="#FF7859"/>
<path d="M29.7259 21.2984L25.3858 17.0375L29.7259 12.7767L28.0849 11.1045L22.0391 17.0375L28.0849 22.9706L29.7259 21.2984Z" fill="#FFD550"/>
<path d="M32.5479 18.4895C33.3499 17.6875 33.3499 16.3872 32.5479 15.5852C31.7459 14.7832 30.4456 14.7832 29.6436 15.5852C28.8416 16.3872 28.8416 17.6875 29.6436 18.4895C30.4456 19.2915 31.7459 19.2915 32.5479 18.4895Z" fill="#FFD550"/>
<path d="M5.16211 21.2984L9.50453 17.0375L5.16211 12.7767L6.80551 11.1045L12.8489 17.0375L6.80551 22.9706L5.16211 21.2984Z" fill="#00C3AD"/>
<path d="M5.24513 18.4885C6.04713 17.6865 6.04713 16.3862 5.24513 15.5842C4.44313 14.7822 3.14282 14.7822 2.34082 15.5842C1.53882 16.3862 1.53882 17.6865 2.34082 18.4885C3.14282 19.2905 4.44312 19.2905 5.24513 18.4885Z" fill="#00C3AD"/>
<path d="M24.5098 11.6686L22.8136 9.97241L17.4443 15.3417L12.0751 9.97241L10.3789 11.6686L15.7482 17.0378L10.3789 22.4071L12.0751 24.1033L17.4443 18.734L22.8136 24.1033L24.5098 22.4071L19.1405 17.0378L24.5098 11.6686Z" fill="#30325E"/>
</svg>