<svg width="33" height="35" viewBox="0 0 33 35" fill="none" xmlns="http://www.w3.org/2000/svg">
<path d="M6.72362 21.9688H2.18874C1.14721 21.9688 0.275491 21.1423 0.243145 20.1283C0.226972 19.614 0.416195 19.1272 0.771998 18.7585C1.13912 18.38 1.64048 18.1714 2.18389 18.1714H8.45573V19.6269H2.18551C2.03833 19.6269 1.90895 19.6787 1.81838 19.7725C1.76178 19.8307 1.69385 19.9326 1.6987 20.0846C1.70517 20.3175 1.92998 20.5132 2.18874 20.5132H6.72362V21.9688Z" fill="#2929D9"/>
<path d="M23.9894 34.7663H23.894C22.5387 34.7663 21.4357 33.6634 21.4357 32.3081V10.3388C21.4357 7.46977 19.1537 5.08265 16.3493 5.01634C14.9374 4.984 13.5983 5.50961 12.5843 6.49939C11.5702 7.48917 11.0107 8.81373 11.0107 10.2272V12.4559H9.5551V10.2272C9.5551 8.41912 10.2699 6.72582 11.567 5.45786C12.8641 4.19153 14.5735 3.51712 16.3833 3.56078C19.9721 3.64488 22.8913 6.68538 22.8913 10.3372V32.3065C22.8913 32.8596 23.3409 33.3092 23.894 33.3092H23.9894C24.5425 33.3092 24.9921 32.8596 24.9921 32.3065V10.2272C24.9921 7.86277 24.0622 5.64547 22.3721 3.98128C20.6837 2.31871 18.4534 1.42435 16.0857 1.45831C11.3244 1.53109 7.45263 5.52902 7.45263 10.3712V12.4559H5.99707V10.3712C5.99545 4.73817 10.5125 0.086849 16.0631 0.00113272C18.8222 -0.0392995 21.4244 1.00385 23.3926 2.94298C25.3625 4.88211 26.4461 7.46977 26.4461 10.2256V32.3065C26.4461 33.6617 25.3431 34.7647 23.9878 34.7647L23.9894 34.7663Z" fill="#2929D9"/>
<path d="M8.45535 34.7662C7.10006 34.7662 5.99707 33.6632 5.99707 32.3079V20.6311C5.99707 19.2758 7.10006 18.1729 8.45535 18.1729C9.81063 18.1729 10.9136 19.2758 10.9136 20.6311V32.3079C10.9136 33.6632 9.81063 34.7662 8.45535 34.7662ZM8.45535 19.6284C7.90223 19.6284 7.45263 20.078 7.45263 20.6311V32.3079C7.45263 32.8611 7.90223 33.3107 8.45535 33.3107C9.00846 33.3107 9.45807 32.8611 9.45807 32.3079V20.6311C9.45807 20.078 9.00846 19.6284 8.45535 19.6284Z" fill="#2929D9"/>
<path d="M18.6802 13.3278H17.2247V10.229C17.2247 9.67592 16.7751 9.22631 16.2219 9.22631C15.6688 9.22631 15.2192 9.67592 15.2192 10.229V13.3278H13.7637V10.229C13.7637 8.87374 14.8667 7.77075 16.2219 7.77075C17.5772 7.77075 18.6802 8.87374 18.6802 10.229V13.3278Z" fill="#2929D9"/>
<path d="M16.2317 34.7664C14.7292 34.7664 13.5065 33.5599 13.5065 32.0784V19.8291C13.5065 18.1342 12.127 16.7546 10.4321 16.7546H2.9311C1.44966 16.7562 0.243164 15.5497 0.243164 14.0683C0.243164 12.5869 1.44966 11.3804 2.9311 11.3804H10.4709C15.1303 11.3804 18.9212 15.1713 18.9212 19.8307V32.0784C18.9212 33.5599 17.7147 34.7664 16.2333 34.7664H16.2317ZM2.9311 12.8359C2.25184 12.8359 1.69872 13.389 1.69872 14.0683C1.69872 14.7476 2.25184 15.3007 2.9311 15.3007H10.4321C12.9292 15.3007 14.9621 17.332 14.9621 19.8307V32.0784C14.9621 32.7464 15.5443 33.3108 16.2317 33.3108C16.919 33.3108 17.464 32.7577 17.464 32.0784V19.8291C17.464 15.9719 14.3265 12.8343 10.4693 12.8343H2.9311V12.8359Z" fill="#2929D9"/>
<path d="M16.4712 15.6012L15.3262 14.702C16.9402 12.648 19.3629 11.469 21.9732 11.469H22.5716V12.9246H21.9732C19.8125 12.9246 17.8071 13.8998 16.4712 15.6012Z" fill="#2929D9"/>
<path d="M29.5127 16.8468H25.4824V15.3913H29.5127C30.192 15.3913 30.7451 14.8381 30.7451 14.1589C30.7451 13.4796 30.192 12.9265 29.5127 12.9265H25.9482V11.4709H29.5127C30.9941 11.4709 32.2006 12.6774 32.2006 14.1589C32.2006 15.6403 30.9941 16.8468 29.5127 16.8468Z" fill="#2929D9"/>
<path d="M18.938 19.9199H17.4824C17.4824 17.4228 19.5137 15.3899 22.0124 15.3899H22.4556V16.8455H22.0124C20.3175 16.8455 18.938 18.225 18.938 19.9199Z" fill="#2929D9"/>
<path d="M30.3038 21.9688H25.722V20.5132H30.3038C30.548 20.5132 30.7469 20.3143 30.7469 20.0701C30.7469 19.8259 30.548 19.6269 30.3038 19.6269H25.7188V18.1714H30.3038C31.3501 18.1714 32.2025 19.0237 32.2025 20.0701C32.2025 21.1165 31.3518 21.9688 30.3038 21.9688Z" fill="#2929D9"/>
</svg>