<svg width="28" height="35" viewBox="0 0 28 35" fill="none" xmlns="http://www.w3.org/2000/svg">
<g clip-path="url(#clip0_6452_736)">
<path fill-rule="evenodd" clip-rule="evenodd" d="M20.2661 17.2965C20.2661 18.9299 20.0124 20.3772 19.5041 21.6394C18.9969 22.901 18.317 23.9715 17.4632 24.8499C16.6096 25.7283 15.6327 26.3898 14.531 26.8356L14.4852 26.8537L14.4394 26.8719C8.09852 29.4451 4.40794 24.4865 6.55664 18.5671C7.46072 16.0784 9.17874 13.451 11.1022 11.0701C10.7876 11.0142 10.4633 10.9866 10.1322 10.9866C9.36547 10.9866 8.63612 11.1351 7.94221 11.4321C7.24943 11.7291 6.64345 12.1553 6.12455 12.7127C5.60454 13.2693 5.19004 13.9308 4.87994 14.6984C4.57122 15.4657 4.41603 16.3318 4.41603 17.2965V17.3417C4.41603 22.6593 4.40319 29.7739 4.42524 35H0V7.4981H4.52796V10.7641C5.24531 9.72495 6.13069 8.85241 7.19472 8.14678C8.25846 7.44227 9.57593 7.08946 11.153 7.08946C12.1922 7.08946 13.1998 7.2667 14.1756 7.62203C15.8735 5.88224 17.4941 4.47155 18.6483 3.63306C17.3836 5.2076 16.2411 6.68947 15.2218 8.08119L15.1796 8.14036L15.1679 8.15516L15.0504 8.31788L15.0069 8.37594L14.9868 8.40358L14.9633 8.4354L14.9212 8.49345L14.879 8.55207L14.8369 8.61013L14.8087 8.64949L14.7944 8.66819L14.7534 8.7268L14.7113 8.7843L14.6702 8.84236L14.6339 8.89344L14.6281 8.90042L14.5871 8.95792L14.5471 9.01542L14.505 9.07292L14.4651 9.13042L14.4614 9.13572L14.4238 9.18736L14.3839 9.24486L14.3428 9.3018L14.3029 9.35874L14.2901 9.37577L14.263 9.41568L14.2231 9.47207L14.1832 9.52845L14.1432 9.58539L14.122 9.61414L14.1033 9.64121L14.0645 9.6976L14.0246 9.75398L13.9858 9.80981L13.9576 9.85084L13.947 9.86563L13.9082 9.92201L13.8694 9.97784L13.8306 10.0331L13.7955 10.0853L13.7932 10.0889L13.7544 10.1442L13.7167 10.1992L13.6791 10.2545L13.6414 10.3097L13.6355 10.3181L13.604 10.3644L13.5663 10.4197L13.5286 10.4744L13.4912 10.5291L13.4784 10.5492L13.4549 10.5838L13.4172 10.638L13.381 10.6927L13.3447 10.7465L13.3235 10.7778L13.3081 10.8007L13.2718 10.854L13.2355 10.9087L13.2004 10.962L13.1722 11.0042L13.1641 11.0153L13.1289 11.0687L13.0937 11.122L13.0586 11.1753L12.9882 11.2811L12.9542 11.3347L12.919 11.3869L12.8838 11.4396L12.8766 11.4513L12.8498 11.4924L12.8157 11.5446L12.7817 11.5968L12.7476 11.649C11.2186 14.0014 10.1453 16.0142 9.52541 17.6875C7.71473 22.5837 10.851 25.3713 14.0874 21.899C14.5946 21.3547 14.9963 20.6932 15.2932 19.9133C15.5902 19.1337 15.7382 18.2617 15.7382 17.2965C15.7382 16.3313 15.5902 15.4593 15.2932 14.6797C14.9963 13.9007 14.5946 13.2383 14.0874 12.694C14.0428 12.6452 13.997 12.5988 13.9512 12.5525C13.964 12.5313 13.9783 12.5098 13.9922 12.4886C14.7836 11.2696 15.6209 10.0713 16.4851 8.89232C16.815 9.14828 17.1321 9.43243 17.4338 9.7431C18.2874 10.6221 18.9674 11.6917 19.4876 12.9541C20.0068 14.2158 20.2675 15.6636 20.2675 17.2965" fill="#092533"/>
<path fill-rule="evenodd" clip-rule="evenodd" d="M18.9102 5.71982L27.5856 0H20.3876C21.5699 2.00802 21.0781 3.91444 18.9104 5.71982" fill="#D92A27"/>
</g>
<defs>
<clipPath id="clip0_6452_736">
<rect width="27.5853" height="35" fill="white"/>
</clipPath>
</defs>
</svg>