<svg width="22" height="17" viewBox="0 0 22 17" fill="none" xmlns="http://www.w3.org/2000/svg">
<path id="Vector" d="M21.4948 0.963017C21.3492 0.816303 21.1761 0.699852 20.9854 0.620383C20.7946 0.540914 20.59 0.5 20.3834 0.5C20.1767 0.5 19.9722 0.540914 19.7814 0.620383C19.5907 0.699852 19.4175 0.816303 19.272 0.963017L7.61043 12.6403L2.711 7.72517C2.55991 7.57922 2.38156 7.46446 2.18612 7.38744C1.99069 7.31042 1.78199 7.27265 1.57196 7.27629C1.36192 7.27992 1.15466 7.32489 0.962004 7.40862C0.769348 7.49236 0.595071 7.61322 0.449123 7.7643C0.303176 7.91539 0.188417 8.09374 0.111397 8.28918C0.0343773 8.48462 -0.00339446 8.69331 0.000239365 8.90335C0.00387319 9.11338 0.0488412 9.32064 0.132575 9.5133C0.216309 9.70596 0.33717 9.88023 0.488256 10.0262L6.49906 16.037C6.64458 16.1837 6.8177 16.3001 7.00845 16.3796C7.1992 16.4591 7.40379 16.5 7.61043 16.5C7.81707 16.5 8.02167 16.4591 8.21241 16.3796C8.40316 16.3001 8.57629 16.1837 8.7218 16.037L21.4948 3.26403C21.6536 3.11745 21.7804 2.93955 21.8672 2.74154C21.9539 2.54352 21.9987 2.3297 21.9987 2.11352C21.9987 1.89735 21.9539 1.68352 21.8672 1.48551C21.7804 1.2875 21.6536 1.1096 21.4948 0.963017Z" fill="#031422"/>
</svg>
