<svg width="32" height="32" viewBox="0 0 32 32" fill="none" xmlns="http://www.w3.org/2000/svg">
<rect width="32" height="32" rx="5" fill="#5542F6"/>
<path fill-rule="evenodd" clip-rule="evenodd" d="M10.2103 6.21918C9.91807 5.92694 9.44425 5.92694 9.15201 6.21918L6.21918 9.152C5.92694 9.44425 5.92694 9.91807 6.21918 10.2103L8.47306 12.4642C8.8473 12.8384 9.05755 13.346 9.05755 13.8753V18.4582C9.05755 18.9875 8.8473 19.4951 8.47306 19.8693L6.21919 22.1232C6.18266 22.1597 6.15069 22.1991 6.1233 22.2406C5.93151 22.531 5.96347 22.9258 6.21918 23.1815L9.15201 26.1143C9.44425 26.4066 9.91807 26.4066 10.2103 26.1143L12.4642 23.8604C12.8384 23.4862 13.346 23.2759 13.8753 23.2759H18.4582C18.9875 23.2759 19.4951 23.4862 19.8693 23.8604L22.1232 26.1143C22.4154 26.4066 22.8892 26.4066 23.1815 26.1143L26.1143 23.1815C26.4066 22.8892 26.4066 22.4154 26.1143 22.1232L23.8604 19.8693C23.4862 19.4951 23.2759 18.9875 23.2759 18.4582V13.8753C23.2759 13.346 23.4862 12.8384 23.8604 12.4642L26.1143 10.2103C26.4066 9.91807 26.4066 9.44425 26.1143 9.152L23.1815 6.21918C22.8892 5.92694 22.4154 5.92694 22.1232 6.21918L19.8693 8.47306C19.4951 8.8473 18.9875 9.05755 18.4582 9.05755H13.8753C13.346 9.05755 12.8384 8.8473 12.4642 8.47306L10.2103 6.21918ZM19.7425 10.7625C19.3685 10.3895 18.8618 10.1801 18.3335 10.1801H14C13.4707 10.1801 12.9632 10.3903 12.5889 10.7645L10.7645 12.5889C10.3903 12.9632 10.1801 13.4707 10.1801 14V18.3335C10.1801 18.8628 10.3903 19.3703 10.7645 19.7446L12.591 21.571C12.965 21.944 13.4717 22.1534 14 22.1534H18.3335C18.8628 22.1534 19.3703 21.9432 19.7446 21.569L21.569 19.7446C21.9432 19.3703 22.1534 18.8628 22.1534 18.3335V14C22.1534 13.4707 21.9432 12.9632 21.569 12.5889L19.7425 10.7625Z" fill="white"/>
<path d="M16.9092 11.886H15.4243C14.4753 11.886 13.5661 12.2672 12.9008 12.9441C12.2505 13.6058 11.886 14.4965 11.886 15.4243V16.9092C11.886 17.837 12.2505 18.7277 12.9008 19.3894C13.5661 20.0662 14.4753 20.4475 15.4243 20.4475H16.9092C17.8582 20.4475 18.7674 20.0662 19.4327 19.3894C20.083 18.7277 20.4475 17.837 20.4475 16.9092V15.4243C20.4475 14.4965 20.083 13.6058 19.4327 12.9441C18.7674 12.2672 17.8582 11.886 16.9092 11.886Z" fill="white"/>
</svg>
