<svg width="256" height="256" viewBox="0 0 256 256" fill="none" xmlns="http://www.w3.org/2000/svg">
<rect width="256" height="256" rx="15" fill="#5542F6"/>
<path fill-rule="evenodd" clip-rule="evenodd" d="M79.3725 46.7894C76.9866 44.4036 73.1184 44.4036 70.7326 46.7894L46.7894 70.7326C44.4035 73.1184 44.4035 76.9866 46.7894 79.3725L65.1897 97.7728C68.245 100.828 69.9614 104.972 69.9614 109.293V146.707C69.9614 151.028 68.245 155.172 65.1897 158.227L46.7894 176.628C46.4912 176.926 46.2302 177.247 46.0066 177.586C44.4408 179.957 44.7018 183.18 46.7894 185.267L70.7326 209.211C73.1184 211.596 76.9866 211.596 79.3724 209.211L97.7728 190.81C100.828 187.755 104.972 186.039 109.293 186.039H146.707C151.028 186.039 155.172 187.755 158.227 190.81L176.628 209.211C179.013 211.596 182.882 211.596 185.267 209.211L209.211 185.267C211.596 182.882 211.596 179.013 209.211 176.628L190.81 158.227C187.755 155.172 186.039 151.028 186.039 146.707V109.293C186.039 104.972 187.755 100.828 190.81 97.7728L209.211 79.3725C211.596 76.9866 211.596 73.1184 209.211 70.7326L185.267 46.7894C182.882 44.4035 179.013 44.4036 176.628 46.7894L158.227 65.1897C155.172 68.245 151.028 69.9614 146.707 69.9614H109.293C104.972 69.9614 100.828 68.245 97.7728 65.1897L79.3725 46.7894ZM157.192 83.8804C154.139 80.8356 150.002 79.1254 145.689 79.1254H110.311C105.99 79.1254 101.846 80.8418 98.791 83.8971L83.8971 98.791C80.8419 101.846 79.1254 105.99 79.1254 110.311V145.689C79.1254 150.01 80.8419 154.154 83.8971 157.209L98.8077 172.12C101.861 175.164 105.998 176.875 110.311 176.875H145.689C150.01 176.875 154.154 175.158 157.209 172.103L172.103 157.209C175.158 154.154 176.875 150.01 176.875 145.689V110.311C176.875 105.99 175.158 101.846 172.103 98.791L157.192 83.8804Z" fill="white"/>
<path d="M134.061 93.0526H121.939C114.191 93.0526 106.768 96.165 101.337 101.691C96.0279 107.093 93.0526 114.364 93.0526 121.939V134.061C93.0526 141.636 96.0279 148.907 101.337 154.309C106.768 159.835 114.191 162.947 121.939 162.947H134.061C141.809 162.947 149.232 159.835 154.663 154.309C159.972 148.907 162.947 141.636 162.947 134.061V121.939C162.947 114.364 159.972 107.093 154.663 101.691C149.232 96.165 141.809 93.0526 134.061 93.0526Z" fill="white"/>
</svg>
