<svg width="1920" height="960" viewBox="0 0 1920 960" fill="none" xmlns="http://www.w3.org/2000/svg">
<g clip-path="url(#clip0_546_22737)">
<mask id="mask0_546_22737" style="mask-type:alpha" maskUnits="userSpaceOnUse" x="1200" y="0" width="1440" height="1440">
<rect width="1440" height="1440" transform="translate(1200)" fill="url(#paint0_radial_546_22737)" fill-opacity="0.1"/>
</mask>
<g mask="url(#mask0_546_22737)">
<g clip-path="url(#clip1_546_22737)">
<mask id="path-3-inside-1_546_22737" fill="white">
<path d="M1152 0H1216V64H1152V0Z"/>
</mask>
<path d="M1216 64V65H1217V64H1216ZM1215 0V64H1217V0H1215ZM1216 63H1152V65H1216V63Z" fill="#CDD5DF" mask="url(#path-3-inside-1_546_22737)"/>
<mask id="path-5-inside-2_546_22737" fill="white">
<path d="M1216 0H1280V64H1216V0Z"/>
</mask>
<path d="M1280 64V65H1281V64H1280ZM1279 0V64H1281V0H1279ZM1280 63H1216V65H1280V63Z" fill="#CDD5DF" mask="url(#path-5-inside-2_546_22737)"/>
<mask id="path-7-inside-3_546_22737" fill="white">
<path d="M1280 0H1344V64H1280V0Z"/>
</mask>
<path d="M1344 64V65H1345V64H1344ZM1343 0V64H1345V0H1343ZM1344 63H1280V65H1344V63Z" fill="#CDD5DF" mask="url(#path-7-inside-3_546_22737)"/>
<mask id="path-9-inside-4_546_22737" fill="white">
<path d="M1344 0H1408V64H1344V0Z"/>
</mask>
<path d="M1408 64V65H1409V64H1408ZM1407 0V64H1409V0H1407ZM1408 63H1344V65H1408V63Z" fill="#CDD5DF" mask="url(#path-9-inside-4_546_22737)"/>
<mask id="path-11-inside-5_546_22737" fill="white">
<path d="M1408 0H1472V64H1408V0Z"/>
</mask>
<path d="M1472 64V65H1473V64H1472ZM1471 0V64H1473V0H1471ZM1472 63H1408V65H1472V63Z" fill="#CDD5DF" mask="url(#path-11-inside-5_546_22737)"/>
<mask id="path-13-inside-6_546_22737" fill="white">
<path d="M1472 0H1536V64H1472V0Z"/>
</mask>
<path d="M1536 64V65H1537V64H1536ZM1535 0V64H1537V0H1535ZM1536 63H1472V65H1536V63Z" fill="#CDD5DF" mask="url(#path-13-inside-6_546_22737)"/>
<mask id="path-15-inside-7_546_22737" fill="white">
<path d="M1536 0H1600V64H1536V0Z"/>
</mask>
<path d="M1600 64V65H1601V64H1600ZM1599 0V64H1601V0H1599ZM1600 63H1536V65H1600V63Z" fill="#CDD5DF" mask="url(#path-15-inside-7_546_22737)"/>
<mask id="path-17-inside-8_546_22737" fill="white">
<path d="M1600 0H1664V64H1600V0Z"/>
</mask>
<path d="M1664 64V65H1665V64H1664ZM1663 0V64H1665V0H1663ZM1664 63H1600V65H1664V63Z" fill="#CDD5DF" mask="url(#path-17-inside-8_546_22737)"/>
<mask id="path-19-inside-9_546_22737" fill="white">
<path d="M1664 0H1728V64H1664V0Z"/>
</mask>
<path d="M1728 64V65H1729V64H1728ZM1727 0V64H1729V0H1727ZM1728 63H1664V65H1728V63Z" fill="#CDD5DF" mask="url(#path-19-inside-9_546_22737)"/>
<mask id="path-21-inside-10_546_22737" fill="white">
<path d="M1728 0H1792V64H1728V0Z"/>
</mask>
<path d="M1792 64V65H1793V64H1792ZM1791 0V64H1793V0H1791ZM1792 63H1728V65H1792V63Z" fill="#CDD5DF" mask="url(#path-21-inside-10_546_22737)"/>
<mask id="path-23-inside-11_546_22737" fill="white">
<path d="M1792 0H1856V64H1792V0Z"/>
</mask>
<path d="M1856 64V65H1857V64H1856ZM1855 0V64H1857V0H1855ZM1856 63H1792V65H1856V63Z" fill="#CDD5DF" mask="url(#path-23-inside-11_546_22737)"/>
<mask id="path-25-inside-12_546_22737" fill="white">
<path d="M1856 0H1920V64H1856V0Z"/>
</mask>
<path d="M1920 64V65H1921V64H1920ZM1919 0V64H1921V0H1919ZM1920 63H1856V65H1920V63Z" fill="#CDD5DF" mask="url(#path-25-inside-12_546_22737)"/>
<mask id="path-27-inside-13_546_22737" fill="white">
<path d="M1152 64H1216V128H1152V64Z"/>
</mask>
<path d="M1216 128V129H1217V128H1216ZM1215 64V128H1217V64H1215ZM1216 127H1152V129H1216V127Z" fill="#CDD5DF" mask="url(#path-27-inside-13_546_22737)"/>
<mask id="path-29-inside-14_546_22737" fill="white">
<path d="M1216 64H1280V128H1216V64Z"/>
</mask>
<path d="M1280 128V129H1281V128H1280ZM1279 64V128H1281V64H1279ZM1280 127H1216V129H1280V127Z" fill="#CDD5DF" mask="url(#path-29-inside-14_546_22737)"/>
<mask id="path-31-inside-15_546_22737" fill="white">
<path d="M1280 64H1344V128H1280V64Z"/>
</mask>
<path d="M1280 64H1344V128H1280V64Z" fill="#EEF2F6"/>
<path d="M1344 128V129H1345V128H1344ZM1343 64V128H1345V64H1343ZM1344 127H1280V129H1344V127Z" fill="#CDD5DF" mask="url(#path-31-inside-15_546_22737)"/>
<mask id="path-33-inside-16_546_22737" fill="white">
<path d="M1344 64H1408V128H1344V64Z"/>
</mask>
<path d="M1408 128V129H1409V128H1408ZM1407 64V128H1409V64H1407ZM1408 127H1344V129H1408V127Z" fill="#CDD5DF" mask="url(#path-33-inside-16_546_22737)"/>
<mask id="path-35-inside-17_546_22737" fill="white">
<path d="M1408 64H1472V128H1408V64Z"/>
</mask>
<path d="M1472 128V129H1473V128H1472ZM1471 64V128H1473V64H1471ZM1472 127H1408V129H1472V127Z" fill="#CDD5DF" mask="url(#path-35-inside-17_546_22737)"/>
<mask id="path-37-inside-18_546_22737" fill="white">
<path d="M1472 64H1536V128H1472V64Z"/>
</mask>
<path d="M1536 128V129H1537V128H1536ZM1535 64V128H1537V64H1535ZM1536 127H1472V129H1536V127Z" fill="#CDD5DF" mask="url(#path-37-inside-18_546_22737)"/>
<mask id="path-39-inside-19_546_22737" fill="white">
<path d="M1536 64H1600V128H1536V64Z"/>
</mask>
<path d="M1536 64H1600V128H1536V64Z" fill="#EEF2F6"/>
<path d="M1600 128V129H1601V128H1600ZM1599 64V128H1601V64H1599ZM1600 127H1536V129H1600V127Z" fill="#CDD5DF" mask="url(#path-39-inside-19_546_22737)"/>
<mask id="path-41-inside-20_546_22737" fill="white">
<path d="M1600 64H1664V128H1600V64Z"/>
</mask>
<path d="M1664 128V129H1665V128H1664ZM1663 64V128H1665V64H1663ZM1664 127H1600V129H1664V127Z" fill="#CDD5DF" mask="url(#path-41-inside-20_546_22737)"/>
<mask id="path-43-inside-21_546_22737" fill="white">
<path d="M1664 64H1728V128H1664V64Z"/>
</mask>
<path d="M1728 128V129H1729V128H1728ZM1727 64V128H1729V64H1727ZM1728 127H1664V129H1728V127Z" fill="#CDD5DF" mask="url(#path-43-inside-21_546_22737)"/>
<mask id="path-45-inside-22_546_22737" fill="white">
<path d="M1728 64H1792V128H1728V64Z"/>
</mask>
<path d="M1792 128V129H1793V128H1792ZM1791 64V128H1793V64H1791ZM1792 127H1728V129H1792V127Z" fill="#CDD5DF" mask="url(#path-45-inside-22_546_22737)"/>
<mask id="path-47-inside-23_546_22737" fill="white">
<path d="M1792 64H1856V128H1792V64Z"/>
</mask>
<path d="M1856 128V129H1857V128H1856ZM1855 64V128H1857V64H1855ZM1856 127H1792V129H1856V127Z" fill="#CDD5DF" mask="url(#path-47-inside-23_546_22737)"/>
<mask id="path-49-inside-24_546_22737" fill="white">
<path d="M1856 64H1920V128H1856V64Z"/>
</mask>
<path d="M1920 128V129H1921V128H1920ZM1919 64V128H1921V64H1919ZM1920 127H1856V129H1920V127Z" fill="#CDD5DF" mask="url(#path-49-inside-24_546_22737)"/>
<mask id="path-51-inside-25_546_22737" fill="white">
<path d="M1152 128H1216V192H1152V128Z"/>
</mask>
<path d="M1216 192V193H1217V192H1216ZM1215 128V192H1217V128H1215ZM1216 191H1152V193H1216V191Z" fill="#CDD5DF" mask="url(#path-51-inside-25_546_22737)"/>
<mask id="path-53-inside-26_546_22737" fill="white">
<path d="M1216 128H1280V192H1216V128Z"/>
</mask>
<path d="M1280 192V193H1281V192H1280ZM1279 128V192H1281V128H1279ZM1280 191H1216V193H1280V191Z" fill="#CDD5DF" mask="url(#path-53-inside-26_546_22737)"/>
<mask id="path-55-inside-27_546_22737" fill="white">
<path d="M1280 128H1344V192H1280V128Z"/>
</mask>
<path d="M1344 192V193H1345V192H1344ZM1343 128V192H1345V128H1343ZM1344 191H1280V193H1344V191Z" fill="#CDD5DF" mask="url(#path-55-inside-27_546_22737)"/>
<mask id="path-57-inside-28_546_22737" fill="white">
<path d="M1344 128H1408V192H1344V128Z"/>
</mask>
<path d="M1408 192V193H1409V192H1408ZM1407 128V192H1409V128H1407ZM1408 191H1344V193H1408V191Z" fill="#CDD5DF" mask="url(#path-57-inside-28_546_22737)"/>
<mask id="path-59-inside-29_546_22737" fill="white">
<path d="M1408 128H1472V192H1408V128Z"/>
</mask>
<path d="M1472 192V193H1473V192H1472ZM1471 128V192H1473V128H1471ZM1472 191H1408V193H1472V191Z" fill="#CDD5DF" mask="url(#path-59-inside-29_546_22737)"/>
<mask id="path-61-inside-30_546_22737" fill="white">
<path d="M1472 128H1536V192H1472V128Z"/>
</mask>
<path d="M1536 192V193H1537V192H1536ZM1535 128V192H1537V128H1535ZM1536 191H1472V193H1536V191Z" fill="#CDD5DF" mask="url(#path-61-inside-30_546_22737)"/>
<mask id="path-63-inside-31_546_22737" fill="white">
<path d="M1536 128H1600V192H1536V128Z"/>
</mask>
<path d="M1600 192V193H1601V192H1600ZM1599 128V192H1601V128H1599ZM1600 191H1536V193H1600V191Z" fill="#CDD5DF" mask="url(#path-63-inside-31_546_22737)"/>
<mask id="path-65-inside-32_546_22737" fill="white">
<path d="M1600 128H1664V192H1600V128Z"/>
</mask>
<path d="M1664 192V193H1665V192H1664ZM1663 128V192H1665V128H1663ZM1664 191H1600V193H1664V191Z" fill="#CDD5DF" mask="url(#path-65-inside-32_546_22737)"/>
<mask id="path-67-inside-33_546_22737" fill="white">
<path d="M1664 128H1728V192H1664V128Z"/>
</mask>
<path d="M1664 128H1728V192H1664V128Z" fill="#EEF2F6"/>
<path d="M1728 192V193H1729V192H1728ZM1727 128V192H1729V128H1727ZM1728 191H1664V193H1728V191Z" fill="#CDD5DF" mask="url(#path-67-inside-33_546_22737)"/>
<mask id="path-69-inside-34_546_22737" fill="white">
<path d="M1728 128H1792V192H1728V128Z"/>
</mask>
<path d="M1792 192V193H1793V192H1792ZM1791 128V192H1793V128H1791ZM1792 191H1728V193H1792V191Z" fill="#CDD5DF" mask="url(#path-69-inside-34_546_22737)"/>
<mask id="path-71-inside-35_546_22737" fill="white">
<path d="M1792 128H1856V192H1792V128Z"/>
</mask>
<path d="M1856 192V193H1857V192H1856ZM1855 128V192H1857V128H1855ZM1856 191H1792V193H1856V191Z" fill="#CDD5DF" mask="url(#path-71-inside-35_546_22737)"/>
<mask id="path-73-inside-36_546_22737" fill="white">
<path d="M1856 128H1920V192H1856V128Z"/>
</mask>
<path d="M1920 192V193H1921V192H1920ZM1919 128V192H1921V128H1919ZM1920 191H1856V193H1920V191Z" fill="#CDD5DF" mask="url(#path-73-inside-36_546_22737)"/>
<mask id="path-75-inside-37_546_22737" fill="white">
<path d="M1152 192H1216V256H1152V192Z"/>
</mask>
<path d="M1152 192H1216V256H1152V192Z" fill="#EEF2F6"/>
<path d="M1216 256V257H1217V256H1216ZM1215 192V256H1217V192H1215ZM1216 255H1152V257H1216V255Z" fill="#CDD5DF" mask="url(#path-75-inside-37_546_22737)"/>
<mask id="path-77-inside-38_546_22737" fill="white">
<path d="M1216 192H1280V256H1216V192Z"/>
</mask>
<path d="M1280 256V257H1281V256H1280ZM1279 192V256H1281V192H1279ZM1280 255H1216V257H1280V255Z" fill="#CDD5DF" mask="url(#path-77-inside-38_546_22737)"/>
<mask id="path-79-inside-39_546_22737" fill="white">
<path d="M1280 192H1344V256H1280V192Z"/>
</mask>
<path d="M1344 256V257H1345V256H1344ZM1343 192V256H1345V192H1343ZM1344 255H1280V257H1344V255Z" fill="#CDD5DF" mask="url(#path-79-inside-39_546_22737)"/>
<mask id="path-81-inside-40_546_22737" fill="white">
<path d="M1344 192H1408V256H1344V192Z"/>
</mask>
<path d="M1344 192H1408V256H1344V192Z" fill="#EEF2F6"/>
<path d="M1408 256V257H1409V256H1408ZM1407 192V256H1409V192H1407ZM1408 255H1344V257H1408V255Z" fill="#CDD5DF" mask="url(#path-81-inside-40_546_22737)"/>
<mask id="path-83-inside-41_546_22737" fill="white">
<path d="M1408 192H1472V256H1408V192Z"/>
</mask>
<path d="M1472 256V257H1473V256H1472ZM1471 192V256H1473V192H1471ZM1472 255H1408V257H1472V255Z" fill="#CDD5DF" mask="url(#path-83-inside-41_546_22737)"/>
<mask id="path-85-inside-42_546_22737" fill="white">
<path d="M1472 192H1536V256H1472V192Z"/>
</mask>
<path d="M1536 256V257H1537V256H1536ZM1535 192V256H1537V192H1535ZM1536 255H1472V257H1536V255Z" fill="#CDD5DF" mask="url(#path-85-inside-42_546_22737)"/>
<mask id="path-87-inside-43_546_22737" fill="white">
<path d="M1536 192H1600V256H1536V192Z"/>
</mask>
<path d="M1600 256V257H1601V256H1600ZM1599 192V256H1601V192H1599ZM1600 255H1536V257H1600V255Z" fill="#CDD5DF" mask="url(#path-87-inside-43_546_22737)"/>
<mask id="path-89-inside-44_546_22737" fill="white">
<path d="M1600 192H1664V256H1600V192Z"/>
</mask>
<path d="M1664 256V257H1665V256H1664ZM1663 192V256H1665V192H1663ZM1664 255H1600V257H1664V255Z" fill="#CDD5DF" mask="url(#path-89-inside-44_546_22737)"/>
<mask id="path-91-inside-45_546_22737" fill="white">
<path d="M1664 192H1728V256H1664V192Z"/>
</mask>
<path d="M1728 256V257H1729V256H1728ZM1727 192V256H1729V192H1727ZM1728 255H1664V257H1728V255Z" fill="#CDD5DF" mask="url(#path-91-inside-45_546_22737)"/>
<mask id="path-93-inside-46_546_22737" fill="white">
<path d="M1728 192H1792V256H1728V192Z"/>
</mask>
<path d="M1792 256V257H1793V256H1792ZM1791 192V256H1793V192H1791ZM1792 255H1728V257H1792V255Z" fill="#CDD5DF" mask="url(#path-93-inside-46_546_22737)"/>
<mask id="path-95-inside-47_546_22737" fill="white">
<path d="M1792 192H1856V256H1792V192Z"/>
</mask>
<path d="M1856 256V257H1857V256H1856ZM1855 192V256H1857V192H1855ZM1856 255H1792V257H1856V255Z" fill="#CDD5DF" mask="url(#path-95-inside-47_546_22737)"/>
<mask id="path-97-inside-48_546_22737" fill="white">
<path d="M1856 192H1920V256H1856V192Z"/>
</mask>
<path d="M1920 256V257H1921V256H1920ZM1919 192V256H1921V192H1919ZM1920 255H1856V257H1920V255Z" fill="#CDD5DF" mask="url(#path-97-inside-48_546_22737)"/>
<mask id="path-99-inside-49_546_22737" fill="white">
<path d="M1152 256H1216V320H1152V256Z"/>
</mask>
<path d="M1216 320V321H1217V320H1216ZM1215 256V320H1217V256H1215ZM1216 319H1152V321H1216V319Z" fill="#CDD5DF" mask="url(#path-99-inside-49_546_22737)"/>
<mask id="path-101-inside-50_546_22737" fill="white">
<path d="M1216 256H1280V320H1216V256Z"/>
</mask>
<path d="M1280 320V321H1281V320H1280ZM1279 256V320H1281V256H1279ZM1280 319H1216V321H1280V319Z" fill="#CDD5DF" mask="url(#path-101-inside-50_546_22737)"/>
<mask id="path-103-inside-51_546_22737" fill="white">
<path d="M1280 256H1344V320H1280V256Z"/>
</mask>
<path d="M1344 320V321H1345V320H1344ZM1343 256V320H1345V256H1343ZM1344 319H1280V321H1344V319Z" fill="#CDD5DF" mask="url(#path-103-inside-51_546_22737)"/>
<mask id="path-105-inside-52_546_22737" fill="white">
<path d="M1344 256H1408V320H1344V256Z"/>
</mask>
<path d="M1408 320V321H1409V320H1408ZM1407 256V320H1409V256H1407ZM1408 319H1344V321H1408V319Z" fill="#CDD5DF" mask="url(#path-105-inside-52_546_22737)"/>
<mask id="path-107-inside-53_546_22737" fill="white">
<path d="M1408 256H1472V320H1408V256Z"/>
</mask>
<path d="M1472 320V321H1473V320H1472ZM1471 256V320H1473V256H1471ZM1472 319H1408V321H1472V319Z" fill="#CDD5DF" mask="url(#path-107-inside-53_546_22737)"/>
<mask id="path-109-inside-54_546_22737" fill="white">
<path d="M1472 256H1536V320H1472V256Z"/>
</mask>
<path d="M1472 256H1536V320H1472V256Z" fill="#EEF2F6"/>
<path d="M1536 320V321H1537V320H1536ZM1535 256V320H1537V256H1535ZM1536 319H1472V321H1536V319Z" fill="#CDD5DF" mask="url(#path-109-inside-54_546_22737)"/>
<mask id="path-111-inside-55_546_22737" fill="white">
<path d="M1536 256H1600V320H1536V256Z"/>
</mask>
<path d="M1600 320V321H1601V320H1600ZM1599 256V320H1601V256H1599ZM1600 319H1536V321H1600V319Z" fill="#CDD5DF" mask="url(#path-111-inside-55_546_22737)"/>
<mask id="path-113-inside-56_546_22737" fill="white">
<path d="M1600 256H1664V320H1600V256Z"/>
</mask>
<path d="M1664 320V321H1665V320H1664ZM1663 256V320H1665V256H1663ZM1664 319H1600V321H1664V319Z" fill="#CDD5DF" mask="url(#path-113-inside-56_546_22737)"/>
<mask id="path-115-inside-57_546_22737" fill="white">
<path d="M1664 256H1728V320H1664V256Z"/>
</mask>
<path d="M1728 320V321H1729V320H1728ZM1727 256V320H1729V256H1727ZM1728 319H1664V321H1728V319Z" fill="#CDD5DF" mask="url(#path-115-inside-57_546_22737)"/>
<mask id="path-117-inside-58_546_22737" fill="white">
<path d="M1728 256H1792V320H1728V256Z"/>
</mask>
<path d="M1792 320V321H1793V320H1792ZM1791 256V320H1793V256H1791ZM1792 319H1728V321H1792V319Z" fill="#CDD5DF" mask="url(#path-117-inside-58_546_22737)"/>
<mask id="path-119-inside-59_546_22737" fill="white">
<path d="M1792 256H1856V320H1792V256Z"/>
</mask>
<path d="M1792 256H1856V320H1792V256Z" fill="#EEF2F6"/>
<path d="M1856 320V321H1857V320H1856ZM1855 256V320H1857V256H1855ZM1856 319H1792V321H1856V319Z" fill="#CDD5DF" mask="url(#path-119-inside-59_546_22737)"/>
<mask id="path-121-inside-60_546_22737" fill="white">
<path d="M1856 256H1920V320H1856V256Z"/>
</mask>
<path d="M1920 320V321H1921V320H1920ZM1919 256V320H1921V256H1919ZM1920 319H1856V321H1920V319Z" fill="#CDD5DF" mask="url(#path-121-inside-60_546_22737)"/>
<mask id="path-123-inside-61_546_22737" fill="white">
<path d="M1152 320H1216V384H1152V320Z"/>
</mask>
<path d="M1216 384V385H1217V384H1216ZM1215 320V384H1217V320H1215ZM1216 383H1152V385H1216V383Z" fill="#CDD5DF" mask="url(#path-123-inside-61_546_22737)"/>
<mask id="path-125-inside-62_546_22737" fill="white">
<path d="M1216 320H1280V384H1216V320Z"/>
</mask>
<path d="M1280 384V385H1281V384H1280ZM1279 320V384H1281V320H1279ZM1280 383H1216V385H1280V383Z" fill="#CDD5DF" mask="url(#path-125-inside-62_546_22737)"/>
<mask id="path-127-inside-63_546_22737" fill="white">
<path d="M1280 320H1344V384H1280V320Z"/>
</mask>
<path d="M1344 384V385H1345V384H1344ZM1343 320V384H1345V320H1343ZM1344 383H1280V385H1344V383Z" fill="#CDD5DF" mask="url(#path-127-inside-63_546_22737)"/>
<mask id="path-129-inside-64_546_22737" fill="white">
<path d="M1344 320H1408V384H1344V320Z"/>
</mask>
<path d="M1408 384V385H1409V384H1408ZM1407 320V384H1409V320H1407ZM1408 383H1344V385H1408V383Z" fill="#CDD5DF" mask="url(#path-129-inside-64_546_22737)"/>
<mask id="path-131-inside-65_546_22737" fill="white">
<path d="M1408 320H1472V384H1408V320Z"/>
</mask>
<path d="M1472 384V385H1473V384H1472ZM1471 320V384H1473V320H1471ZM1472 383H1408V385H1472V383Z" fill="#CDD5DF" mask="url(#path-131-inside-65_546_22737)"/>
<mask id="path-133-inside-66_546_22737" fill="white">
<path d="M1472 320H1536V384H1472V320Z"/>
</mask>
<path d="M1536 384V385H1537V384H1536ZM1535 320V384H1537V320H1535ZM1536 383H1472V385H1536V383Z" fill="#CDD5DF" mask="url(#path-133-inside-66_546_22737)"/>
<mask id="path-135-inside-67_546_22737" fill="white">
<path d="M1536 320H1600V384H1536V320Z"/>
</mask>
<path d="M1600 384V385H1601V384H1600ZM1599 320V384H1601V320H1599ZM1600 383H1536V385H1600V383Z" fill="#CDD5DF" mask="url(#path-135-inside-67_546_22737)"/>
<mask id="path-137-inside-68_546_22737" fill="white">
<path d="M1600 320H1664V384H1600V320Z"/>
</mask>
<path d="M1664 384V385H1665V384H1664ZM1663 320V384H1665V320H1663ZM1664 383H1600V385H1664V383Z" fill="#CDD5DF" mask="url(#path-137-inside-68_546_22737)"/>
<mask id="path-139-inside-69_546_22737" fill="white">
<path d="M1664 320H1728V384H1664V320Z"/>
</mask>
<path d="M1664 320H1728V384H1664V320Z" fill="#EEF2F6"/>
<path d="M1728 384V385H1729V384H1728ZM1727 320V384H1729V320H1727ZM1728 383H1664V385H1728V383Z" fill="#CDD5DF" mask="url(#path-139-inside-69_546_22737)"/>
<mask id="path-141-inside-70_546_22737" fill="white">
<path d="M1728 320H1792V384H1728V320Z"/>
</mask>
<path d="M1792 384V385H1793V384H1792ZM1791 320V384H1793V320H1791ZM1792 383H1728V385H1792V383Z" fill="#CDD5DF" mask="url(#path-141-inside-70_546_22737)"/>
<mask id="path-143-inside-71_546_22737" fill="white">
<path d="M1792 320H1856V384H1792V320Z"/>
</mask>
<path d="M1856 384V385H1857V384H1856ZM1855 320V384H1857V320H1855ZM1856 383H1792V385H1856V383Z" fill="#CDD5DF" mask="url(#path-143-inside-71_546_22737)"/>
<mask id="path-145-inside-72_546_22737" fill="white">
<path d="M1856 320H1920V384H1856V320Z"/>
</mask>
<path d="M1920 384V385H1921V384H1920ZM1919 320V384H1921V320H1919ZM1920 383H1856V385H1920V383Z" fill="#CDD5DF" mask="url(#path-145-inside-72_546_22737)"/>
<mask id="path-147-inside-73_546_22737" fill="white">
<path d="M1152 384H1216V448H1152V384Z"/>
</mask>
<path d="M1216 448V449H1217V448H1216ZM1215 384V448H1217V384H1215ZM1216 447H1152V449H1216V447Z" fill="#CDD5DF" mask="url(#path-147-inside-73_546_22737)"/>
<mask id="path-149-inside-74_546_22737" fill="white">
<path d="M1216 384H1280V448H1216V384Z"/>
</mask>
<path d="M1280 448V449H1281V448H1280ZM1279 384V448H1281V384H1279ZM1280 447H1216V449H1280V447Z" fill="#CDD5DF" mask="url(#path-149-inside-74_546_22737)"/>
<mask id="path-151-inside-75_546_22737" fill="white">
<path d="M1280 384H1344V448H1280V384Z"/>
</mask>
<path d="M1344 448V449H1345V448H1344ZM1343 384V448H1345V384H1343ZM1344 447H1280V449H1344V447Z" fill="#CDD5DF" mask="url(#path-151-inside-75_546_22737)"/>
<mask id="path-153-inside-76_546_22737" fill="white">
<path d="M1344 384H1408V448H1344V384Z"/>
</mask>
<path d="M1408 448V449H1409V448H1408ZM1407 384V448H1409V384H1407ZM1408 447H1344V449H1408V447Z" fill="#CDD5DF" mask="url(#path-153-inside-76_546_22737)"/>
<mask id="path-155-inside-77_546_22737" fill="white">
<path d="M1408 384H1472V448H1408V384Z"/>
</mask>
<path d="M1408 384H1472V448H1408V384Z" fill="#EEF2F6"/>
<path d="M1472 448V449H1473V448H1472ZM1471 384V448H1473V384H1471ZM1472 447H1408V449H1472V447Z" fill="#CDD5DF" mask="url(#path-155-inside-77_546_22737)"/>
<mask id="path-157-inside-78_546_22737" fill="white">
<path d="M1472 384H1536V448H1472V384Z"/>
</mask>
<path d="M1536 448V449H1537V448H1536ZM1535 384V448H1537V384H1535ZM1536 447H1472V449H1536V447Z" fill="#CDD5DF" mask="url(#path-157-inside-78_546_22737)"/>
<mask id="path-159-inside-79_546_22737" fill="white">
<path d="M1536 384H1600V448H1536V384Z"/>
</mask>
<path d="M1600 448V449H1601V448H1600ZM1599 384V448H1601V384H1599ZM1600 447H1536V449H1600V447Z" fill="#CDD5DF" mask="url(#path-159-inside-79_546_22737)"/>
<mask id="path-161-inside-80_546_22737" fill="white">
<path d="M1600 384H1664V448H1600V384Z"/>
</mask>
<path d="M1664 448V449H1665V448H1664ZM1663 384V448H1665V384H1663ZM1664 447H1600V449H1664V447Z" fill="#CDD5DF" mask="url(#path-161-inside-80_546_22737)"/>
<mask id="path-163-inside-81_546_22737" fill="white">
<path d="M1664 384H1728V448H1664V384Z"/>
</mask>
<path d="M1728 448V449H1729V448H1728ZM1727 384V448H1729V384H1727ZM1728 447H1664V449H1728V447Z" fill="#CDD5DF" mask="url(#path-163-inside-81_546_22737)"/>
<mask id="path-165-inside-82_546_22737" fill="white">
<path d="M1728 384H1792V448H1728V384Z"/>
</mask>
<path d="M1792 448V449H1793V448H1792ZM1791 384V448H1793V384H1791ZM1792 447H1728V449H1792V447Z" fill="#CDD5DF" mask="url(#path-165-inside-82_546_22737)"/>
<mask id="path-167-inside-83_546_22737" fill="white">
<path d="M1792 384H1856V448H1792V384Z"/>
</mask>
<path d="M1856 448V449H1857V448H1856ZM1855 384V448H1857V384H1855ZM1856 447H1792V449H1856V447Z" fill="#CDD5DF" mask="url(#path-167-inside-83_546_22737)"/>
<mask id="path-169-inside-84_546_22737" fill="white">
<path d="M1856 384H1920V448H1856V384Z"/>
</mask>
<path d="M1856 384H1920V448H1856V384Z" fill="#EEF2F6"/>
<path d="M1920 448V449H1921V448H1920ZM1919 384V448H1921V384H1919ZM1920 447H1856V449H1920V447Z" fill="#CDD5DF" mask="url(#path-169-inside-84_546_22737)"/>
<mask id="path-171-inside-85_546_22737" fill="white">
<path d="M1152 448H1216V512H1152V448Z"/>
</mask>
<path d="M1216 512V513H1217V512H1216ZM1215 448V512H1217V448H1215ZM1216 511H1152V513H1216V511Z" fill="#CDD5DF" mask="url(#path-171-inside-85_546_22737)"/>
<mask id="path-173-inside-86_546_22737" fill="white">
<path d="M1216 448H1280V512H1216V448Z"/>
</mask>
<path d="M1280 512V513H1281V512H1280ZM1279 448V512H1281V448H1279ZM1280 511H1216V513H1280V511Z" fill="#CDD5DF" mask="url(#path-173-inside-86_546_22737)"/>
<mask id="path-175-inside-87_546_22737" fill="white">
<path d="M1280 448H1344V512H1280V448Z"/>
</mask>
<path d="M1344 512V513H1345V512H1344ZM1343 448V512H1345V448H1343ZM1344 511H1280V513H1344V511Z" fill="#CDD5DF" mask="url(#path-175-inside-87_546_22737)"/>
<mask id="path-177-inside-88_546_22737" fill="white">
<path d="M1344 448H1408V512H1344V448Z"/>
</mask>
<path d="M1408 512V513H1409V512H1408ZM1407 448V512H1409V448H1407ZM1408 511H1344V513H1408V511Z" fill="#CDD5DF" mask="url(#path-177-inside-88_546_22737)"/>
<mask id="path-179-inside-89_546_22737" fill="white">
<path d="M1408 448H1472V512H1408V448Z"/>
</mask>
<path d="M1472 512V513H1473V512H1472ZM1471 448V512H1473V448H1471ZM1472 511H1408V513H1472V511Z" fill="#CDD5DF" mask="url(#path-179-inside-89_546_22737)"/>
<mask id="path-181-inside-90_546_22737" fill="white">
<path d="M1472 448H1536V512H1472V448Z"/>
</mask>
<path d="M1536 512V513H1537V512H1536ZM1535 448V512H1537V448H1535ZM1536 511H1472V513H1536V511Z" fill="#CDD5DF" mask="url(#path-181-inside-90_546_22737)"/>
<mask id="path-183-inside-91_546_22737" fill="white">
<path d="M1536 448H1600V512H1536V448Z"/>
</mask>
<path d="M1600 512V513H1601V512H1600ZM1599 448V512H1601V448H1599ZM1600 511H1536V513H1600V511Z" fill="#CDD5DF" mask="url(#path-183-inside-91_546_22737)"/>
<mask id="path-185-inside-92_546_22737" fill="white">
<path d="M1600 448H1664V512H1600V448Z"/>
</mask>
<path d="M1664 512V513H1665V512H1664ZM1663 448V512H1665V448H1663ZM1664 511H1600V513H1664V511Z" fill="#CDD5DF" mask="url(#path-185-inside-92_546_22737)"/>
<mask id="path-187-inside-93_546_22737" fill="white">
<path d="M1664 448H1728V512H1664V448Z"/>
</mask>
<path d="M1728 512V513H1729V512H1728ZM1727 448V512H1729V448H1727ZM1728 511H1664V513H1728V511Z" fill="#CDD5DF" mask="url(#path-187-inside-93_546_22737)"/>
<mask id="path-189-inside-94_546_22737" fill="white">
<path d="M1728 448H1792V512H1728V448Z"/>
</mask>
<path d="M1728 448H1792V512H1728V448Z" fill="#EEF2F6"/>
<path d="M1792 512V513H1793V512H1792ZM1791 448V512H1793V448H1791ZM1792 511H1728V513H1792V511Z" fill="#CDD5DF" mask="url(#path-189-inside-94_546_22737)"/>
<mask id="path-191-inside-95_546_22737" fill="white">
<path d="M1792 448H1856V512H1792V448Z"/>
</mask>
<path d="M1856 512V513H1857V512H1856ZM1855 448V512H1857V448H1855ZM1856 511H1792V513H1856V511Z" fill="#CDD5DF" mask="url(#path-191-inside-95_546_22737)"/>
<mask id="path-193-inside-96_546_22737" fill="white">
<path d="M1856 448H1920V512H1856V448Z"/>
</mask>
<path d="M1920 512V513H1921V512H1920ZM1919 448V512H1921V448H1919ZM1920 511H1856V513H1920V511Z" fill="#CDD5DF" mask="url(#path-193-inside-96_546_22737)"/>
<mask id="path-195-inside-97_546_22737" fill="white">
<path d="M1152 512H1216V576H1152V512Z"/>
</mask>
<path d="M1216 576V577H1217V576H1216ZM1215 512V576H1217V512H1215ZM1216 575H1152V577H1216V575Z" fill="#CDD5DF" mask="url(#path-195-inside-97_546_22737)"/>
<mask id="path-197-inside-98_546_22737" fill="white">
<path d="M1216 512H1280V576H1216V512Z"/>
</mask>
<path d="M1280 576V577H1281V576H1280ZM1279 512V576H1281V512H1279ZM1280 575H1216V577H1280V575Z" fill="#CDD5DF" mask="url(#path-197-inside-98_546_22737)"/>
<mask id="path-199-inside-99_546_22737" fill="white">
<path d="M1280 512H1344V576H1280V512Z"/>
</mask>
<path d="M1280 512H1344V576H1280V512Z" fill="#EEF2F6"/>
<path d="M1344 576V577H1345V576H1344ZM1343 512V576H1345V512H1343ZM1344 575H1280V577H1344V575Z" fill="#CDD5DF" mask="url(#path-199-inside-99_546_22737)"/>
<mask id="path-201-inside-100_546_22737" fill="white">
<path d="M1344 512H1408V576H1344V512Z"/>
</mask>
<path d="M1408 576V577H1409V576H1408ZM1407 512V576H1409V512H1407ZM1408 575H1344V577H1408V575Z" fill="#CDD5DF" mask="url(#path-201-inside-100_546_22737)"/>
<mask id="path-203-inside-101_546_22737" fill="white">
<path d="M1408 512H1472V576H1408V512Z"/>
</mask>
<path d="M1472 576V577H1473V576H1472ZM1471 512V576H1473V512H1471ZM1472 575H1408V577H1472V575Z" fill="#CDD5DF" mask="url(#path-203-inside-101_546_22737)"/>
<mask id="path-205-inside-102_546_22737" fill="white">
<path d="M1472 512H1536V576H1472V512Z"/>
</mask>
<path d="M1536 576V577H1537V576H1536ZM1535 512V576H1537V512H1535ZM1536 575H1472V577H1536V575Z" fill="#CDD5DF" mask="url(#path-205-inside-102_546_22737)"/>
<mask id="path-207-inside-103_546_22737" fill="white">
<path d="M1536 512H1600V576H1536V512Z"/>
</mask>
<path d="M1600 576V577H1601V576H1600ZM1599 512V576H1601V512H1599ZM1600 575H1536V577H1600V575Z" fill="#CDD5DF" mask="url(#path-207-inside-103_546_22737)"/>
<mask id="path-209-inside-104_546_22737" fill="white">
<path d="M1600 512H1664V576H1600V512Z"/>
</mask>
<path d="M1600 512H1664V576H1600V512Z" fill="#EEF2F6"/>
<path d="M1664 576V577H1665V576H1664ZM1663 512V576H1665V512H1663ZM1664 575H1600V577H1664V575Z" fill="#CDD5DF" mask="url(#path-209-inside-104_546_22737)"/>
<mask id="path-211-inside-105_546_22737" fill="white">
<path d="M1664 512H1728V576H1664V512Z"/>
</mask>
<path d="M1728 576V577H1729V576H1728ZM1727 512V576H1729V512H1727ZM1728 575H1664V577H1728V575Z" fill="#CDD5DF" mask="url(#path-211-inside-105_546_22737)"/>
<mask id="path-213-inside-106_546_22737" fill="white">
<path d="M1728 512H1792V576H1728V512Z"/>
</mask>
<path d="M1792 576V577H1793V576H1792ZM1791 512V576H1793V512H1791ZM1792 575H1728V577H1792V575Z" fill="#CDD5DF" mask="url(#path-213-inside-106_546_22737)"/>
<mask id="path-215-inside-107_546_22737" fill="white">
<path d="M1792 512H1856V576H1792V512Z"/>
</mask>
<path d="M1856 576V577H1857V576H1856ZM1855 512V576H1857V512H1855ZM1856 575H1792V577H1856V575Z" fill="#CDD5DF" mask="url(#path-215-inside-107_546_22737)"/>
<mask id="path-217-inside-108_546_22737" fill="white">
<path d="M1856 512H1920V576H1856V512Z"/>
</mask>
<path d="M1920 576V577H1921V576H1920ZM1919 512V576H1921V512H1919ZM1920 575H1856V577H1920V575Z" fill="#CDD5DF" mask="url(#path-217-inside-108_546_22737)"/>
<mask id="path-219-inside-109_546_22737" fill="white">
<path d="M1152 576H1216V640H1152V576Z"/>
</mask>
<path d="M1216 640V641H1217V640H1216ZM1215 576V640H1217V576H1215ZM1216 639H1152V641H1216V639Z" fill="#CDD5DF" mask="url(#path-219-inside-109_546_22737)"/>
<mask id="path-221-inside-110_546_22737" fill="white">
<path d="M1216 576H1280V640H1216V576Z"/>
</mask>
<path d="M1280 640V641H1281V640H1280ZM1279 576V640H1281V576H1279ZM1280 639H1216V641H1280V639Z" fill="#CDD5DF" mask="url(#path-221-inside-110_546_22737)"/>
<mask id="path-223-inside-111_546_22737" fill="white">
<path d="M1280 576H1344V640H1280V576Z"/>
</mask>
<path d="M1344 640V641H1345V640H1344ZM1343 576V640H1345V576H1343ZM1344 639H1280V641H1344V639Z" fill="#CDD5DF" mask="url(#path-223-inside-111_546_22737)"/>
<mask id="path-225-inside-112_546_22737" fill="white">
<path d="M1344 576H1408V640H1344V576Z"/>
</mask>
<path d="M1408 640V641H1409V640H1408ZM1407 576V640H1409V576H1407ZM1408 639H1344V641H1408V639Z" fill="#CDD5DF" mask="url(#path-225-inside-112_546_22737)"/>
<mask id="path-227-inside-113_546_22737" fill="white">
<path d="M1408 576H1472V640H1408V576Z"/>
</mask>
<path d="M1408 576H1472V640H1408V576Z" fill="#EEF2F6"/>
<path d="M1472 640V641H1473V640H1472ZM1471 576V640H1473V576H1471ZM1472 639H1408V641H1472V639Z" fill="#CDD5DF" mask="url(#path-227-inside-113_546_22737)"/>
<mask id="path-229-inside-114_546_22737" fill="white">
<path d="M1472 576H1536V640H1472V576Z"/>
</mask>
<path d="M1536 640V641H1537V640H1536ZM1535 576V640H1537V576H1535ZM1536 639H1472V641H1536V639Z" fill="#CDD5DF" mask="url(#path-229-inside-114_546_22737)"/>
<mask id="path-231-inside-115_546_22737" fill="white">
<path d="M1536 576H1600V640H1536V576Z"/>
</mask>
<path d="M1600 640V641H1601V640H1600ZM1599 576V640H1601V576H1599ZM1600 639H1536V641H1600V639Z" fill="#CDD5DF" mask="url(#path-231-inside-115_546_22737)"/>
<mask id="path-233-inside-116_546_22737" fill="white">
<path d="M1600 576H1664V640H1600V576Z"/>
</mask>
<path d="M1664 640V641H1665V640H1664ZM1663 576V640H1665V576H1663ZM1664 639H1600V641H1664V639Z" fill="#CDD5DF" mask="url(#path-233-inside-116_546_22737)"/>
<mask id="path-235-inside-117_546_22737" fill="white">
<path d="M1664 576H1728V640H1664V576Z"/>
</mask>
<path d="M1728 640V641H1729V640H1728ZM1727 576V640H1729V576H1727ZM1728 639H1664V641H1728V639Z" fill="#CDD5DF" mask="url(#path-235-inside-117_546_22737)"/>
<mask id="path-237-inside-118_546_22737" fill="white">
<path d="M1728 576H1792V640H1728V576Z"/>
</mask>
<path d="M1792 640V641H1793V640H1792ZM1791 576V640H1793V576H1791ZM1792 639H1728V641H1792V639Z" fill="#CDD5DF" mask="url(#path-237-inside-118_546_22737)"/>
<mask id="path-239-inside-119_546_22737" fill="white">
<path d="M1792 576H1856V640H1792V576Z"/>
</mask>
<path d="M1856 640V641H1857V640H1856ZM1855 576V640H1857V576H1855ZM1856 639H1792V641H1856V639Z" fill="#CDD5DF" mask="url(#path-239-inside-119_546_22737)"/>
<mask id="path-241-inside-120_546_22737" fill="white">
<path d="M1856 576H1920V640H1856V576Z"/>
</mask>
<path d="M1856 576H1920V640H1856V576Z" fill="#EEF2F6"/>
<path d="M1920 640V641H1921V640H1920ZM1919 576V640H1921V576H1919ZM1920 639H1856V641H1920V639Z" fill="#CDD5DF" mask="url(#path-241-inside-120_546_22737)"/>
<mask id="path-243-inside-121_546_22737" fill="white">
<path d="M1152 640H1216V704H1152V640Z"/>
</mask>
<path d="M1152 640H1216V704H1152V640Z" fill="#EEF2F6"/>
<path d="M1216 704V705H1217V704H1216ZM1215 640V704H1217V640H1215ZM1216 703H1152V705H1216V703Z" fill="#CDD5DF" mask="url(#path-243-inside-121_546_22737)"/>
<mask id="path-245-inside-122_546_22737" fill="white">
<path d="M1216 640H1280V704H1216V640Z"/>
</mask>
<path d="M1280 704V705H1281V704H1280ZM1279 640V704H1281V640H1279ZM1280 703H1216V705H1280V703Z" fill="#CDD5DF" mask="url(#path-245-inside-122_546_22737)"/>
<mask id="path-247-inside-123_546_22737" fill="white">
<path d="M1280 640H1344V704H1280V640Z"/>
</mask>
<path d="M1344 704V705H1345V704H1344ZM1343 640V704H1345V640H1343ZM1344 703H1280V705H1344V703Z" fill="#CDD5DF" mask="url(#path-247-inside-123_546_22737)"/>
<mask id="path-249-inside-124_546_22737" fill="white">
<path d="M1344 640H1408V704H1344V640Z"/>
</mask>
<path d="M1408 704V705H1409V704H1408ZM1407 640V704H1409V640H1407ZM1408 703H1344V705H1408V703Z" fill="#CDD5DF" mask="url(#path-249-inside-124_546_22737)"/>
<mask id="path-251-inside-125_546_22737" fill="white">
<path d="M1408 640H1472V704H1408V640Z"/>
</mask>
<path d="M1472 704V705H1473V704H1472ZM1471 640V704H1473V640H1471ZM1472 703H1408V705H1472V703Z" fill="#CDD5DF" mask="url(#path-251-inside-125_546_22737)"/>
<mask id="path-253-inside-126_546_22737" fill="white">
<path d="M1472 640H1536V704H1472V640Z"/>
</mask>
<path d="M1536 704V705H1537V704H1536ZM1535 640V704H1537V640H1535ZM1536 703H1472V705H1536V703Z" fill="#CDD5DF" mask="url(#path-253-inside-126_546_22737)"/>
<mask id="path-255-inside-127_546_22737" fill="white">
<path d="M1536 640H1600V704H1536V640Z"/>
</mask>
<path d="M1600 704V705H1601V704H1600ZM1599 640V704H1601V640H1599ZM1600 703H1536V705H1600V703Z" fill="#CDD5DF" mask="url(#path-255-inside-127_546_22737)"/>
<mask id="path-257-inside-128_546_22737" fill="white">
<path d="M1600 640H1664V704H1600V640Z"/>
</mask>
<path d="M1664 704V705H1665V704H1664ZM1663 640V704H1665V640H1663ZM1664 703H1600V705H1664V703Z" fill="#CDD5DF" mask="url(#path-257-inside-128_546_22737)"/>
<mask id="path-259-inside-129_546_22737" fill="white">
<path d="M1664 640H1728V704H1664V640Z"/>
</mask>
<path d="M1728 704V705H1729V704H1728ZM1727 640V704H1729V640H1727ZM1728 703H1664V705H1728V703Z" fill="#CDD5DF" mask="url(#path-259-inside-129_546_22737)"/>
<mask id="path-261-inside-130_546_22737" fill="white">
<path d="M1728 640H1792V704H1728V640Z"/>
</mask>
<path d="M1728 640H1792V704H1728V640Z" fill="#EEF2F6"/>
<path d="M1792 704V705H1793V704H1792ZM1791 640V704H1793V640H1791ZM1792 703H1728V705H1792V703Z" fill="#CDD5DF" mask="url(#path-261-inside-130_546_22737)"/>
<mask id="path-263-inside-131_546_22737" fill="white">
<path d="M1792 640H1856V704H1792V640Z"/>
</mask>
<path d="M1856 704V705H1857V704H1856ZM1855 640V704H1857V640H1855ZM1856 703H1792V705H1856V703Z" fill="#CDD5DF" mask="url(#path-263-inside-131_546_22737)"/>
<mask id="path-265-inside-132_546_22737" fill="white">
<path d="M1856 640H1920V704H1856V640Z"/>
</mask>
<path d="M1920 704V705H1921V704H1920ZM1919 640V704H1921V640H1919ZM1920 703H1856V705H1920V703Z" fill="#CDD5DF" mask="url(#path-265-inside-132_546_22737)"/>
<mask id="path-267-inside-133_546_22737" fill="white">
<path d="M1152 704H1216V768H1152V704Z"/>
</mask>
<path d="M1216 768V769H1217V768H1216ZM1215 704V768H1217V704H1215ZM1216 767H1152V769H1216V767Z" fill="#CDD5DF" mask="url(#path-267-inside-133_546_22737)"/>
<mask id="path-269-inside-134_546_22737" fill="white">
<path d="M1216 704H1280V768H1216V704Z"/>
</mask>
<path d="M1280 768V769H1281V768H1280ZM1279 704V768H1281V704H1279ZM1280 767H1216V769H1280V767Z" fill="#CDD5DF" mask="url(#path-269-inside-134_546_22737)"/>
<mask id="path-271-inside-135_546_22737" fill="white">
<path d="M1280 704H1344V768H1280V704Z"/>
</mask>
<path d="M1344 768V769H1345V768H1344ZM1343 704V768H1345V704H1343ZM1344 767H1280V769H1344V767Z" fill="#CDD5DF" mask="url(#path-271-inside-135_546_22737)"/>
<mask id="path-273-inside-136_546_22737" fill="white">
<path d="M1344 704H1408V768H1344V704Z"/>
</mask>
<path d="M1344 704H1408V768H1344V704Z" fill="#EEF2F6"/>
<path d="M1408 768V769H1409V768H1408ZM1407 704V768H1409V704H1407ZM1408 767H1344V769H1408V767Z" fill="#CDD5DF" mask="url(#path-273-inside-136_546_22737)"/>
<mask id="path-275-inside-137_546_22737" fill="white">
<path d="M1408 704H1472V768H1408V704Z"/>
</mask>
<path d="M1472 768V769H1473V768H1472ZM1471 704V768H1473V704H1471ZM1472 767H1408V769H1472V767Z" fill="#CDD5DF" mask="url(#path-275-inside-137_546_22737)"/>
<mask id="path-277-inside-138_546_22737" fill="white">
<path d="M1472 704H1536V768H1472V704Z"/>
</mask>
<path d="M1536 768V769H1537V768H1536ZM1535 704V768H1537V704H1535ZM1536 767H1472V769H1536V767Z" fill="#CDD5DF" mask="url(#path-277-inside-138_546_22737)"/>
<mask id="path-279-inside-139_546_22737" fill="white">
<path d="M1536 704H1600V768H1536V704Z"/>
</mask>
<path d="M1600 768V769H1601V768H1600ZM1599 704V768H1601V704H1599ZM1600 767H1536V769H1600V767Z" fill="#CDD5DF" mask="url(#path-279-inside-139_546_22737)"/>
<mask id="path-281-inside-140_546_22737" fill="white">
<path d="M1600 704H1664V768H1600V704Z"/>
</mask>
<path d="M1664 768V769H1665V768H1664ZM1663 704V768H1665V704H1663ZM1664 767H1600V769H1664V767Z" fill="#CDD5DF" mask="url(#path-281-inside-140_546_22737)"/>
<mask id="path-283-inside-141_546_22737" fill="white">
<path d="M1664 704H1728V768H1664V704Z"/>
</mask>
<path d="M1728 768V769H1729V768H1728ZM1727 704V768H1729V704H1727ZM1728 767H1664V769H1728V767Z" fill="#CDD5DF" mask="url(#path-283-inside-141_546_22737)"/>
<mask id="path-285-inside-142_546_22737" fill="white">
<path d="M1728 704H1792V768H1728V704Z"/>
</mask>
<path d="M1792 768V769H1793V768H1792ZM1791 704V768H1793V704H1791ZM1792 767H1728V769H1792V767Z" fill="#CDD5DF" mask="url(#path-285-inside-142_546_22737)"/>
<mask id="path-287-inside-143_546_22737" fill="white">
<path d="M1792 704H1856V768H1792V704Z"/>
</mask>
<path d="M1856 768V769H1857V768H1856ZM1855 704V768H1857V704H1855ZM1856 767H1792V769H1856V767Z" fill="#CDD5DF" mask="url(#path-287-inside-143_546_22737)"/>
<mask id="path-289-inside-144_546_22737" fill="white">
<path d="M1856 704H1920V768H1856V704Z"/>
</mask>
<path d="M1920 768V769H1921V768H1920ZM1919 704V768H1921V704H1919ZM1920 767H1856V769H1920V767Z" fill="#CDD5DF" mask="url(#path-289-inside-144_546_22737)"/>
<mask id="path-291-inside-145_546_22737" fill="white">
<path d="M1152 768H1216V832H1152V768Z"/>
</mask>
<path d="M1216 832V833H1217V832H1216ZM1215 768V832H1217V768H1215ZM1216 831H1152V833H1216V831Z" fill="#CDD5DF" mask="url(#path-291-inside-145_546_22737)"/>
<mask id="path-293-inside-146_546_22737" fill="white">
<path d="M1216 768H1280V832H1216V768Z"/>
</mask>
<path d="M1216 768H1280V832H1216V768Z" fill="#EEF2F6"/>
<path d="M1280 832V833H1281V832H1280ZM1279 768V832H1281V768H1279ZM1280 831H1216V833H1280V831Z" fill="#CDD5DF" mask="url(#path-293-inside-146_546_22737)"/>
<mask id="path-295-inside-147_546_22737" fill="white">
<path d="M1280 768H1344V832H1280V768Z"/>
</mask>
<path d="M1344 832V833H1345V832H1344ZM1343 768V832H1345V768H1343ZM1344 831H1280V833H1344V831Z" fill="#CDD5DF" mask="url(#path-295-inside-147_546_22737)"/>
<mask id="path-297-inside-148_546_22737" fill="white">
<path d="M1344 768H1408V832H1344V768Z"/>
</mask>
<path d="M1408 832V833H1409V832H1408ZM1407 768V832H1409V768H1407ZM1408 831H1344V833H1408V831Z" fill="#CDD5DF" mask="url(#path-297-inside-148_546_22737)"/>
<mask id="path-299-inside-149_546_22737" fill="white">
<path d="M1408 768H1472V832H1408V768Z"/>
</mask>
<path d="M1472 832V833H1473V832H1472ZM1471 768V832H1473V768H1471ZM1472 831H1408V833H1472V831Z" fill="#CDD5DF" mask="url(#path-299-inside-149_546_22737)"/>
<mask id="path-301-inside-150_546_22737" fill="white">
<path d="M1472 768H1536V832H1472V768Z"/>
</mask>
<path d="M1536 832V833H1537V832H1536ZM1535 768V832H1537V768H1535ZM1536 831H1472V833H1536V831Z" fill="#CDD5DF" mask="url(#path-301-inside-150_546_22737)"/>
<mask id="path-303-inside-151_546_22737" fill="white">
<path d="M1536 768H1600V832H1536V768Z"/>
</mask>
<path d="M1600 832V833H1601V832H1600ZM1599 768V832H1601V768H1599ZM1600 831H1536V833H1600V831Z" fill="#CDD5DF" mask="url(#path-303-inside-151_546_22737)"/>
<mask id="path-305-inside-152_546_22737" fill="white">
<path d="M1600 768H1664V832H1600V768Z"/>
</mask>
<path d="M1664 832V833H1665V832H1664ZM1663 768V832H1665V768H1663ZM1664 831H1600V833H1664V831Z" fill="#CDD5DF" mask="url(#path-305-inside-152_546_22737)"/>
<mask id="path-307-inside-153_546_22737" fill="white">
<path d="M1664 768H1728V832H1664V768Z"/>
</mask>
<path d="M1728 832V833H1729V832H1728ZM1727 768V832H1729V768H1727ZM1728 831H1664V833H1728V831Z" fill="#CDD5DF" mask="url(#path-307-inside-153_546_22737)"/>
<mask id="path-309-inside-154_546_22737" fill="white">
<path d="M1728 768H1792V832H1728V768Z"/>
</mask>
<path d="M1728 768H1792V832H1728V768Z" fill="#EEF2F6"/>
<path d="M1792 832V833H1793V832H1792ZM1791 768V832H1793V768H1791ZM1792 831H1728V833H1792V831Z" fill="#CDD5DF" mask="url(#path-309-inside-154_546_22737)"/>
<mask id="path-311-inside-155_546_22737" fill="white">
<path d="M1792 768H1856V832H1792V768Z"/>
</mask>
<path d="M1856 832V833H1857V832H1856ZM1855 768V832H1857V768H1855ZM1856 831H1792V833H1856V831Z" fill="#CDD5DF" mask="url(#path-311-inside-155_546_22737)"/>
<mask id="path-313-inside-156_546_22737" fill="white">
<path d="M1856 768H1920V832H1856V768Z"/>
</mask>
<path d="M1920 832V833H1921V832H1920ZM1919 768V832H1921V768H1919ZM1920 831H1856V833H1920V831Z" fill="#CDD5DF" mask="url(#path-313-inside-156_546_22737)"/>
<mask id="path-315-inside-157_546_22737" fill="white">
<path d="M1152 832H1216V896H1152V832Z"/>
</mask>
<path d="M1216 896V897H1217V896H1216ZM1215 832V896H1217V832H1215ZM1216 895H1152V897H1216V895Z" fill="#CDD5DF" mask="url(#path-315-inside-157_546_22737)"/>
<mask id="path-317-inside-158_546_22737" fill="white">
<path d="M1216 832H1280V896H1216V832Z"/>
</mask>
<path d="M1280 896V897H1281V896H1280ZM1279 832V896H1281V832H1279ZM1280 895H1216V897H1280V895Z" fill="#CDD5DF" mask="url(#path-317-inside-158_546_22737)"/>
<mask id="path-319-inside-159_546_22737" fill="white">
<path d="M1280 832H1344V896H1280V832Z"/>
</mask>
<path d="M1344 896V897H1345V896H1344ZM1343 832V896H1345V832H1343ZM1344 895H1280V897H1344V895Z" fill="#CDD5DF" mask="url(#path-319-inside-159_546_22737)"/>
<mask id="path-321-inside-160_546_22737" fill="white">
<path d="M1344 832H1408V896H1344V832Z"/>
</mask>
<path d="M1408 896V897H1409V896H1408ZM1407 832V896H1409V832H1407ZM1408 895H1344V897H1408V895Z" fill="#CDD5DF" mask="url(#path-321-inside-160_546_22737)"/>
<mask id="path-323-inside-161_546_22737" fill="white">
<path d="M1408 832H1472V896H1408V832Z"/>
</mask>
<path d="M1472 896V897H1473V896H1472ZM1471 832V896H1473V832H1471ZM1472 895H1408V897H1472V895Z" fill="#CDD5DF" mask="url(#path-323-inside-161_546_22737)"/>
<mask id="path-325-inside-162_546_22737" fill="white">
<path d="M1472 832H1536V896H1472V832Z"/>
</mask>
<path d="M1536 896V897H1537V896H1536ZM1535 832V896H1537V832H1535ZM1536 895H1472V897H1536V895Z" fill="#CDD5DF" mask="url(#path-325-inside-162_546_22737)"/>
<mask id="path-327-inside-163_546_22737" fill="white">
<path d="M1536 832H1600V896H1536V832Z"/>
</mask>
<path d="M1536 832H1600V896H1536V832Z" fill="#EEF2F6"/>
<path d="M1600 896V897H1601V896H1600ZM1599 832V896H1601V832H1599ZM1600 895H1536V897H1600V895Z" fill="#CDD5DF" mask="url(#path-327-inside-163_546_22737)"/>
<mask id="path-329-inside-164_546_22737" fill="white">
<path d="M1600 832H1664V896H1600V832Z"/>
</mask>
<path d="M1664 896V897H1665V896H1664ZM1663 832V896H1665V832H1663ZM1664 895H1600V897H1664V895Z" fill="#CDD5DF" mask="url(#path-329-inside-164_546_22737)"/>
<mask id="path-331-inside-165_546_22737" fill="white">
<path d="M1664 832H1728V896H1664V832Z"/>
</mask>
<path d="M1728 896V897H1729V896H1728ZM1727 832V896H1729V832H1727ZM1728 895H1664V897H1728V895Z" fill="#CDD5DF" mask="url(#path-331-inside-165_546_22737)"/>
<mask id="path-333-inside-166_546_22737" fill="white">
<path d="M1728 832H1792V896H1728V832Z"/>
</mask>
<path d="M1792 896V897H1793V896H1792ZM1791 832V896H1793V832H1791ZM1792 895H1728V897H1792V895Z" fill="#CDD5DF" mask="url(#path-333-inside-166_546_22737)"/>
<mask id="path-335-inside-167_546_22737" fill="white">
<path d="M1792 832H1856V896H1792V832Z"/>
</mask>
<path d="M1856 896V897H1857V896H1856ZM1855 832V896H1857V832H1855ZM1856 895H1792V897H1856V895Z" fill="#CDD5DF" mask="url(#path-335-inside-167_546_22737)"/>
<mask id="path-337-inside-168_546_22737" fill="white">
<path d="M1856 832H1920V896H1856V832Z"/>
</mask>
<path d="M1920 896V897H1921V896H1920ZM1919 832V896H1921V832H1919ZM1920 895H1856V897H1920V895Z" fill="#CDD5DF" mask="url(#path-337-inside-168_546_22737)"/>
<mask id="path-339-inside-169_546_22737" fill="white">
<path d="M1152 896H1216V960H1152V896Z"/>
</mask>
<path d="M1216 960V961H1217V960H1216ZM1215 896V960H1217V896H1215ZM1216 959H1152V961H1216V959Z" fill="#CDD5DF" mask="url(#path-339-inside-169_546_22737)"/>
<mask id="path-341-inside-170_546_22737" fill="white">
<path d="M1216 896H1280V960H1216V896Z"/>
</mask>
<path d="M1280 960V961H1281V960H1280ZM1279 896V960H1281V896H1279ZM1280 959H1216V961H1280V959Z" fill="#CDD5DF" mask="url(#path-341-inside-170_546_22737)"/>
<mask id="path-343-inside-171_546_22737" fill="white">
<path d="M1280 896H1344V960H1280V896Z"/>
</mask>
<path d="M1344 960V961H1345V960H1344ZM1343 896V960H1345V896H1343ZM1344 959H1280V961H1344V959Z" fill="#CDD5DF" mask="url(#path-343-inside-171_546_22737)"/>
<mask id="path-345-inside-172_546_22737" fill="white">
<path d="M1344 896H1408V960H1344V896Z"/>
</mask>
<path d="M1344 896H1408V960H1344V896Z" fill="#EEF2F6"/>
<path d="M1408 960V961H1409V960H1408ZM1407 896V960H1409V896H1407ZM1408 959H1344V961H1408V959Z" fill="#CDD5DF" mask="url(#path-345-inside-172_546_22737)"/>
<mask id="path-347-inside-173_546_22737" fill="white">
<path d="M1408 896H1472V960H1408V896Z"/>
</mask>
<path d="M1472 960V961H1473V960H1472ZM1471 896V960H1473V896H1471ZM1472 959H1408V961H1472V959Z" fill="#CDD5DF" mask="url(#path-347-inside-173_546_22737)"/>
<mask id="path-349-inside-174_546_22737" fill="white">
<path d="M1472 896H1536V960H1472V896Z"/>
</mask>
<path d="M1536 960V961H1537V960H1536ZM1535 896V960H1537V896H1535ZM1536 959H1472V961H1536V959Z" fill="#CDD5DF" mask="url(#path-349-inside-174_546_22737)"/>
<mask id="path-351-inside-175_546_22737" fill="white">
<path d="M1536 896H1600V960H1536V896Z"/>
</mask>
<path d="M1600 960V961H1601V960H1600ZM1599 896V960H1601V896H1599ZM1600 959H1536V961H1600V959Z" fill="#CDD5DF" mask="url(#path-351-inside-175_546_22737)"/>
<mask id="path-353-inside-176_546_22737" fill="white">
<path d="M1600 896H1664V960H1600V896Z"/>
</mask>
<path d="M1664 960V961H1665V960H1664ZM1663 896V960H1665V896H1663ZM1664 959H1600V961H1664V959Z" fill="#CDD5DF" mask="url(#path-353-inside-176_546_22737)"/>
<mask id="path-355-inside-177_546_22737" fill="white">
<path d="M1664 896H1728V960H1664V896Z"/>
</mask>
<path d="M1728 960V961H1729V960H1728ZM1727 896V960H1729V896H1727ZM1728 959H1664V961H1728V959Z" fill="#CDD5DF" mask="url(#path-355-inside-177_546_22737)"/>
<mask id="path-357-inside-178_546_22737" fill="white">
<path d="M1728 896H1792V960H1728V896Z"/>
</mask>
<path d="M1792 960V961H1793V960H1792ZM1791 896V960H1793V896H1791ZM1792 959H1728V961H1792V959Z" fill="#CDD5DF" mask="url(#path-357-inside-178_546_22737)"/>
<mask id="path-359-inside-179_546_22737" fill="white">
<path d="M1792 896H1856V960H1792V896Z"/>
</mask>
<path d="M1856 960V961H1857V960H1856ZM1855 896V960H1857V896H1855ZM1856 959H1792V961H1856V959Z" fill="#CDD5DF" mask="url(#path-359-inside-179_546_22737)"/>
<mask id="path-361-inside-180_546_22737" fill="white">
<path d="M1856 896H1920V960H1856V896Z"/>
</mask>
<path d="M1920 960V961H1921V960H1920ZM1919 896V960H1921V896H1919ZM1920 959H1856V961H1920V959Z" fill="#CDD5DF" mask="url(#path-361-inside-180_546_22737)"/>
</g>
<rect x="960.5" y="0.5" width="1919" height="1407" stroke="white"/>
</g>
<mask id="mask1_546_22737" style="mask-type:alpha" maskUnits="userSpaceOnUse" x="-720" y="0" width="1440" height="1440">
<rect width="1440" height="1440" transform="matrix(-1 0 0 1 720 0)" fill="url(#paint1_radial_546_22737)" fill-opacity="0.1"/>
</mask>
<g mask="url(#mask1_546_22737)">
<g clip-path="url(#clip2_546_22737)">
<mask id="path-365-inside-181_546_22737" fill="white">
<path d="M768 0H704V64H768V0Z"/>
</mask>
<path d="M704 64V65H703V64H704ZM705 0V64H703V0H705ZM704 63H768V65H704V63Z" fill="#CDD5DF" mask="url(#path-365-inside-181_546_22737)"/>
<mask id="path-367-inside-182_546_22737" fill="white">
<path d="M704 0H640V64H704V0Z"/>
</mask>
<path d="M640 64V65H639V64H640ZM641 0V64H639V0H641ZM640 63H704V65H640V63Z" fill="#CDD5DF" mask="url(#path-367-inside-182_546_22737)"/>
<mask id="path-369-inside-183_546_22737" fill="white">
<path d="M640 0H576V64H640V0Z"/>
</mask>
<path d="M576 64V65H575V64H576ZM577 0V64H575V0H577ZM576 63H640V65H576V63Z" fill="#CDD5DF" mask="url(#path-369-inside-183_546_22737)"/>
<mask id="path-371-inside-184_546_22737" fill="white">
<path d="M576 0H512V64H576V0Z"/>
</mask>
<path d="M512 64V65H511V64H512ZM513 0V64H511V0H513ZM512 63H576V65H512V63Z" fill="#CDD5DF" mask="url(#path-371-inside-184_546_22737)"/>
<mask id="path-373-inside-185_546_22737" fill="white">
<path d="M512 0H448V64H512V0Z"/>
</mask>
<path d="M448 64V65H447V64H448ZM449 0V64H447V0H449ZM448 63H512V65H448V63Z" fill="#CDD5DF" mask="url(#path-373-inside-185_546_22737)"/>
<mask id="path-375-inside-186_546_22737" fill="white">
<path d="M448 0H384V64H448V0Z"/>
</mask>
<path d="M384 64V65H383V64H384ZM385 0V64H383V0H385ZM384 63H448V65H384V63Z" fill="#CDD5DF" mask="url(#path-375-inside-186_546_22737)"/>
<mask id="path-377-inside-187_546_22737" fill="white">
<path d="M384 0H320V64H384V0Z"/>
</mask>
<path d="M320 64V65H319V64H320ZM321 0V64H319V0H321ZM320 63H384V65H320V63Z" fill="#CDD5DF" mask="url(#path-377-inside-187_546_22737)"/>
<mask id="path-379-inside-188_546_22737" fill="white">
<path d="M320 0H256V64H320V0Z"/>
</mask>
<path d="M256 64V65H255V64H256ZM257 0V64H255V0H257ZM256 63H320V65H256V63Z" fill="#CDD5DF" mask="url(#path-379-inside-188_546_22737)"/>
<mask id="path-381-inside-189_546_22737" fill="white">
<path d="M256 0H192V64H256V0Z"/>
</mask>
<path d="M192 64V65H191V64H192ZM193 0V64H191V0H193ZM192 63H256V65H192V63Z" fill="#CDD5DF" mask="url(#path-381-inside-189_546_22737)"/>
<mask id="path-383-inside-190_546_22737" fill="white">
<path d="M192 0H128V64H192V0Z"/>
</mask>
<path d="M128 64V65H127V64H128ZM129 0V64H127V0H129ZM128 63H192V65H128V63Z" fill="#CDD5DF" mask="url(#path-383-inside-190_546_22737)"/>
<mask id="path-385-inside-191_546_22737" fill="white">
<path d="M128 0H64V64H128V0Z"/>
</mask>
<path d="M64 64V65H63V64H64ZM65 0V64H63V0H65ZM64 63H128V65H64V63Z" fill="#CDD5DF" mask="url(#path-385-inside-191_546_22737)"/>
<mask id="path-387-inside-192_546_22737" fill="white">
<path d="M64 0H0V64H64V0Z"/>
</mask>
<path d="M0 64V65H-1V64H0ZM1 0V64H-1V0H1ZM0 63H64V65H0V63Z" fill="#CDD5DF" mask="url(#path-387-inside-192_546_22737)"/>
<mask id="path-389-inside-193_546_22737" fill="white">
<path d="M768 64H704V128H768V64Z"/>
</mask>
<path d="M704 128V129H703V128H704ZM705 64V128H703V64H705ZM704 127H768V129H704V127Z" fill="#CDD5DF" mask="url(#path-389-inside-193_546_22737)"/>
<mask id="path-391-inside-194_546_22737" fill="white">
<path d="M704 64H640V128H704V64Z"/>
</mask>
<path d="M640 128V129H639V128H640ZM641 64V128H639V64H641ZM640 127H704V129H640V127Z" fill="#CDD5DF" mask="url(#path-391-inside-194_546_22737)"/>
<mask id="path-393-inside-195_546_22737" fill="white">
<path d="M640 64H576V128H640V64Z"/>
</mask>
<path d="M640 64H576V128H640V64Z" fill="#EEF2F6"/>
<path d="M576 128V129H575V128H576ZM577 64V128H575V64H577ZM576 127H640V129H576V127Z" fill="#CDD5DF" mask="url(#path-393-inside-195_546_22737)"/>
<mask id="path-395-inside-196_546_22737" fill="white">
<path d="M576 64H512V128H576V64Z"/>
</mask>
<path d="M512 128V129H511V128H512ZM513 64V128H511V64H513ZM512 127H576V129H512V127Z" fill="#CDD5DF" mask="url(#path-395-inside-196_546_22737)"/>
<mask id="path-397-inside-197_546_22737" fill="white">
<path d="M512 64H448V128H512V64Z"/>
</mask>
<path d="M448 128V129H447V128H448ZM449 64V128H447V64H449ZM448 127H512V129H448V127Z" fill="#CDD5DF" mask="url(#path-397-inside-197_546_22737)"/>
<mask id="path-399-inside-198_546_22737" fill="white">
<path d="M448 64H384V128H448V64Z"/>
</mask>
<path d="M384 128V129H383V128H384ZM385 64V128H383V64H385ZM384 127H448V129H384V127Z" fill="#CDD5DF" mask="url(#path-399-inside-198_546_22737)"/>
<mask id="path-401-inside-199_546_22737" fill="white">
<path d="M384 64H320V128H384V64Z"/>
</mask>
<path d="M384 64H320V128H384V64Z" fill="#EEF2F6"/>
<path d="M320 128V129H319V128H320ZM321 64V128H319V64H321ZM320 127H384V129H320V127Z" fill="#CDD5DF" mask="url(#path-401-inside-199_546_22737)"/>
<mask id="path-403-inside-200_546_22737" fill="white">
<path d="M320 64H256V128H320V64Z"/>
</mask>
<path d="M256 128V129H255V128H256ZM257 64V128H255V64H257ZM256 127H320V129H256V127Z" fill="#CDD5DF" mask="url(#path-403-inside-200_546_22737)"/>
<mask id="path-405-inside-201_546_22737" fill="white">
<path d="M256 64H192V128H256V64Z"/>
</mask>
<path d="M192 128V129H191V128H192ZM193 64V128H191V64H193ZM192 127H256V129H192V127Z" fill="#CDD5DF" mask="url(#path-405-inside-201_546_22737)"/>
<mask id="path-407-inside-202_546_22737" fill="white">
<path d="M192 64H128V128H192V64Z"/>
</mask>
<path d="M128 128V129H127V128H128ZM129 64V128H127V64H129ZM128 127H192V129H128V127Z" fill="#CDD5DF" mask="url(#path-407-inside-202_546_22737)"/>
<mask id="path-409-inside-203_546_22737" fill="white">
<path d="M128 64H64V128H128V64Z"/>
</mask>
<path d="M64 128V129H63V128H64ZM65 64V128H63V64H65ZM64 127H128V129H64V127Z" fill="#CDD5DF" mask="url(#path-409-inside-203_546_22737)"/>
<mask id="path-411-inside-204_546_22737" fill="white">
<path d="M64 64H0V128H64V64Z"/>
</mask>
<path d="M0 128V129H-1V128H0ZM1 64V128H-1V64H1ZM0 127H64V129H0V127Z" fill="#CDD5DF" mask="url(#path-411-inside-204_546_22737)"/>
<mask id="path-413-inside-205_546_22737" fill="white">
<path d="M768 128H704V192H768V128Z"/>
</mask>
<path d="M704 192V193H703V192H704ZM705 128V192H703V128H705ZM704 191H768V193H704V191Z" fill="#CDD5DF" mask="url(#path-413-inside-205_546_22737)"/>
<mask id="path-415-inside-206_546_22737" fill="white">
<path d="M704 128H640V192H704V128Z"/>
</mask>
<path d="M640 192V193H639V192H640ZM641 128V192H639V128H641ZM640 191H704V193H640V191Z" fill="#CDD5DF" mask="url(#path-415-inside-206_546_22737)"/>
<mask id="path-417-inside-207_546_22737" fill="white">
<path d="M640 128H576V192H640V128Z"/>
</mask>
<path d="M576 192V193H575V192H576ZM577 128V192H575V128H577ZM576 191H640V193H576V191Z" fill="#CDD5DF" mask="url(#path-417-inside-207_546_22737)"/>
<mask id="path-419-inside-208_546_22737" fill="white">
<path d="M576 128H512V192H576V128Z"/>
</mask>
<path d="M512 192V193H511V192H512ZM513 128V192H511V128H513ZM512 191H576V193H512V191Z" fill="#CDD5DF" mask="url(#path-419-inside-208_546_22737)"/>
<mask id="path-421-inside-209_546_22737" fill="white">
<path d="M512 128H448V192H512V128Z"/>
</mask>
<path d="M448 192V193H447V192H448ZM449 128V192H447V128H449ZM448 191H512V193H448V191Z" fill="#CDD5DF" mask="url(#path-421-inside-209_546_22737)"/>
<mask id="path-423-inside-210_546_22737" fill="white">
<path d="M448 128H384V192H448V128Z"/>
</mask>
<path d="M384 192V193H383V192H384ZM385 128V192H383V128H385ZM384 191H448V193H384V191Z" fill="#CDD5DF" mask="url(#path-423-inside-210_546_22737)"/>
<mask id="path-425-inside-211_546_22737" fill="white">
<path d="M384 128H320V192H384V128Z"/>
</mask>
<path d="M320 192V193H319V192H320ZM321 128V192H319V128H321ZM320 191H384V193H320V191Z" fill="#CDD5DF" mask="url(#path-425-inside-211_546_22737)"/>
<mask id="path-427-inside-212_546_22737" fill="white">
<path d="M320 128H256V192H320V128Z"/>
</mask>
<path d="M256 192V193H255V192H256ZM257 128V192H255V128H257ZM256 191H320V193H256V191Z" fill="#CDD5DF" mask="url(#path-427-inside-212_546_22737)"/>
<mask id="path-429-inside-213_546_22737" fill="white">
<path d="M256 128H192V192H256V128Z"/>
</mask>
<path d="M256 128H192V192H256V128Z" fill="#EEF2F6"/>
<path d="M192 192V193H191V192H192ZM193 128V192H191V128H193ZM192 191H256V193H192V191Z" fill="#CDD5DF" mask="url(#path-429-inside-213_546_22737)"/>
<mask id="path-431-inside-214_546_22737" fill="white">
<path d="M192 128H128V192H192V128Z"/>
</mask>
<path d="M128 192V193H127V192H128ZM129 128V192H127V128H129ZM128 191H192V193H128V191Z" fill="#CDD5DF" mask="url(#path-431-inside-214_546_22737)"/>
<mask id="path-433-inside-215_546_22737" fill="white">
<path d="M128 128H64V192H128V128Z"/>
</mask>
<path d="M64 192V193H63V192H64ZM65 128V192H63V128H65ZM64 191H128V193H64V191Z" fill="#CDD5DF" mask="url(#path-433-inside-215_546_22737)"/>
<mask id="path-435-inside-216_546_22737" fill="white">
<path d="M64 128H0V192H64V128Z"/>
</mask>
<path d="M0 192V193H-1V192H0ZM1 128V192H-1V128H1ZM0 191H64V193H0V191Z" fill="#CDD5DF" mask="url(#path-435-inside-216_546_22737)"/>
<mask id="path-437-inside-217_546_22737" fill="white">
<path d="M768 192H704V256H768V192Z"/>
</mask>
<path d="M768 192H704V256H768V192Z" fill="#EEF2F6"/>
<path d="M704 256V257H703V256H704ZM705 192V256H703V192H705ZM704 255H768V257H704V255Z" fill="#CDD5DF" mask="url(#path-437-inside-217_546_22737)"/>
<mask id="path-439-inside-218_546_22737" fill="white">
<path d="M704 192H640V256H704V192Z"/>
</mask>
<path d="M640 256V257H639V256H640ZM641 192V256H639V192H641ZM640 255H704V257H640V255Z" fill="#CDD5DF" mask="url(#path-439-inside-218_546_22737)"/>
<mask id="path-441-inside-219_546_22737" fill="white">
<path d="M640 192H576V256H640V192Z"/>
</mask>
<path d="M576 256V257H575V256H576ZM577 192V256H575V192H577ZM576 255H640V257H576V255Z" fill="#CDD5DF" mask="url(#path-441-inside-219_546_22737)"/>
<mask id="path-443-inside-220_546_22737" fill="white">
<path d="M576 192H512V256H576V192Z"/>
</mask>
<path d="M576 192H512V256H576V192Z" fill="#EEF2F6"/>
<path d="M512 256V257H511V256H512ZM513 192V256H511V192H513ZM512 255H576V257H512V255Z" fill="#CDD5DF" mask="url(#path-443-inside-220_546_22737)"/>
<mask id="path-445-inside-221_546_22737" fill="white">
<path d="M512 192H448V256H512V192Z"/>
</mask>
<path d="M448 256V257H447V256H448ZM449 192V256H447V192H449ZM448 255H512V257H448V255Z" fill="#CDD5DF" mask="url(#path-445-inside-221_546_22737)"/>
<mask id="path-447-inside-222_546_22737" fill="white">
<path d="M448 192H384V256H448V192Z"/>
</mask>
<path d="M384 256V257H383V256H384ZM385 192V256H383V192H385ZM384 255H448V257H384V255Z" fill="#CDD5DF" mask="url(#path-447-inside-222_546_22737)"/>
<mask id="path-449-inside-223_546_22737" fill="white">
<path d="M384 192H320V256H384V192Z"/>
</mask>
<path d="M320 256V257H319V256H320ZM321 192V256H319V192H321ZM320 255H384V257H320V255Z" fill="#CDD5DF" mask="url(#path-449-inside-223_546_22737)"/>
<mask id="path-451-inside-224_546_22737" fill="white">
<path d="M320 192H256V256H320V192Z"/>
</mask>
<path d="M256 256V257H255V256H256ZM257 192V256H255V192H257ZM256 255H320V257H256V255Z" fill="#CDD5DF" mask="url(#path-451-inside-224_546_22737)"/>
<mask id="path-453-inside-225_546_22737" fill="white">
<path d="M256 192H192V256H256V192Z"/>
</mask>
<path d="M192 256V257H191V256H192ZM193 192V256H191V192H193ZM192 255H256V257H192V255Z" fill="#CDD5DF" mask="url(#path-453-inside-225_546_22737)"/>
<mask id="path-455-inside-226_546_22737" fill="white">
<path d="M192 192H128V256H192V192Z"/>
</mask>
<path d="M128 256V257H127V256H128ZM129 192V256H127V192H129ZM128 255H192V257H128V255Z" fill="#CDD5DF" mask="url(#path-455-inside-226_546_22737)"/>
<mask id="path-457-inside-227_546_22737" fill="white">
<path d="M128 192H64V256H128V192Z"/>
</mask>
<path d="M64 256V257H63V256H64ZM65 192V256H63V192H65ZM64 255H128V257H64V255Z" fill="#CDD5DF" mask="url(#path-457-inside-227_546_22737)"/>
<mask id="path-459-inside-228_546_22737" fill="white">
<path d="M64 192H0V256H64V192Z"/>
</mask>
<path d="M0 256V257H-1V256H0ZM1 192V256H-1V192H1ZM0 255H64V257H0V255Z" fill="#CDD5DF" mask="url(#path-459-inside-228_546_22737)"/>
<mask id="path-461-inside-229_546_22737" fill="white">
<path d="M768 256H704V320H768V256Z"/>
</mask>
<path d="M704 320V321H703V320H704ZM705 256V320H703V256H705ZM704 319H768V321H704V319Z" fill="#CDD5DF" mask="url(#path-461-inside-229_546_22737)"/>
<mask id="path-463-inside-230_546_22737" fill="white">
<path d="M704 256H640V320H704V256Z"/>
</mask>
<path d="M640 320V321H639V320H640ZM641 256V320H639V256H641ZM640 319H704V321H640V319Z" fill="#CDD5DF" mask="url(#path-463-inside-230_546_22737)"/>
<mask id="path-465-inside-231_546_22737" fill="white">
<path d="M640 256H576V320H640V256Z"/>
</mask>
<path d="M576 320V321H575V320H576ZM577 256V320H575V256H577ZM576 319H640V321H576V319Z" fill="#CDD5DF" mask="url(#path-465-inside-231_546_22737)"/>
<mask id="path-467-inside-232_546_22737" fill="white">
<path d="M576 256H512V320H576V256Z"/>
</mask>
<path d="M512 320V321H511V320H512ZM513 256V320H511V256H513ZM512 319H576V321H512V319Z" fill="#CDD5DF" mask="url(#path-467-inside-232_546_22737)"/>
<mask id="path-469-inside-233_546_22737" fill="white">
<path d="M512 256H448V320H512V256Z"/>
</mask>
<path d="M448 320V321H447V320H448ZM449 256V320H447V256H449ZM448 319H512V321H448V319Z" fill="#CDD5DF" mask="url(#path-469-inside-233_546_22737)"/>
<mask id="path-471-inside-234_546_22737" fill="white">
<path d="M448 256H384V320H448V256Z"/>
</mask>
<path d="M448 256H384V320H448V256Z" fill="#EEF2F6"/>
<path d="M384 320V321H383V320H384ZM385 256V320H383V256H385ZM384 319H448V321H384V319Z" fill="#CDD5DF" mask="url(#path-471-inside-234_546_22737)"/>
<mask id="path-473-inside-235_546_22737" fill="white">
<path d="M384 256H320V320H384V256Z"/>
</mask>
<path d="M320 320V321H319V320H320ZM321 256V320H319V256H321ZM320 319H384V321H320V319Z" fill="#CDD5DF" mask="url(#path-473-inside-235_546_22737)"/>
<mask id="path-475-inside-236_546_22737" fill="white">
<path d="M320 256H256V320H320V256Z"/>
</mask>
<path d="M256 320V321H255V320H256ZM257 256V320H255V256H257ZM256 319H320V321H256V319Z" fill="#CDD5DF" mask="url(#path-475-inside-236_546_22737)"/>
<mask id="path-477-inside-237_546_22737" fill="white">
<path d="M256 256H192V320H256V256Z"/>
</mask>
<path d="M192 320V321H191V320H192ZM193 256V320H191V256H193ZM192 319H256V321H192V319Z" fill="#CDD5DF" mask="url(#path-477-inside-237_546_22737)"/>
<mask id="path-479-inside-238_546_22737" fill="white">
<path d="M192 256H128V320H192V256Z"/>
</mask>
<path d="M128 320V321H127V320H128ZM129 256V320H127V256H129ZM128 319H192V321H128V319Z" fill="#CDD5DF" mask="url(#path-479-inside-238_546_22737)"/>
<mask id="path-481-inside-239_546_22737" fill="white">
<path d="M128 256H64V320H128V256Z"/>
</mask>
<path d="M128 256H64V320H128V256Z" fill="#EEF2F6"/>
<path d="M64 320V321H63V320H64ZM65 256V320H63V256H65ZM64 319H128V321H64V319Z" fill="#CDD5DF" mask="url(#path-481-inside-239_546_22737)"/>
<mask id="path-483-inside-240_546_22737" fill="white">
<path d="M64 256H0V320H64V256Z"/>
</mask>
<path d="M0 320V321H-1V320H0ZM1 256V320H-1V256H1ZM0 319H64V321H0V319Z" fill="#CDD5DF" mask="url(#path-483-inside-240_546_22737)"/>
<mask id="path-485-inside-241_546_22737" fill="white">
<path d="M768 320H704V384H768V320Z"/>
</mask>
<path d="M704 384V385H703V384H704ZM705 320V384H703V320H705ZM704 383H768V385H704V383Z" fill="#CDD5DF" mask="url(#path-485-inside-241_546_22737)"/>
<mask id="path-487-inside-242_546_22737" fill="white">
<path d="M704 320H640V384H704V320Z"/>
</mask>
<path d="M640 384V385H639V384H640ZM641 320V384H639V320H641ZM640 383H704V385H640V383Z" fill="#CDD5DF" mask="url(#path-487-inside-242_546_22737)"/>
<mask id="path-489-inside-243_546_22737" fill="white">
<path d="M640 320H576V384H640V320Z"/>
</mask>
<path d="M576 384V385H575V384H576ZM577 320V384H575V320H577ZM576 383H640V385H576V383Z" fill="#CDD5DF" mask="url(#path-489-inside-243_546_22737)"/>
<mask id="path-491-inside-244_546_22737" fill="white">
<path d="M576 320H512V384H576V320Z"/>
</mask>
<path d="M512 384V385H511V384H512ZM513 320V384H511V320H513ZM512 383H576V385H512V383Z" fill="#CDD5DF" mask="url(#path-491-inside-244_546_22737)"/>
<mask id="path-493-inside-245_546_22737" fill="white">
<path d="M512 320H448V384H512V320Z"/>
</mask>
<path d="M448 384V385H447V384H448ZM449 320V384H447V320H449ZM448 383H512V385H448V383Z" fill="#CDD5DF" mask="url(#path-493-inside-245_546_22737)"/>
<mask id="path-495-inside-246_546_22737" fill="white">
<path d="M448 320H384V384H448V320Z"/>
</mask>
<path d="M384 384V385H383V384H384ZM385 320V384H383V320H385ZM384 383H448V385H384V383Z" fill="#CDD5DF" mask="url(#path-495-inside-246_546_22737)"/>
<mask id="path-497-inside-247_546_22737" fill="white">
<path d="M384 320H320V384H384V320Z"/>
</mask>
<path d="M320 384V385H319V384H320ZM321 320V384H319V320H321ZM320 383H384V385H320V383Z" fill="#CDD5DF" mask="url(#path-497-inside-247_546_22737)"/>
<mask id="path-499-inside-248_546_22737" fill="white">
<path d="M320 320H256V384H320V320Z"/>
</mask>
<path d="M256 384V385H255V384H256ZM257 320V384H255V320H257ZM256 383H320V385H256V383Z" fill="#CDD5DF" mask="url(#path-499-inside-248_546_22737)"/>
<mask id="path-501-inside-249_546_22737" fill="white">
<path d="M256 320H192V384H256V320Z"/>
</mask>
<path d="M256 320H192V384H256V320Z" fill="#EEF2F6"/>
<path d="M192 384V385H191V384H192ZM193 320V384H191V320H193ZM192 383H256V385H192V383Z" fill="#CDD5DF" mask="url(#path-501-inside-249_546_22737)"/>
<mask id="path-503-inside-250_546_22737" fill="white">
<path d="M192 320H128V384H192V320Z"/>
</mask>
<path d="M128 384V385H127V384H128ZM129 320V384H127V320H129ZM128 383H192V385H128V383Z" fill="#CDD5DF" mask="url(#path-503-inside-250_546_22737)"/>
<mask id="path-505-inside-251_546_22737" fill="white">
<path d="M128 320H64V384H128V320Z"/>
</mask>
<path d="M64 384V385H63V384H64ZM65 320V384H63V320H65ZM64 383H128V385H64V383Z" fill="#CDD5DF" mask="url(#path-505-inside-251_546_22737)"/>
<mask id="path-507-inside-252_546_22737" fill="white">
<path d="M64 320H0V384H64V320Z"/>
</mask>
<path d="M0 384V385H-1V384H0ZM1 320V384H-1V320H1ZM0 383H64V385H0V383Z" fill="#CDD5DF" mask="url(#path-507-inside-252_546_22737)"/>
<mask id="path-509-inside-253_546_22737" fill="white">
<path d="M768 384H704V448H768V384Z"/>
</mask>
<path d="M704 448V449H703V448H704ZM705 384V448H703V384H705ZM704 447H768V449H704V447Z" fill="#CDD5DF" mask="url(#path-509-inside-253_546_22737)"/>
<mask id="path-511-inside-254_546_22737" fill="white">
<path d="M704 384H640V448H704V384Z"/>
</mask>
<path d="M640 448V449H639V448H640ZM641 384V448H639V384H641ZM640 447H704V449H640V447Z" fill="#CDD5DF" mask="url(#path-511-inside-254_546_22737)"/>
<mask id="path-513-inside-255_546_22737" fill="white">
<path d="M640 384H576V448H640V384Z"/>
</mask>
<path d="M576 448V449H575V448H576ZM577 384V448H575V384H577ZM576 447H640V449H576V447Z" fill="#CDD5DF" mask="url(#path-513-inside-255_546_22737)"/>
<mask id="path-515-inside-256_546_22737" fill="white">
<path d="M576 384H512V448H576V384Z"/>
</mask>
<path d="M512 448V449H511V448H512ZM513 384V448H511V384H513ZM512 447H576V449H512V447Z" fill="#CDD5DF" mask="url(#path-515-inside-256_546_22737)"/>
<mask id="path-517-inside-257_546_22737" fill="white">
<path d="M512 384H448V448H512V384Z"/>
</mask>
<path d="M512 384H448V448H512V384Z" fill="#EEF2F6"/>
<path d="M448 448V449H447V448H448ZM449 384V448H447V384H449ZM448 447H512V449H448V447Z" fill="#CDD5DF" mask="url(#path-517-inside-257_546_22737)"/>
<mask id="path-519-inside-258_546_22737" fill="white">
<path d="M448 384H384V448H448V384Z"/>
</mask>
<path d="M384 448V449H383V448H384ZM385 384V448H383V384H385ZM384 447H448V449H384V447Z" fill="#CDD5DF" mask="url(#path-519-inside-258_546_22737)"/>
<mask id="path-521-inside-259_546_22737" fill="white">
<path d="M384 384H320V448H384V384Z"/>
</mask>
<path d="M320 448V449H319V448H320ZM321 384V448H319V384H321ZM320 447H384V449H320V447Z" fill="#CDD5DF" mask="url(#path-521-inside-259_546_22737)"/>
<mask id="path-523-inside-260_546_22737" fill="white">
<path d="M320 384H256V448H320V384Z"/>
</mask>
<path d="M256 448V449H255V448H256ZM257 384V448H255V384H257ZM256 447H320V449H256V447Z" fill="#CDD5DF" mask="url(#path-523-inside-260_546_22737)"/>
<mask id="path-525-inside-261_546_22737" fill="white">
<path d="M256 384H192V448H256V384Z"/>
</mask>
<path d="M192 448V449H191V448H192ZM193 384V448H191V384H193ZM192 447H256V449H192V447Z" fill="#CDD5DF" mask="url(#path-525-inside-261_546_22737)"/>
<mask id="path-527-inside-262_546_22737" fill="white">
<path d="M192 384H128V448H192V384Z"/>
</mask>
<path d="M128 448V449H127V448H128ZM129 384V448H127V384H129ZM128 447H192V449H128V447Z" fill="#CDD5DF" mask="url(#path-527-inside-262_546_22737)"/>
<mask id="path-529-inside-263_546_22737" fill="white">
<path d="M128 384H64V448H128V384Z"/>
</mask>
<path d="M64 448V449H63V448H64ZM65 384V448H63V384H65ZM64 447H128V449H64V447Z" fill="#CDD5DF" mask="url(#path-529-inside-263_546_22737)"/>
<mask id="path-531-inside-264_546_22737" fill="white">
<path d="M64 384H0V448H64V384Z"/>
</mask>
<path d="M64 384H0V448H64V384Z" fill="#EEF2F6"/>
<path d="M0 448V449H-1V448H0ZM1 384V448H-1V384H1ZM0 447H64V449H0V447Z" fill="#CDD5DF" mask="url(#path-531-inside-264_546_22737)"/>
<mask id="path-533-inside-265_546_22737" fill="white">
<path d="M768 448H704V512H768V448Z"/>
</mask>
<path d="M704 512V513H703V512H704ZM705 448V512H703V448H705ZM704 511H768V513H704V511Z" fill="#CDD5DF" mask="url(#path-533-inside-265_546_22737)"/>
<mask id="path-535-inside-266_546_22737" fill="white">
<path d="M704 448H640V512H704V448Z"/>
</mask>
<path d="M640 512V513H639V512H640ZM641 448V512H639V448H641ZM640 511H704V513H640V511Z" fill="#CDD5DF" mask="url(#path-535-inside-266_546_22737)"/>
<mask id="path-537-inside-267_546_22737" fill="white">
<path d="M640 448H576V512H640V448Z"/>
</mask>
<path d="M576 512V513H575V512H576ZM577 448V512H575V448H577ZM576 511H640V513H576V511Z" fill="#CDD5DF" mask="url(#path-537-inside-267_546_22737)"/>
<mask id="path-539-inside-268_546_22737" fill="white">
<path d="M576 448H512V512H576V448Z"/>
</mask>
<path d="M512 512V513H511V512H512ZM513 448V512H511V448H513ZM512 511H576V513H512V511Z" fill="#CDD5DF" mask="url(#path-539-inside-268_546_22737)"/>
<mask id="path-541-inside-269_546_22737" fill="white">
<path d="M512 448H448V512H512V448Z"/>
</mask>
<path d="M448 512V513H447V512H448ZM449 448V512H447V448H449ZM448 511H512V513H448V511Z" fill="#CDD5DF" mask="url(#path-541-inside-269_546_22737)"/>
<mask id="path-543-inside-270_546_22737" fill="white">
<path d="M448 448H384V512H448V448Z"/>
</mask>
<path d="M384 512V513H383V512H384ZM385 448V512H383V448H385ZM384 511H448V513H384V511Z" fill="#CDD5DF" mask="url(#path-543-inside-270_546_22737)"/>
<mask id="path-545-inside-271_546_22737" fill="white">
<path d="M384 448H320V512H384V448Z"/>
</mask>
<path d="M320 512V513H319V512H320ZM321 448V512H319V448H321ZM320 511H384V513H320V511Z" fill="#CDD5DF" mask="url(#path-545-inside-271_546_22737)"/>
<mask id="path-547-inside-272_546_22737" fill="white">
<path d="M320 448H256V512H320V448Z"/>
</mask>
<path d="M256 512V513H255V512H256ZM257 448V512H255V448H257ZM256 511H320V513H256V511Z" fill="#CDD5DF" mask="url(#path-547-inside-272_546_22737)"/>
<mask id="path-549-inside-273_546_22737" fill="white">
<path d="M256 448H192V512H256V448Z"/>
</mask>
<path d="M192 512V513H191V512H192ZM193 448V512H191V448H193ZM192 511H256V513H192V511Z" fill="#CDD5DF" mask="url(#path-549-inside-273_546_22737)"/>
<mask id="path-551-inside-274_546_22737" fill="white">
<path d="M192 448H128V512H192V448Z"/>
</mask>
<path d="M192 448H128V512H192V448Z" fill="#EEF2F6"/>
<path d="M128 512V513H127V512H128ZM129 448V512H127V448H129ZM128 511H192V513H128V511Z" fill="#CDD5DF" mask="url(#path-551-inside-274_546_22737)"/>
<mask id="path-553-inside-275_546_22737" fill="white">
<path d="M128 448H64V512H128V448Z"/>
</mask>
<path d="M64 512V513H63V512H64ZM65 448V512H63V448H65ZM64 511H128V513H64V511Z" fill="#CDD5DF" mask="url(#path-553-inside-275_546_22737)"/>
<mask id="path-555-inside-276_546_22737" fill="white">
<path d="M64 448H0V512H64V448Z"/>
</mask>
<path d="M0 512V513H-1V512H0ZM1 448V512H-1V448H1ZM0 511H64V513H0V511Z" fill="#CDD5DF" mask="url(#path-555-inside-276_546_22737)"/>
<mask id="path-557-inside-277_546_22737" fill="white">
<path d="M768 512H704V576H768V512Z"/>
</mask>
<path d="M704 576V577H703V576H704ZM705 512V576H703V512H705ZM704 575H768V577H704V575Z" fill="#CDD5DF" mask="url(#path-557-inside-277_546_22737)"/>
<mask id="path-559-inside-278_546_22737" fill="white">
<path d="M704 512H640V576H704V512Z"/>
</mask>
<path d="M640 576V577H639V576H640ZM641 512V576H639V512H641ZM640 575H704V577H640V575Z" fill="#CDD5DF" mask="url(#path-559-inside-278_546_22737)"/>
<mask id="path-561-inside-279_546_22737" fill="white">
<path d="M640 512H576V576H640V512Z"/>
</mask>
<path d="M640 512H576V576H640V512Z" fill="#EEF2F6"/>
<path d="M576 576V577H575V576H576ZM577 512V576H575V512H577ZM576 575H640V577H576V575Z" fill="#CDD5DF" mask="url(#path-561-inside-279_546_22737)"/>
<mask id="path-563-inside-280_546_22737" fill="white">
<path d="M576 512H512V576H576V512Z"/>
</mask>
<path d="M512 576V577H511V576H512ZM513 512V576H511V512H513ZM512 575H576V577H512V575Z" fill="#CDD5DF" mask="url(#path-563-inside-280_546_22737)"/>
<mask id="path-565-inside-281_546_22737" fill="white">
<path d="M512 512H448V576H512V512Z"/>
</mask>
<path d="M448 576V577H447V576H448ZM449 512V576H447V512H449ZM448 575H512V577H448V575Z" fill="#CDD5DF" mask="url(#path-565-inside-281_546_22737)"/>
<mask id="path-567-inside-282_546_22737" fill="white">
<path d="M448 512H384V576H448V512Z"/>
</mask>
<path d="M384 576V577H383V576H384ZM385 512V576H383V512H385ZM384 575H448V577H384V575Z" fill="#CDD5DF" mask="url(#path-567-inside-282_546_22737)"/>
<mask id="path-569-inside-283_546_22737" fill="white">
<path d="M384 512H320V576H384V512Z"/>
</mask>
<path d="M320 576V577H319V576H320ZM321 512V576H319V512H321ZM320 575H384V577H320V575Z" fill="#CDD5DF" mask="url(#path-569-inside-283_546_22737)"/>
<mask id="path-571-inside-284_546_22737" fill="white">
<path d="M320 512H256V576H320V512Z"/>
</mask>
<path d="M320 512H256V576H320V512Z" fill="#EEF2F6"/>
<path d="M256 576V577H255V576H256ZM257 512V576H255V512H257ZM256 575H320V577H256V575Z" fill="#CDD5DF" mask="url(#path-571-inside-284_546_22737)"/>
<mask id="path-573-inside-285_546_22737" fill="white">
<path d="M256 512H192V576H256V512Z"/>
</mask>
<path d="M192 576V577H191V576H192ZM193 512V576H191V512H193ZM192 575H256V577H192V575Z" fill="#CDD5DF" mask="url(#path-573-inside-285_546_22737)"/>
<mask id="path-575-inside-286_546_22737" fill="white">
<path d="M192 512H128V576H192V512Z"/>
</mask>
<path d="M128 576V577H127V576H128ZM129 512V576H127V512H129ZM128 575H192V577H128V575Z" fill="#CDD5DF" mask="url(#path-575-inside-286_546_22737)"/>
<mask id="path-577-inside-287_546_22737" fill="white">
<path d="M128 512H64V576H128V512Z"/>
</mask>
<path d="M64 576V577H63V576H64ZM65 512V576H63V512H65ZM64 575H128V577H64V575Z" fill="#CDD5DF" mask="url(#path-577-inside-287_546_22737)"/>
<mask id="path-579-inside-288_546_22737" fill="white">
<path d="M64 512H0V576H64V512Z"/>
</mask>
<path d="M0 576V577H-1V576H0ZM1 512V576H-1V512H1ZM0 575H64V577H0V575Z" fill="#CDD5DF" mask="url(#path-579-inside-288_546_22737)"/>
<mask id="path-581-inside-289_546_22737" fill="white">
<path d="M768 576H704V640H768V576Z"/>
</mask>
<path d="M704 640V641H703V640H704ZM705 576V640H703V576H705ZM704 639H768V641H704V639Z" fill="#CDD5DF" mask="url(#path-581-inside-289_546_22737)"/>
<mask id="path-583-inside-290_546_22737" fill="white">
<path d="M704 576H640V640H704V576Z"/>
</mask>
<path d="M640 640V641H639V640H640ZM641 576V640H639V576H641ZM640 639H704V641H640V639Z" fill="#CDD5DF" mask="url(#path-583-inside-290_546_22737)"/>
<mask id="path-585-inside-291_546_22737" fill="white">
<path d="M640 576H576V640H640V576Z"/>
</mask>
<path d="M576 640V641H575V640H576ZM577 576V640H575V576H577ZM576 639H640V641H576V639Z" fill="#CDD5DF" mask="url(#path-585-inside-291_546_22737)"/>
<mask id="path-587-inside-292_546_22737" fill="white">
<path d="M576 576H512V640H576V576Z"/>
</mask>
<path d="M512 640V641H511V640H512ZM513 576V640H511V576H513ZM512 639H576V641H512V639Z" fill="#CDD5DF" mask="url(#path-587-inside-292_546_22737)"/>
<mask id="path-589-inside-293_546_22737" fill="white">
<path d="M512 576H448V640H512V576Z"/>
</mask>
<path d="M512 576H448V640H512V576Z" fill="#EEF2F6"/>
<path d="M448 640V641H447V640H448ZM449 576V640H447V576H449ZM448 639H512V641H448V639Z" fill="#CDD5DF" mask="url(#path-589-inside-293_546_22737)"/>
<mask id="path-591-inside-294_546_22737" fill="white">
<path d="M448 576H384V640H448V576Z"/>
</mask>
<path d="M384 640V641H383V640H384ZM385 576V640H383V576H385ZM384 639H448V641H384V639Z" fill="#CDD5DF" mask="url(#path-591-inside-294_546_22737)"/>
<mask id="path-593-inside-295_546_22737" fill="white">
<path d="M384 576H320V640H384V576Z"/>
</mask>
<path d="M320 640V641H319V640H320ZM321 576V640H319V576H321ZM320 639H384V641H320V639Z" fill="#CDD5DF" mask="url(#path-593-inside-295_546_22737)"/>
<mask id="path-595-inside-296_546_22737" fill="white">
<path d="M320 576H256V640H320V576Z"/>
</mask>
<path d="M256 640V641H255V640H256ZM257 576V640H255V576H257ZM256 639H320V641H256V639Z" fill="#CDD5DF" mask="url(#path-595-inside-296_546_22737)"/>
<mask id="path-597-inside-297_546_22737" fill="white">
<path d="M256 576H192V640H256V576Z"/>
</mask>
<path d="M192 640V641H191V640H192ZM193 576V640H191V576H193ZM192 639H256V641H192V639Z" fill="#CDD5DF" mask="url(#path-597-inside-297_546_22737)"/>
<mask id="path-599-inside-298_546_22737" fill="white">
<path d="M192 576H128V640H192V576Z"/>
</mask>
<path d="M128 640V641H127V640H128ZM129 576V640H127V576H129ZM128 639H192V641H128V639Z" fill="#CDD5DF" mask="url(#path-599-inside-298_546_22737)"/>
<mask id="path-601-inside-299_546_22737" fill="white">
<path d="M128 576H64V640H128V576Z"/>
</mask>
<path d="M64 640V641H63V640H64ZM65 576V640H63V576H65ZM64 639H128V641H64V639Z" fill="#CDD5DF" mask="url(#path-601-inside-299_546_22737)"/>
<mask id="path-603-inside-300_546_22737" fill="white">
<path d="M64 576H0V640H64V576Z"/>
</mask>
<path d="M64 576H0V640H64V576Z" fill="#EEF2F6"/>
<path d="M0 640V641H-1V640H0ZM1 576V640H-1V576H1ZM0 639H64V641H0V639Z" fill="#CDD5DF" mask="url(#path-603-inside-300_546_22737)"/>
<mask id="path-605-inside-301_546_22737" fill="white">
<path d="M768 640H704V704H768V640Z"/>
</mask>
<path d="M768 640H704V704H768V640Z" fill="#EEF2F6"/>
<path d="M704 704V705H703V704H704ZM705 640V704H703V640H705ZM704 703H768V705H704V703Z" fill="#CDD5DF" mask="url(#path-605-inside-301_546_22737)"/>
<mask id="path-607-inside-302_546_22737" fill="white">
<path d="M704 640H640V704H704V640Z"/>
</mask>
<path d="M640 704V705H639V704H640ZM641 640V704H639V640H641ZM640 703H704V705H640V703Z" fill="#CDD5DF" mask="url(#path-607-inside-302_546_22737)"/>
<mask id="path-609-inside-303_546_22737" fill="white">
<path d="M640 640H576V704H640V640Z"/>
</mask>
<path d="M576 704V705H575V704H576ZM577 640V704H575V640H577ZM576 703H640V705H576V703Z" fill="#CDD5DF" mask="url(#path-609-inside-303_546_22737)"/>
<mask id="path-611-inside-304_546_22737" fill="white">
<path d="M576 640H512V704H576V640Z"/>
</mask>
<path d="M512 704V705H511V704H512ZM513 640V704H511V640H513ZM512 703H576V705H512V703Z" fill="#CDD5DF" mask="url(#path-611-inside-304_546_22737)"/>
<mask id="path-613-inside-305_546_22737" fill="white">
<path d="M512 640H448V704H512V640Z"/>
</mask>
<path d="M448 704V705H447V704H448ZM449 640V704H447V640H449ZM448 703H512V705H448V703Z" fill="#CDD5DF" mask="url(#path-613-inside-305_546_22737)"/>
<mask id="path-615-inside-306_546_22737" fill="white">
<path d="M448 640H384V704H448V640Z"/>
</mask>
<path d="M384 704V705H383V704H384ZM385 640V704H383V640H385ZM384 703H448V705H384V703Z" fill="#CDD5DF" mask="url(#path-615-inside-306_546_22737)"/>
<mask id="path-617-inside-307_546_22737" fill="white">
<path d="M384 640H320V704H384V640Z"/>
</mask>
<path d="M320 704V705H319V704H320ZM321 640V704H319V640H321ZM320 703H384V705H320V703Z" fill="#CDD5DF" mask="url(#path-617-inside-307_546_22737)"/>
<mask id="path-619-inside-308_546_22737" fill="white">
<path d="M320 640H256V704H320V640Z"/>
</mask>
<path d="M256 704V705H255V704H256ZM257 640V704H255V640H257ZM256 703H320V705H256V703Z" fill="#CDD5DF" mask="url(#path-619-inside-308_546_22737)"/>
<mask id="path-621-inside-309_546_22737" fill="white">
<path d="M256 640H192V704H256V640Z"/>
</mask>
<path d="M192 704V705H191V704H192ZM193 640V704H191V640H193ZM192 703H256V705H192V703Z" fill="#CDD5DF" mask="url(#path-621-inside-309_546_22737)"/>
<mask id="path-623-inside-310_546_22737" fill="white">
<path d="M192 640H128V704H192V640Z"/>
</mask>
<path d="M192 640H128V704H192V640Z" fill="#EEF2F6"/>
<path d="M128 704V705H127V704H128ZM129 640V704H127V640H129ZM128 703H192V705H128V703Z" fill="#CDD5DF" mask="url(#path-623-inside-310_546_22737)"/>
<mask id="path-625-inside-311_546_22737" fill="white">
<path d="M128 640H64V704H128V640Z"/>
</mask>
<path d="M64 704V705H63V704H64ZM65 640V704H63V640H65ZM64 703H128V705H64V703Z" fill="#CDD5DF" mask="url(#path-625-inside-311_546_22737)"/>
<mask id="path-627-inside-312_546_22737" fill="white">
<path d="M64 640H0V704H64V640Z"/>
</mask>
<path d="M0 704V705H-1V704H0ZM1 640V704H-1V640H1ZM0 703H64V705H0V703Z" fill="#CDD5DF" mask="url(#path-627-inside-312_546_22737)"/>
<mask id="path-629-inside-313_546_22737" fill="white">
<path d="M768 704H704V768H768V704Z"/>
</mask>
<path d="M704 768V769H703V768H704ZM705 704V768H703V704H705ZM704 767H768V769H704V767Z" fill="#CDD5DF" mask="url(#path-629-inside-313_546_22737)"/>
<mask id="path-631-inside-314_546_22737" fill="white">
<path d="M704 704H640V768H704V704Z"/>
</mask>
<path d="M640 768V769H639V768H640ZM641 704V768H639V704H641ZM640 767H704V769H640V767Z" fill="#CDD5DF" mask="url(#path-631-inside-314_546_22737)"/>
<mask id="path-633-inside-315_546_22737" fill="white">
<path d="M640 704H576V768H640V704Z"/>
</mask>
<path d="M576 768V769H575V768H576ZM577 704V768H575V704H577ZM576 767H640V769H576V767Z" fill="#CDD5DF" mask="url(#path-633-inside-315_546_22737)"/>
<mask id="path-635-inside-316_546_22737" fill="white">
<path d="M576 704H512V768H576V704Z"/>
</mask>
<path d="M576 704H512V768H576V704Z" fill="#EEF2F6"/>
<path d="M512 768V769H511V768H512ZM513 704V768H511V704H513ZM512 767H576V769H512V767Z" fill="#CDD5DF" mask="url(#path-635-inside-316_546_22737)"/>
<mask id="path-637-inside-317_546_22737" fill="white">
<path d="M512 704H448V768H512V704Z"/>
</mask>
<path d="M448 768V769H447V768H448ZM449 704V768H447V704H449ZM448 767H512V769H448V767Z" fill="#CDD5DF" mask="url(#path-637-inside-317_546_22737)"/>
<mask id="path-639-inside-318_546_22737" fill="white">
<path d="M448 704H384V768H448V704Z"/>
</mask>
<path d="M384 768V769H383V768H384ZM385 704V768H383V704H385ZM384 767H448V769H384V767Z" fill="#CDD5DF" mask="url(#path-639-inside-318_546_22737)"/>
<mask id="path-641-inside-319_546_22737" fill="white">
<path d="M384 704H320V768H384V704Z"/>
</mask>
<path d="M320 768V769H319V768H320ZM321 704V768H319V704H321ZM320 767H384V769H320V767Z" fill="#CDD5DF" mask="url(#path-641-inside-319_546_22737)"/>
<mask id="path-643-inside-320_546_22737" fill="white">
<path d="M320 704H256V768H320V704Z"/>
</mask>
<path d="M256 768V769H255V768H256ZM257 704V768H255V704H257ZM256 767H320V769H256V767Z" fill="#CDD5DF" mask="url(#path-643-inside-320_546_22737)"/>
<mask id="path-645-inside-321_546_22737" fill="white">
<path d="M256 704H192V768H256V704Z"/>
</mask>
<path d="M192 768V769H191V768H192ZM193 704V768H191V704H193ZM192 767H256V769H192V767Z" fill="#CDD5DF" mask="url(#path-645-inside-321_546_22737)"/>
<mask id="path-647-inside-322_546_22737" fill="white">
<path d="M192 704H128V768H192V704Z"/>
</mask>
<path d="M128 768V769H127V768H128ZM129 704V768H127V704H129ZM128 767H192V769H128V767Z" fill="#CDD5DF" mask="url(#path-647-inside-322_546_22737)"/>
<mask id="path-649-inside-323_546_22737" fill="white">
<path d="M128 704H64V768H128V704Z"/>
</mask>
<path d="M64 768V769H63V768H64ZM65 704V768H63V704H65ZM64 767H128V769H64V767Z" fill="#CDD5DF" mask="url(#path-649-inside-323_546_22737)"/>
<mask id="path-651-inside-324_546_22737" fill="white">
<path d="M64 704H0V768H64V704Z"/>
</mask>
<path d="M0 768V769H-1V768H0ZM1 704V768H-1V704H1ZM0 767H64V769H0V767Z" fill="#CDD5DF" mask="url(#path-651-inside-324_546_22737)"/>
<mask id="path-653-inside-325_546_22737" fill="white">
<path d="M768 768H704V832H768V768Z"/>
</mask>
<path d="M704 832V833H703V832H704ZM705 768V832H703V768H705ZM704 831H768V833H704V831Z" fill="#CDD5DF" mask="url(#path-653-inside-325_546_22737)"/>
<mask id="path-655-inside-326_546_22737" fill="white">
<path d="M704 768H640V832H704V768Z"/>
</mask>
<path d="M704 768H640V832H704V768Z" fill="#EEF2F6"/>
<path d="M640 832V833H639V832H640ZM641 768V832H639V768H641ZM640 831H704V833H640V831Z" fill="#CDD5DF" mask="url(#path-655-inside-326_546_22737)"/>
<mask id="path-657-inside-327_546_22737" fill="white">
<path d="M640 768H576V832H640V768Z"/>
</mask>
<path d="M576 832V833H575V832H576ZM577 768V832H575V768H577ZM576 831H640V833H576V831Z" fill="#CDD5DF" mask="url(#path-657-inside-327_546_22737)"/>
<mask id="path-659-inside-328_546_22737" fill="white">
<path d="M576 768H512V832H576V768Z"/>
</mask>
<path d="M512 832V833H511V832H512ZM513 768V832H511V768H513ZM512 831H576V833H512V831Z" fill="#CDD5DF" mask="url(#path-659-inside-328_546_22737)"/>
<mask id="path-661-inside-329_546_22737" fill="white">
<path d="M512 768H448V832H512V768Z"/>
</mask>
<path d="M448 832V833H447V832H448ZM449 768V832H447V768H449ZM448 831H512V833H448V831Z" fill="#CDD5DF" mask="url(#path-661-inside-329_546_22737)"/>
<mask id="path-663-inside-330_546_22737" fill="white">
<path d="M448 768H384V832H448V768Z"/>
</mask>
<path d="M384 832V833H383V832H384ZM385 768V832H383V768H385ZM384 831H448V833H384V831Z" fill="#CDD5DF" mask="url(#path-663-inside-330_546_22737)"/>
<mask id="path-665-inside-331_546_22737" fill="white">
<path d="M384 768H320V832H384V768Z"/>
</mask>
<path d="M320 832V833H319V832H320ZM321 768V832H319V768H321ZM320 831H384V833H320V831Z" fill="#CDD5DF" mask="url(#path-665-inside-331_546_22737)"/>
<mask id="path-667-inside-332_546_22737" fill="white">
<path d="M320 768H256V832H320V768Z"/>
</mask>
<path d="M256 832V833H255V832H256ZM257 768V832H255V768H257ZM256 831H320V833H256V831Z" fill="#CDD5DF" mask="url(#path-667-inside-332_546_22737)"/>
<mask id="path-669-inside-333_546_22737" fill="white">
<path d="M256 768H192V832H256V768Z"/>
</mask>
<path d="M192 832V833H191V832H192ZM193 768V832H191V768H193ZM192 831H256V833H192V831Z" fill="#CDD5DF" mask="url(#path-669-inside-333_546_22737)"/>
<mask id="path-671-inside-334_546_22737" fill="white">
<path d="M192 768H128V832H192V768Z"/>
</mask>
<path d="M192 768H128V832H192V768Z" fill="#EEF2F6"/>
<path d="M128 832V833H127V832H128ZM129 768V832H127V768H129ZM128 831H192V833H128V831Z" fill="#CDD5DF" mask="url(#path-671-inside-334_546_22737)"/>
<mask id="path-673-inside-335_546_22737" fill="white">
<path d="M128 768H64V832H128V768Z"/>
</mask>
<path d="M64 832V833H63V832H64ZM65 768V832H63V768H65ZM64 831H128V833H64V831Z" fill="#CDD5DF" mask="url(#path-673-inside-335_546_22737)"/>
<mask id="path-675-inside-336_546_22737" fill="white">
<path d="M64 768H0V832H64V768Z"/>
</mask>
<path d="M0 832V833H-1V832H0ZM1 768V832H-1V768H1ZM0 831H64V833H0V831Z" fill="#CDD5DF" mask="url(#path-675-inside-336_546_22737)"/>
<mask id="path-677-inside-337_546_22737" fill="white">
<path d="M768 832H704V896H768V832Z"/>
</mask>
<path d="M704 896V897H703V896H704ZM705 832V896H703V832H705ZM704 895H768V897H704V895Z" fill="#CDD5DF" mask="url(#path-677-inside-337_546_22737)"/>
<mask id="path-679-inside-338_546_22737" fill="white">
<path d="M704 832H640V896H704V832Z"/>
</mask>
<path d="M640 896V897H639V896H640ZM641 832V896H639V832H641ZM640 895H704V897H640V895Z" fill="#CDD5DF" mask="url(#path-679-inside-338_546_22737)"/>
<mask id="path-681-inside-339_546_22737" fill="white">
<path d="M640 832H576V896H640V832Z"/>
</mask>
<path d="M576 896V897H575V896H576ZM577 832V896H575V832H577ZM576 895H640V897H576V895Z" fill="#CDD5DF" mask="url(#path-681-inside-339_546_22737)"/>
<mask id="path-683-inside-340_546_22737" fill="white">
<path d="M576 832H512V896H576V832Z"/>
</mask>
<path d="M512 896V897H511V896H512ZM513 832V896H511V832H513ZM512 895H576V897H512V895Z" fill="#CDD5DF" mask="url(#path-683-inside-340_546_22737)"/>
<mask id="path-685-inside-341_546_22737" fill="white">
<path d="M512 832H448V896H512V832Z"/>
</mask>
<path d="M448 896V897H447V896H448ZM449 832V896H447V832H449ZM448 895H512V897H448V895Z" fill="#CDD5DF" mask="url(#path-685-inside-341_546_22737)"/>
<mask id="path-687-inside-342_546_22737" fill="white">
<path d="M448 832H384V896H448V832Z"/>
</mask>
<path d="M384 896V897H383V896H384ZM385 832V896H383V832H385ZM384 895H448V897H384V895Z" fill="#CDD5DF" mask="url(#path-687-inside-342_546_22737)"/>
<mask id="path-689-inside-343_546_22737" fill="white">
<path d="M384 832H320V896H384V832Z"/>
</mask>
<path d="M384 832H320V896H384V832Z" fill="#EEF2F6"/>
<path d="M320 896V897H319V896H320ZM321 832V896H319V832H321ZM320 895H384V897H320V895Z" fill="#CDD5DF" mask="url(#path-689-inside-343_546_22737)"/>
<mask id="path-691-inside-344_546_22737" fill="white">
<path d="M320 832H256V896H320V832Z"/>
</mask>
<path d="M256 896V897H255V896H256ZM257 832V896H255V832H257ZM256 895H320V897H256V895Z" fill="#CDD5DF" mask="url(#path-691-inside-344_546_22737)"/>
<mask id="path-693-inside-345_546_22737" fill="white">
<path d="M256 832H192V896H256V832Z"/>
</mask>
<path d="M192 896V897H191V896H192ZM193 832V896H191V832H193ZM192 895H256V897H192V895Z" fill="#CDD5DF" mask="url(#path-693-inside-345_546_22737)"/>
<mask id="path-695-inside-346_546_22737" fill="white">
<path d="M192 832H128V896H192V832Z"/>
</mask>
<path d="M128 896V897H127V896H128ZM129 832V896H127V832H129ZM128 895H192V897H128V895Z" fill="#CDD5DF" mask="url(#path-695-inside-346_546_22737)"/>
<mask id="path-697-inside-347_546_22737" fill="white">
<path d="M128 832H64V896H128V832Z"/>
</mask>
<path d="M64 896V897H63V896H64ZM65 832V896H63V832H65ZM64 895H128V897H64V895Z" fill="#CDD5DF" mask="url(#path-697-inside-347_546_22737)"/>
<mask id="path-699-inside-348_546_22737" fill="white">
<path d="M64 832H0V896H64V832Z"/>
</mask>
<path d="M0 896V897H-1V896H0ZM1 832V896H-1V832H1ZM0 895H64V897H0V895Z" fill="#CDD5DF" mask="url(#path-699-inside-348_546_22737)"/>
<mask id="path-701-inside-349_546_22737" fill="white">
<path d="M768 896H704V960H768V896Z"/>
</mask>
<path d="M704 960V961H703V960H704ZM705 896V960H703V896H705ZM704 959H768V961H704V959Z" fill="#CDD5DF" mask="url(#path-701-inside-349_546_22737)"/>
<mask id="path-703-inside-350_546_22737" fill="white">
<path d="M704 896H640V960H704V896Z"/>
</mask>
<path d="M640 960V961H639V960H640ZM641 896V960H639V896H641ZM640 959H704V961H640V959Z" fill="#CDD5DF" mask="url(#path-703-inside-350_546_22737)"/>
<mask id="path-705-inside-351_546_22737" fill="white">
<path d="M640 896H576V960H640V896Z"/>
</mask>
<path d="M576 960V961H575V960H576ZM577 896V960H575V896H577ZM576 959H640V961H576V959Z" fill="#CDD5DF" mask="url(#path-705-inside-351_546_22737)"/>
<mask id="path-707-inside-352_546_22737" fill="white">
<path d="M576 896H512V960H576V896Z"/>
</mask>
<path d="M576 896H512V960H576V896Z" fill="#EEF2F6"/>
<path d="M512 960V961H511V960H512ZM513 896V960H511V896H513ZM512 959H576V961H512V959Z" fill="#CDD5DF" mask="url(#path-707-inside-352_546_22737)"/>
<mask id="path-709-inside-353_546_22737" fill="white">
<path d="M512 896H448V960H512V896Z"/>
</mask>
<path d="M448 960V961H447V960H448ZM449 896V960H447V896H449ZM448 959H512V961H448V959Z" fill="#CDD5DF" mask="url(#path-709-inside-353_546_22737)"/>
<mask id="path-711-inside-354_546_22737" fill="white">
<path d="M448 896H384V960H448V896Z"/>
</mask>
<path d="M384 960V961H383V960H384ZM385 896V960H383V896H385ZM384 959H448V961H384V959Z" fill="#CDD5DF" mask="url(#path-711-inside-354_546_22737)"/>
<mask id="path-713-inside-355_546_22737" fill="white">
<path d="M384 896H320V960H384V896Z"/>
</mask>
<path d="M320 960V961H319V960H320ZM321 896V960H319V896H321ZM320 959H384V961H320V959Z" fill="#CDD5DF" mask="url(#path-713-inside-355_546_22737)"/>
<mask id="path-715-inside-356_546_22737" fill="white">
<path d="M320 896H256V960H320V896Z"/>
</mask>
<path d="M256 960V961H255V960H256ZM257 896V960H255V896H257ZM256 959H320V961H256V959Z" fill="#CDD5DF" mask="url(#path-715-inside-356_546_22737)"/>
<mask id="path-717-inside-357_546_22737" fill="white">
<path d="M256 896H192V960H256V896Z"/>
</mask>
<path d="M192 960V961H191V960H192ZM193 896V960H191V896H193ZM192 959H256V961H192V959Z" fill="#CDD5DF" mask="url(#path-717-inside-357_546_22737)"/>
<mask id="path-719-inside-358_546_22737" fill="white">
<path d="M192 896H128V960H192V896Z"/>
</mask>
<path d="M128 960V961H127V960H128ZM129 896V960H127V896H129ZM128 959H192V961H128V959Z" fill="#CDD5DF" mask="url(#path-719-inside-358_546_22737)"/>
<mask id="path-721-inside-359_546_22737" fill="white">
<path d="M128 896H64V960H128V896Z"/>
</mask>
<path d="M64 960V961H63V960H64ZM65 896V960H63V896H65ZM64 959H128V961H64V959Z" fill="#CDD5DF" mask="url(#path-721-inside-359_546_22737)"/>
<mask id="path-723-inside-360_546_22737" fill="white">
<path d="M64 896H0V960H64V896Z"/>
</mask>
<path d="M0 960V961H-1V960H0ZM1 896V960H-1V896H1ZM0 959H64V961H0V959Z" fill="#CDD5DF" mask="url(#path-723-inside-360_546_22737)"/>
</g>
<rect x="-0.5" y="0.5" width="1919" height="1407" transform="matrix(-1 0 0 1 959 0)" stroke="white"/>
</g>
</g>
<defs>
<radialGradient id="paint0_radial_546_22737" cx="0" cy="0" r="1" gradientUnits="userSpaceOnUse" gradientTransform="translate(720 -0.000171661) rotate(90) scale(1440 751.588)">
<stop/>
<stop offset="0.953125" stop-opacity="0"/>
</radialGradient>
<radialGradient id="paint1_radial_546_22737" cx="0" cy="0" r="1" gradientUnits="userSpaceOnUse" gradientTransform="translate(720 -0.000171661) rotate(90) scale(1440 751.588)">
<stop/>
<stop offset="0.953125" stop-opacity="0"/>
</radialGradient>
<clipPath id="clip0_546_22737">
<rect width="1920" height="960" fill="white"/>
</clipPath>
<clipPath id="clip1_546_22737">
<rect x="960" width="1920" height="1408" fill="white"/>
</clipPath>
<clipPath id="clip2_546_22737">
<rect width="1920" height="1408" transform="matrix(-1 0 0 1 960 0)" fill="white"/>
</clipPath>
</defs>
</svg>
