<svg width="177" height="26" viewBox="0 0 177 26" fill="none" xmlns="http://www.w3.org/2000/svg">
<g clip-path="url(#clip0_546_26103)">
<path d="M11.8442 15.2412H27.9822V20.6205C27.9822 22.6011 26.3765 24.2067 24.396 24.2067H11.8442V15.2412Z" fill="white" stroke="white" stroke-width="1.7931"/>
<path d="M10.9485 0H24.3968C26.8725 0 28.8795 2.007 28.8795 4.48276V12.5517H10.9485V0Z" fill="white"/>
<path d="M0.189941 0H9.15546V25.1034H0.189941V0Z" fill="white"/>
<path d="M43.3473 10.997C44.7447 10.997 45.8316 10.8029 46.6078 10.4147C47.8277 9.80482 48.4378 8.70687 48.4378 7.12097C48.4378 5.52399 47.7889 4.44825 46.4914 3.89374C45.7594 3.58322 44.6726 3.42795 43.2309 3.42795H37.3254V10.997H43.3473ZM44.4619 22.2757C46.4914 22.2757 47.9386 21.6879 48.8037 20.5123C49.3471 19.7693 49.6188 18.871 49.6188 17.8174C49.6188 16.043 48.8259 14.8342 47.24 14.1909C46.3971 13.8472 45.2825 13.6752 43.8963 13.6752H37.3254V22.2757H44.4619ZM34.0815 0.666504H44.5784C47.4396 0.666504 49.4746 1.52045 50.6834 3.22833C51.3932 4.23754 51.7481 5.40201 51.7481 6.72173C51.7481 8.26326 51.31 9.52751 50.4339 10.5145C49.9793 11.0358 49.3249 11.5127 48.471 11.9452C49.7241 12.422 50.6613 12.96 51.2823 13.5588C52.3803 14.6234 52.9292 16.0929 52.9292 17.9671C52.9292 19.5419 52.4358 20.9671 51.4487 22.2424C49.9737 24.1499 47.6282 25.1037 44.412 25.1037H34.0815V0.666504Z" fill="white"/>
<path d="M56.5718 7.28694H59.4164V10.3644C59.6493 9.76561 60.2205 9.03922 61.1298 8.18524C62.0392 7.32021 63.0872 6.8877 64.2739 6.8877C64.3294 6.8877 64.4236 6.89324 64.5566 6.90433C64.6898 6.91542 64.9172 6.9376 65.2387 6.97087V10.1316C65.0613 10.0983 64.8949 10.0761 64.7396 10.0651C64.5955 10.0539 64.4347 10.0484 64.2573 10.0484C62.749 10.0484 61.59 10.5364 60.7805 11.5123C59.9709 12.4771 59.5661 13.5917 59.5661 14.856V25.1033H56.5718V7.28694Z" fill="white"/>
<path d="M70.13 20.3623C70.13 21.2274 70.446 21.9094 71.0782 22.4084C71.7104 22.9075 72.4589 23.157 73.324 23.157C74.3775 23.157 75.3978 22.9131 76.3848 22.4251C78.0483 21.6155 78.8801 20.2902 78.8801 18.4492V16.0371C78.5141 16.2701 78.0428 16.4641 77.4661 16.6194C76.8895 16.7746 76.3238 16.8856 75.7693 16.9521L73.956 17.185C72.8692 17.3292 72.0541 17.5565 71.5107 17.867C70.5902 18.3883 70.13 19.22 70.13 20.3623ZM77.3829 14.3071C78.0705 14.2183 78.5308 13.93 78.7636 13.4421C78.8968 13.1759 78.9633 12.7932 78.9633 12.2942C78.9633 11.2739 78.5973 10.5364 77.8654 10.0817C77.1445 9.61595 76.1076 9.38303 74.7546 9.38303C73.1908 9.38303 72.0818 9.8045 71.4275 10.6473C71.0615 11.1131 70.8231 11.8062 70.7122 12.7267H67.9175C67.9729 10.5309 68.6827 9.00594 70.0468 8.15203C71.4219 7.28701 73.0134 6.85449 74.8211 6.85449C76.9172 6.85449 78.6195 7.25374 79.9281 8.05223C81.2256 8.85072 81.8745 10.0928 81.8745 11.7785V22.0424C81.8745 22.353 81.9354 22.6025 82.0575 22.791C82.1905 22.9796 82.4623 23.0738 82.8726 23.0738C83.0057 23.0738 83.1554 23.0683 83.3217 23.0572C83.4881 23.035 83.6655 23.0073 83.8541 22.974V25.1865C83.3883 25.3196 83.0334 25.4028 82.7894 25.4361C82.5454 25.4693 82.2127 25.486 81.7913 25.486C80.7599 25.486 80.0113 25.12 79.5455 24.388C79.3016 23.9999 79.1297 23.4509 79.0298 22.7411C78.4199 23.5397 77.5438 24.2328 76.4015 24.8206C75.2592 25.4084 74.0004 25.7022 72.6253 25.7022C70.9729 25.7022 69.6199 25.2031 68.5662 24.205C67.5238 23.1958 67.0026 21.9371 67.0026 20.4288C67.0026 18.7764 67.5183 17.4955 68.5497 16.5861C69.581 15.6767 70.934 15.1167 72.6086 14.906L77.3829 14.3071Z" fill="white"/>
<path d="M86.7974 7.28694H89.6419V9.81546C90.4852 8.77302 91.3773 8.02443 92.3205 7.56974C93.2628 7.11504 94.3108 6.8877 95.4647 6.8877C97.993 6.8877 99.7009 7.76936 100.588 9.53268C101.076 10.4976 101.32 11.8782 101.32 13.6748V25.1033H98.2754V13.8745C98.2754 12.7876 98.1149 11.9115 97.793 11.2461C97.2605 10.1371 96.2958 9.58262 94.899 9.58262C94.1889 9.58262 93.607 9.6547 93.1516 9.79887C92.3312 10.0428 91.6104 10.5308 90.9891 11.2628C90.4906 11.8505 90.1634 12.4605 90.0083 13.0926C89.8639 13.7137 89.7917 14.6064 89.7917 15.7709V25.1033H86.7974V7.28694Z" fill="white"/>
<path d="M107.659 16.4031C107.659 18.3106 108.064 19.9076 108.874 21.194C109.683 22.4805 110.981 23.1238 112.766 23.1238C114.153 23.1238 115.289 22.5304 116.176 21.3437C117.074 20.146 117.524 18.4326 117.524 16.2035C117.524 13.9522 117.064 12.2887 116.143 11.2129C115.222 10.1261 114.085 9.58269 112.732 9.58269C111.224 9.58269 109.999 10.1594 109.057 11.3128C108.125 12.4661 107.659 14.1629 107.659 16.4031ZM112.167 6.97094C113.531 6.97094 114.674 7.25929 115.594 7.83597C116.126 8.16868 116.731 8.75091 117.407 9.58269V0.583008H120.285V25.1033H117.59V22.6247C116.892 23.7227 116.065 24.5156 115.112 25.0036C114.158 25.4915 113.065 25.7355 111.834 25.7355C109.849 25.7355 108.13 24.9037 106.677 23.2402C105.225 21.5656 104.499 19.342 104.499 16.5694C104.499 13.9744 105.158 11.7286 106.478 9.8322C107.809 7.92469 109.705 6.97094 112.167 6.97094Z" fill="white"/>
<path d="M124.493 0.583008H127.405V9.44955C128.058 8.59565 128.84 7.94687 129.75 7.50327C130.659 7.04857 131.646 6.82122 132.71 6.82122C134.929 6.82122 136.725 7.58644 138.101 9.11684C139.487 10.6362 140.181 12.882 140.181 15.8542C140.181 18.671 139.498 21.011 138.134 22.8743C136.77 24.7374 134.879 25.669 132.461 25.669C131.108 25.669 129.966 25.3418 129.035 24.6874C128.48 24.2993 127.887 23.6783 127.255 22.8243V25.1033H124.493V0.583008ZM132.278 23.024C133.898 23.024 135.106 22.3807 135.905 21.0942C136.714 19.8078 137.119 18.111 137.119 16.0039C137.119 14.1296 136.714 12.577 135.905 11.346C135.106 10.115 133.925 9.49949 132.362 9.49949C130.997 9.49949 129.799 10.0041 128.768 11.0133C127.748 12.0225 127.238 13.686 127.238 16.0039C127.238 17.6785 127.449 19.037 127.87 20.0795C128.657 22.0424 130.127 23.024 132.278 23.024Z" fill="white"/>
<path d="M151.11 6.8877C152.374 6.8877 153.599 7.18713 154.786 7.786C155.973 8.37377 156.876 9.13901 157.498 10.0816C158.097 10.98 158.496 12.028 158.695 13.2258C158.873 14.0464 158.962 15.3551 158.962 17.1517H145.903C145.958 18.9593 146.385 20.4122 147.184 21.5101C147.983 22.5969 149.219 23.1403 150.894 23.1403C152.457 23.1403 153.705 22.6247 154.637 21.5933C155.168 20.9944 155.546 20.3013 155.767 19.5138H158.712C158.634 20.1681 158.374 20.9001 157.93 21.7097C157.498 22.5082 157.01 23.1625 156.467 23.6726C155.557 24.5599 154.431 25.1587 153.089 25.4692C152.368 25.6467 151.554 25.7354 150.644 25.7354C148.425 25.7354 146.546 24.9314 145.004 23.3233C143.463 21.7042 142.692 19.4417 142.692 16.5361C142.692 13.6748 143.468 11.3515 145.021 9.56595C146.574 7.78045 148.603 6.8877 151.11 6.8877ZM155.884 14.7728C155.762 13.4753 155.48 12.4383 155.036 11.662C154.215 10.2202 152.845 9.49942 150.927 9.49942C149.552 9.49942 148.399 9.99844 147.467 10.9966C146.535 11.9836 146.042 13.2423 145.986 14.7728H155.884Z" fill="white"/>
<path d="M164.435 19.514C164.524 20.5121 164.774 21.2773 165.184 21.8097C165.938 22.7744 167.247 23.2569 169.11 23.2569C170.219 23.2569 171.195 23.0185 172.038 22.5416C172.881 22.0536 173.302 21.305 173.302 20.2958C173.302 19.5306 172.964 18.9484 172.287 18.5492C171.855 18.3051 171.001 18.0224 169.726 17.7008L167.346 17.1019C165.828 16.7248 164.707 16.3034 163.986 15.8376C162.699 15.028 162.057 13.9079 162.057 12.4773C162.057 10.7916 162.661 9.42748 163.869 8.385C165.09 7.34253 166.726 6.82129 168.777 6.82129C171.461 6.82129 173.396 7.60869 174.583 9.18352C175.326 10.1816 175.686 11.2573 175.664 12.4108H172.836C172.781 11.7342 172.543 11.1187 172.121 10.5642C171.434 9.77677 170.241 9.3831 168.544 9.3831C167.414 9.3831 166.554 9.59934 165.966 10.0319C165.389 10.4644 165.1 11.0355 165.1 11.7453C165.1 12.5217 165.483 13.1427 166.249 13.6085C166.693 13.8858 167.346 14.1297 168.211 14.3404L170.191 14.8228C172.343 15.3441 173.784 15.8487 174.516 16.3367C175.681 17.1019 176.263 18.3051 176.263 19.9464C176.263 21.5324 175.659 22.902 174.45 24.0554C173.252 25.2088 171.422 25.7854 168.96 25.7854C166.31 25.7854 164.43 25.1866 163.321 23.9888C162.223 22.78 161.635 21.2884 161.557 19.514H164.435Z" fill="white"/>
</g>
<defs>
<clipPath id="clip0_546_26103">
<rect width="176.621" height="26" fill="white" transform="translate(0.189697)"/>
</clipPath>
</defs>
</svg>
