<svg width="24" height="24" viewBox="0 0 24 24" fill="none" xmlns="http://www.w3.org/2000/svg">
<path d="M10.4739 12.0972L2.8099 7.93208C2.46899 7.7469 2.06643 7.75455 1.73284 7.95285C1.39925 8.15111 1.2002 8.50116 1.2002 8.88923V18.5514C1.2002 18.9423 1.4113 19.3052 1.75117 19.4984L9.4153 23.8555C9.58425 23.9515 9.76901 23.9995 9.95381 23.9995C10.1421 23.9995 10.3304 23.9496 10.5016 23.85C10.8407 23.6527 11.0431 23.3007 11.0431 22.9084V13.0544C11.0431 12.6548 10.8251 12.288 10.4739 12.0972Z" fill="white"/>
<path d="M21.2258 5.4207C21.2252 5.01274 20.9999 4.64272 20.6377 4.45501L12.2804 0.122258C11.964 -0.0418633 11.5868 -0.0406441 11.2716 0.125306L3.03715 4.45806C2.67861 4.6468 2.45559 5.01569 2.45508 5.42089C2.45461 5.82598 2.67674 6.1954 3.03475 6.38493L11.2692 10.7447C11.4287 10.8291 11.6037 10.8713 11.7788 10.8713C11.9518 10.8713 12.1249 10.8301 12.2827 10.7477L20.6402 6.38803C21.0019 6.19934 21.2263 5.82866 21.2258 5.4207Z" fill="white"/>
<path d="M22.0832 7.95293C21.7498 7.75463 21.3471 7.74679 21.0063 7.93211L13.3421 12.0973C12.991 12.2881 12.7729 12.6549 12.7729 13.0544V22.9084C12.7729 23.3007 12.9754 23.6528 13.3145 23.85C13.4857 23.9497 13.6739 23.9995 13.8622 23.9995C14.047 23.9995 14.2318 23.9515 14.4007 23.8555L22.0649 19.4985C22.4048 19.3052 22.6159 18.9423 22.6159 18.5514V8.88931C22.6159 8.50124 22.4168 8.15119 22.0832 7.95293Z" fill="white"/>
</svg>
