<svg width="60" height="60" viewBox="0 0 60 60" fill="none" xmlns="http://www.w3.org/2000/svg">
<g clip-path="url(#clip0_546_22551)">
<path d="M24.7314 47.6587H35.2651V59.0792H24.7314V47.6587Z" fill="#3A6584"/>
<path fill-rule="evenodd" clip-rule="evenodd" d="M57.9832 47.559C57.9815 48.1832 57.7328 48.7813 57.2914 49.2227C56.8501 49.664 56.2519 49.9128 55.6278 49.9145H4.36855C3.74476 49.9126 3.14711 49.6637 2.70635 49.2223C2.26559 48.7808 2.01759 48.1828 2.0166 47.559V14.6595C2.01778 14.0358 2.26586 13.4379 2.7066 12.9967C3.14734 12.5554 3.74488 12.3066 4.36855 12.3047H55.628C56.2522 12.3064 56.8503 12.5551 57.2917 12.9965C57.733 13.4379 57.9817 14.036 57.9835 14.6602V47.559H57.9832Z" fill="#EAF6FF"/>
<path fill-rule="evenodd" clip-rule="evenodd" d="M23.0509 55.8071H36.9461C37.3927 55.809 37.8205 55.9875 38.1361 56.3037C38.4516 56.6198 38.6293 57.048 38.6303 57.4946V59.1788H21.3667V57.4946C21.3677 57.048 21.5454 56.6199 21.8609 56.3037C22.1764 55.9876 22.6043 55.809 23.0509 55.8071Z" fill="#285575"/>
<path fill-rule="evenodd" clip-rule="evenodd" d="M35.2651 51.8143H26.8044V55.8071H24.7314V51.8143V49.9142V47.6587H35.2651V51.8143Z" fill="#2F526B"/>
<path fill-rule="evenodd" clip-rule="evenodd" d="M57.9832 47.5591C57.9815 48.1833 57.7328 48.7814 57.2914 49.2227C56.8501 49.6641 56.2519 49.9128 55.6278 49.9146H4.36855C3.74476 49.9126 3.14711 49.6637 2.70635 49.2223C2.26559 48.7809 2.01759 48.1829 2.0166 47.5591V43.3872H57.9832V47.5591Z" fill="#285575"/>
<path fill-rule="evenodd" clip-rule="evenodd" d="M42.1779 30.9797L49.2369 4.62748C49.3422 4.24425 49.3706 3.84398 49.3206 3.44971C49.2706 3.05544 49.1432 2.67495 48.9456 2.33013C48.748 1.9853 48.4841 1.68296 48.1692 1.44049C47.8543 1.19802 47.4946 1.02021 47.1107 0.917289C46.7268 0.814369 46.3264 0.78837 45.9325 0.840789C45.5385 0.893209 45.1588 1.02301 44.8152 1.22273C44.4716 1.42244 44.1709 1.68813 43.9303 2.00451C43.6898 2.32088 43.5142 2.6817 43.4136 3.06619L36.3516 29.4184L37.7037 36.0222L42.1779 30.9797Z" fill="#FFBA3B"/>
<path fill-rule="evenodd" clip-rule="evenodd" d="M42.1776 30.9797L36.3511 29.4185L37.7032 36.0223L42.1776 30.9797Z" fill="#3A6584"/>
<path d="M16.3306 25.917H27.8673V37.4537H16.3306V25.917Z" fill="#FA4655"/>
<path fill-rule="evenodd" clip-rule="evenodd" d="M16.2042 31.4715C17.513 31.4722 18.7927 31.0846 19.8813 30.3579C20.9699 29.6312 21.8186 28.598 22.3199 27.3889C22.8212 26.1799 22.9528 24.8493 22.6978 23.5655C22.4429 22.2817 21.8129 21.1023 20.8876 20.1766C19.9623 19.2508 18.7833 18.6203 17.4996 18.3647C16.2159 18.1091 14.8853 18.24 13.6759 18.7407C12.4666 19.2414 11.433 20.0896 10.7057 21.1778C9.9785 22.2661 9.59033 23.5455 9.59033 24.8544C9.59389 26.6077 10.2917 28.2882 11.5312 29.5283C12.7707 30.7684 14.4509 31.4671 16.2042 31.4715Z" fill="#FFBA3B"/>
<path fill-rule="evenodd" clip-rule="evenodd" d="M4.47484 47.5591V43.3872H2.0166V47.5591C2.01759 48.1829 2.26559 48.7809 2.70635 49.2223C3.14711 49.6637 3.74476 49.9126 4.36855 49.9146H6.82949C6.20531 49.9129 5.60717 49.6641 5.1658 49.2228C4.72444 48.7814 4.47572 48.1833 4.47402 47.5591H4.47484Z" fill="#20455F"/>
<path fill-rule="evenodd" clip-rule="evenodd" d="M2.0166 43.387H4.47484V14.6597C4.47654 14.0355 4.72526 13.4373 5.16662 12.996C5.60799 12.5546 6.20613 12.3059 6.83031 12.3042H4.36937C3.74558 12.3061 3.14793 12.555 2.70717 12.9964C2.26641 13.4379 2.01841 14.0359 2.01742 14.6597V43.387H2.0166Z" fill="#D3DDE6"/>
<path fill-rule="evenodd" clip-rule="evenodd" d="M39.6103 33.8731L38.8364 30.0862L36.3516 29.4185L37.7037 36.0223L39.6103 33.8731Z" fill="#2F526B"/>
<path fill-rule="evenodd" clip-rule="evenodd" d="M36.3516 29.4182L38.8359 30.0861L43.5997 12.3045L45.8951 3.73079C46.0452 3.17859 46.3481 2.67994 46.7689 2.29212C47.1897 1.90429 47.7114 1.64303 48.274 1.53833C47.9379 1.24745 47.5405 1.03626 47.1114 0.920519C46.3367 0.71973 45.5141 0.832413 44.822 1.23413C44.1299 1.63585 43.624 2.29422 43.4141 3.06646L40.9389 12.3045L36.3516 29.4182Z" fill="#E8A221"/>
<path d="M55.6299 11.4835H48.2505L50.0308 4.84045C50.1651 4.3528 50.2017 3.8434 50.1383 3.34157C50.075 2.83974 49.913 2.3554 49.6617 1.91644C49.4104 1.47748 49.0747 1.09257 48.674 0.78387C48.2733 0.475172 47.8155 0.248786 47.327 0.117748C46.8384 -0.0132908 46.3288 -0.0463927 45.8274 0.020348C45.326 0.0870887 44.8428 0.252353 44.4056 0.506626C43.9683 0.760899 43.5857 1.09916 43.2797 1.50192C42.9737 1.90468 42.7504 2.364 42.6227 2.85342L40.3099 11.4835H4.36963C3.52765 11.4844 2.72044 11.8193 2.12507 12.4147C1.52971 13.01 1.19481 13.8173 1.19385 14.6592V47.5593C1.19478 48.4013 1.52967 49.2085 2.12504 49.8039C2.72041 50.3992 3.52765 50.7341 4.36963 50.7351H23.9124V54.987H23.052C22.3876 54.9882 21.7507 55.2529 21.2812 55.7231C20.8117 56.1932 20.5478 56.8303 20.5474 57.4948V59.1796C20.5474 59.3971 20.6338 59.6058 20.7876 59.7596C20.9415 59.9135 21.1501 59.9999 21.3677 59.9999H38.6317C38.8493 59.9999 39.0579 59.9135 39.2118 59.7596C39.3656 59.6058 39.452 59.3971 39.452 59.1796V57.4951C39.4516 56.8307 39.1877 56.1935 38.7182 55.7234C38.2487 55.2533 37.6118 54.9886 36.9474 54.9873H36.087V50.7351H55.6299C56.4719 50.7341 57.2791 50.3992 57.8745 49.8038C58.4698 49.2085 58.8047 48.4012 58.8057 47.5593V14.6592C58.8047 13.8173 58.4698 13.01 57.8745 12.4147C57.2791 11.8193 56.4719 11.4844 55.6299 11.4835ZM41.7222 12.5531C41.7275 12.5365 41.7316 12.5194 41.7358 12.5023L44.2075 3.27963C44.2814 3.00054 44.4096 2.73878 44.5848 2.50934C44.76 2.2799 44.9788 2.08729 45.2286 1.94256C45.4783 1.79783 45.7542 1.70381 46.0404 1.66591C46.3266 1.628 46.6175 1.64695 46.8963 1.72167C47.1752 1.79639 47.4366 1.9254 47.6654 2.10132C47.8943 2.27724 48.0863 2.4966 48.2302 2.74684C48.3742 2.99707 48.4674 3.27326 48.5044 3.55957C48.5414 3.84587 48.5215 4.13667 48.446 4.41529L41.5958 29.9765L37.3578 28.8397L41.7222 12.5531ZM40.6808 31.4296L38.1795 34.2502L37.4231 30.5554L40.6808 31.4296ZM36.9475 56.6281C37.177 56.6288 37.3968 56.7205 37.5587 56.8831C37.7206 57.0456 37.8114 57.2658 37.8112 57.4953V58.3593H22.1883V57.4956C22.1881 57.2662 22.2789 57.046 22.4408 56.8834C22.6028 56.7208 22.8226 56.6291 23.052 56.6284L36.9475 56.6281ZM25.5534 54.9874V50.7351H34.4462V54.987L25.5534 54.9874ZM57.1646 47.5593C57.1643 47.9663 57.0024 48.3566 56.7146 48.6444C56.4268 48.9323 56.0365 49.0941 55.6294 49.0944H4.36963C3.96258 49.0941 3.57228 48.9323 3.28445 48.6444C2.99662 48.3566 2.83478 47.9663 2.83447 47.5593V44.2077H57.1646V47.5593ZM57.1646 42.5664H2.83494V14.6592C2.83525 14.2522 2.99709 13.8619 3.28492 13.5741C3.57275 13.2862 3.96304 13.1244 4.3701 13.1241H39.8702L35.5604 29.2061C35.5273 29.3291 35.5233 29.4582 35.5487 29.5831L36.9011 36.1874C36.9316 36.3368 37.0031 36.4747 37.1076 36.5857C37.212 36.6967 37.3454 36.7764 37.4926 36.8158C37.6399 36.8553 37.7952 36.8529 37.9412 36.809C38.0872 36.7651 38.218 36.6813 38.3191 36.5672L42.7904 31.5245C42.8748 31.4292 42.936 31.3155 42.9688 31.1925L47.8107 13.1249H55.6299C56.037 13.1252 56.4272 13.287 56.7151 13.5749C57.0029 13.8627 57.1647 14.253 57.1651 14.6601L57.1646 42.5664ZM28.025 46.6522C28.025 46.4347 28.1114 46.226 28.2652 46.0722C28.4191 45.9184 28.6277 45.8319 28.8453 45.8319H31.1539C31.3714 45.8319 31.5801 45.9184 31.7339 46.0722C31.8878 46.226 31.9742 46.4347 31.9742 46.6522C31.9742 46.8698 31.8878 47.0785 31.7339 47.2323C31.5801 47.3861 31.3714 47.4726 31.1539 47.4726H28.8453C28.6277 47.4726 28.4191 47.3861 28.2652 47.2323C28.1114 47.0785 28.025 46.8698 28.025 46.6522ZM27.8688 25.0963H23.6371C23.6397 25.0157 23.6433 24.9352 23.6433 24.854C23.6438 23.4129 23.2256 22.0028 22.4395 20.795C21.6535 19.5873 20.5334 18.634 19.2156 18.051C17.8977 17.468 16.4389 17.2805 15.0164 17.5112C13.594 17.742 12.2693 18.3811 11.2033 19.3508C10.1373 20.3205 9.3761 21.579 9.01215 22.9733C8.6482 24.3676 8.69722 25.8376 9.15324 27.2046C9.60927 28.5716 10.4527 29.7766 11.5808 30.6732C12.709 31.5697 14.0734 32.1191 15.5081 32.2546V37.4538C15.5081 37.6714 15.5945 37.8801 15.7483 38.0339C15.9022 38.1877 16.1108 38.2742 16.3284 38.2742H27.8687C28.0862 38.2742 28.2949 38.1877 28.4487 38.0339C28.6025 37.8801 28.689 37.6714 28.689 37.4538V25.9171C28.689 25.8094 28.6678 25.7027 28.6266 25.6031C28.5854 25.5036 28.525 25.4131 28.4488 25.3369C28.3727 25.2607 28.2822 25.2003 28.1827 25.159C28.0832 25.1178 27.9765 25.0966 27.8688 25.0965V25.0963ZM15.5081 25.9166V30.6035C14.4 30.4687 13.3544 30.0167 12.497 29.3019C11.6397 28.587 11.0071 27.6397 10.6753 26.5739C10.3434 25.5081 10.3265 24.3691 10.6266 23.2939C10.9267 22.2187 11.5309 21.2531 12.3667 20.5131C13.2025 19.7731 14.2342 19.2903 15.3378 19.1227C16.4414 18.9551 17.57 19.1099 18.5877 19.5683C19.6055 20.0268 20.4692 20.7695 21.0749 21.7072C21.6807 22.6448 22.0027 23.7375 22.0022 24.8537C22.0022 24.9349 21.9994 25.0156 21.9962 25.0961H16.3285C16.2207 25.0961 16.114 25.1173 16.0144 25.1585C15.9148 25.1998 15.8243 25.2603 15.7481 25.3365C15.6719 25.4128 15.6115 25.5033 15.5703 25.6029C15.5291 25.7025 15.508 25.8093 15.5081 25.9171V25.9166ZM21.6861 26.7369C21.3442 27.7246 20.7423 28.6017 19.9439 29.2761C19.1455 29.9505 18.18 30.3971 17.149 30.569V26.7369H21.6861ZM27.0482 36.6328H17.149V32.2265C18.6187 32.0365 19.9983 31.4128 21.1118 30.4351C22.2254 29.4574 23.0223 28.1701 23.4009 26.7374H27.0482V36.6328Z" fill="black"/>
</g>
<defs>
<clipPath id="clip0_546_22551">
<rect width="60" height="60" fill="white"/>
</clipPath>
</defs>
</svg>
