<svg width="60" height="60" viewBox="0 0 60 60" fill="none" xmlns="http://www.w3.org/2000/svg">
<g clip-path="url(#clip0_546_22571)">
<path fill-rule="evenodd" clip-rule="evenodd" d="M27.6324 2.96402C27.6324 1.81676 26.6955 0.878906 25.5494 0.878906H5.60254C4.45633 0.878906 3.51953 1.81664 3.51953 2.96402V11.8763C3.51953 13.0235 4.45645 13.9614 5.60254 13.9614H25.5493C26.6955 13.9614 27.6323 13.0236 27.6323 11.8763L27.6324 2.96402Z" fill="#FFDB4E"/>
<path fill-rule="evenodd" clip-rule="evenodd" d="M44.4129 21.1476C44.0309 19.711 43.2866 18.4706 42.3066 17.4896C40.3132 15.5009 37.3465 14.5997 34.4362 15.3813C33.001 15.7636 31.7584 16.5086 30.7817 17.4896C28.795 19.4848 27.8946 22.4545 28.6721 25.3676C29.4328 28.2009 31.5924 30.286 34.2069 31.0708C36.1737 31.7226 39.2434 33.362 42.0575 29.2651C43.7153 27.7353 44.6953 25.5605 44.6919 23.2593C44.6921 22.5609 44.6023 21.8526 44.4129 21.1476Z" fill="#B1D7FE"/>
<path fill-rule="evenodd" clip-rule="evenodd" d="M17.3101 32.7933C14.9414 28.683 9.68878 27.273 5.58253 29.6474C1.47628 32.0217 0.0676838 37.276 2.43968 41.3863C4.80839 45.4999 10.061 46.9065 14.1672 44.5322C18.2736 42.1611 19.6822 36.9035 17.3101 32.7933Z" fill="#FF8389"/>
<path fill-rule="evenodd" clip-rule="evenodd" d="M12.9678 35.3043C11.9811 33.5918 9.79837 33.0064 8.08743 33.9941C6.37978 34.9817 5.79513 37.1698 6.78185 38.8791C7.76856 40.5884 9.9513 41.1737 11.6622 40.186C13.3698 39.1985 13.9545 37.0136 12.9678 35.3043Z" fill="#E7ECF1"/>
<path fill-rule="evenodd" clip-rule="evenodd" d="M43.556 33.5814V31.5895C43.556 30.3458 42.8882 29.5676 42.0576 29.2649C40.6921 28.7628 38.8816 29.5376 38.8816 31.5895V23.4653C38.8816 20.1665 34.2072 20.1665 34.2072 23.4653V31.0707V40.2589C34.2072 42.0346 33.8317 43.3749 32.6324 41.8817C30.7819 39.188 29.4231 37.7215 26.8251 38.1738C25.3001 38.4432 24.7188 39.8597 25.762 41.2033L33.1639 52.0709C34.7486 54.402 34.9679 55.8853 34.9679 57.9637C34.9679 58.5988 35.4895 59.1209 36.1273 59.1209H49.9744C50.6123 59.1209 51.1339 58.5988 51.1339 57.9637V55.7023V54.3788C51.1339 51.3726 52.5059 51.6553 52.9013 47.9806C52.9013 43.8438 52.9013 39.7102 52.9013 35.5733C52.9013 32.2744 48.2302 32.271 48.2302 35.5733V33.5813C48.2303 30.2826 43.556 30.2826 43.556 33.5814Z" fill="#FFECE4"/>
<path fill-rule="evenodd" clip-rule="evenodd" d="M27.6324 2.96402C27.6324 1.81676 26.6955 0.878906 25.5494 0.878906H21.2969C22.4431 0.878906 23.3799 1.81664 23.3799 2.96402V5.26523V9.47859V11.8763C23.3799 13.0235 22.443 13.9614 21.2969 13.9614H25.5494C26.6956 13.9614 27.6324 13.0236 27.6324 11.8763V2.96402Z" fill="#FFAF5D"/>
<path fill-rule="evenodd" clip-rule="evenodd" d="M44.4131 21.1476C44.031 19.711 43.2868 18.4706 42.3067 17.4896C40.3134 15.5009 37.3467 14.5997 34.4363 15.3813C33.423 15.6507 32.5094 16.1029 31.7153 16.6881C34.4827 16.1029 37.2569 17.014 39.1472 18.9029C40.1273 19.8806 40.8715 21.1243 41.2536 22.5576C41.443 23.2659 41.5326 23.9743 41.5326 24.6693C41.5359 26.4119 40.9744 28.0812 39.9844 29.4514C40.6024 29.079 41.3831 29.0158 42.0575 29.2652C43.7153 27.7354 44.6954 25.5606 44.692 23.2594C44.6922 22.5609 44.6024 21.8526 44.4131 21.1476Z" fill="#8BC6F8"/>
<path fill-rule="evenodd" clip-rule="evenodd" d="M52.901 35.5734C52.901 33.3654 50.808 32.6337 49.4226 33.3819C50.107 33.7511 50.6154 34.4827 50.6154 35.5734V47.9808C50.22 51.6554 48.8479 51.3728 48.8479 54.379V55.7025V57.9639C48.8479 58.599 48.3263 59.1211 47.6885 59.1211H49.9742C50.6121 59.1211 51.1337 58.599 51.1337 57.9639V55.7025V54.379C51.1337 51.3728 52.5057 51.6554 52.9011 47.9808C52.9011 45.6231 52.9011 43.2653 52.9011 40.9109V40.1593V35.5734H52.901Z" fill="#FFDDCE"/>
<path fill-rule="evenodd" clip-rule="evenodd" d="M57.6951 23.2594C57.6951 21.4404 56.2234 19.9639 54.4062 19.9639C52.5889 19.9639 51.1138 21.4404 51.1138 23.2594C51.1138 25.0784 52.5888 26.5517 54.4062 26.5517C56.2234 26.5517 57.6951 25.0785 57.6951 23.2594Z" fill="#FF8389"/>
<path fill-rule="evenodd" clip-rule="evenodd" d="M57.2367 3.70544C55.2766 1.74337 52.0938 1.74337 50.1337 3.70544C48.1703 5.66751 48.1703 8.85325 50.1337 10.8153C52.0938 12.7807 55.2766 12.7807 57.2367 10.8153C59.2002 8.85325 59.2002 5.66739 57.2367 3.70544Z" fill="#FF8389"/>
<path fill-rule="evenodd" clip-rule="evenodd" d="M57.2365 10.8152C59.2 8.85314 59.2 5.66739 57.2365 3.70532C55.8013 2.26872 53.7083 1.88294 51.9243 2.55138C52.7881 2.76091 53.6087 3.20318 54.2865 3.88157C56.2465 5.84364 56.2465 9.02939 54.2865 10.9915C53.7616 11.5169 53.1469 11.9026 52.4957 12.1454C54.1435 12.5478 55.9508 12.1022 57.2365 10.8152Z" fill="#FF6677"/>
<path fill-rule="evenodd" clip-rule="evenodd" d="M57.695 23.2594C57.695 21.4404 56.2233 19.9639 54.4061 19.9639C53.8048 19.9639 53.2399 20.1268 52.7549 20.4095C53.9243 20.9117 54.745 22.0789 54.745 23.4357C54.745 24.6495 54.0838 25.7136 53.1038 26.2823C53.5024 26.4552 53.9409 26.5517 54.4061 26.5517C56.2233 26.5517 57.695 25.0785 57.695 23.2594Z" fill="#FF6677"/>
<path fill-rule="evenodd" clip-rule="evenodd" d="M13.9047 32.873C16.2769 36.9832 14.8681 42.2409 10.7619 44.6119C9.99783 45.0542 9.19053 45.3668 8.37314 45.553C10.2968 45.8956 12.3432 45.5863 14.1671 44.5321C18.2734 42.161 19.6821 36.9034 17.31 32.7932C15.3831 29.4477 11.5459 27.8915 7.97119 28.7062C10.3765 29.1352 12.5858 30.585 13.9047 32.873Z" fill="#FF6677"/>
<path d="M23.4593 4.38623H14.2832C13.7977 4.38623 13.4043 4.77975 13.4043 5.26514C13.4043 5.75053 13.7977 6.14404 14.2832 6.14404H23.4593C23.9448 6.14404 24.3382 5.75053 24.3382 5.26514C24.3382 4.77975 23.9448 4.38623 23.4593 4.38623Z" fill="black"/>
<path d="M7.08057 6.14404H9.7549C10.2404 6.14404 10.6338 5.75053 10.6338 5.26514C10.6338 4.77975 10.2404 4.38623 9.7549 4.38623H7.08057C6.59506 4.38623 6.20166 4.77975 6.20166 5.26514C6.20166 5.75053 6.59518 6.14404 7.08057 6.14404Z" fill="black"/>
<path d="M7.08057 10.3574H16.2566C16.7421 10.3574 17.1355 9.96391 17.1355 9.47852C17.1355 8.99312 16.7421 8.59961 16.2566 8.59961H7.08057C6.59506 8.59961 6.20166 8.99312 6.20166 9.47852C6.20166 9.96391 6.59518 10.3574 7.08057 10.3574Z" fill="black"/>
<path d="M23.4596 8.59961H20.7852C20.2996 8.59961 19.9062 8.99312 19.9062 9.47852C19.9062 9.96391 20.2996 10.3574 20.7852 10.3574H23.4596C23.9451 10.3574 24.3385 9.96391 24.3385 9.47852C24.3385 8.99312 23.9451 8.59961 23.4596 8.59961Z" fill="black"/>
<path d="M54.4062 19.0848C52.4075 19.0848 50.7333 20.4993 50.3288 22.3804H45.5276C45.4794 21.8925 45.3918 21.4045 45.262 20.9205C44.9235 19.6543 44.3265 18.5026 43.5187 17.5198L49.555 11.4776C50.6641 12.5677 52.1281 13.1682 53.6853 13.1682C55.2626 13.1682 56.7449 12.553 57.858 11.437C58.9737 10.3221 59.5883 8.83875 59.5883 7.26035C59.5883 5.68195 58.9737 4.19871 57.8585 3.08426C56.7444 1.9691 55.2624 1.35504 53.6853 1.35504C52.1082 1.35504 50.6262 1.96922 49.5121 3.08426C48.3966 4.19918 47.7823 5.6823 47.7823 7.26035C47.7823 8.25492 48.0268 9.21152 48.4863 10.062C48.4805 10.0673 48.4744 10.072 48.4689 10.0777L42.2744 16.2782C41.8942 15.9668 41.4876 15.6825 41.0535 15.432C38.9661 14.2268 36.5351 13.9073 34.209 14.5321C32.9242 14.8759 31.7788 15.4825 30.814 16.2782L28.0304 13.4919C28.3339 13.0268 28.5112 12.4719 28.5112 11.876V2.96391C28.5111 1.32961 27.1824 0 25.5492 0H5.60232C3.9692 0 2.64041 1.32961 2.64041 2.96391V11.8761C2.64041 13.5104 3.9692 14.84 5.60232 14.84H12.5292C13.0147 14.84 13.4081 14.4465 13.4081 13.9611C13.4081 13.4757 13.0147 13.0822 12.5292 13.0822H5.60232C4.93834 13.0822 4.39822 12.5412 4.39822 11.8761V2.96391C4.39822 2.29887 4.93834 1.75781 5.60232 1.75781H25.5492C26.2131 1.75781 26.7533 2.29887 26.7533 2.96391V11.8761C26.7533 12.5412 26.2131 13.0822 25.5492 13.0822H16.589C16.1035 13.0822 15.7101 13.4757 15.7101 13.9611C15.7101 14.4465 16.1035 14.84 16.589 14.84H25.5492C25.9462 14.84 26.3248 14.7609 26.6711 14.6186L29.5743 17.5246C27.9283 19.5352 27.1649 22.2273 27.6744 24.9291L17.1424 31.0181C17.1415 31.0186 17.141 31.0192 17.1401 31.0195C15.9003 29.5261 14.2358 28.4517 12.3228 27.939C9.88119 27.2845 7.33095 27.6211 5.14248 28.8865C0.623142 31.4998 -0.930998 37.3042 1.67795 41.8248C2.94053 44.0177 4.98099 45.5859 7.42342 46.241C8.23869 46.4597 9.0658 46.5679 9.88775 46.5679C11.5284 46.5679 13.148 46.1367 14.607 45.2932C19.0881 42.7051 20.6521 36.9798 18.1365 32.4741L28.1825 26.666C29.1235 28.9898 30.9701 30.803 33.3281 31.6992V39.7936V40.2592C33.3281 40.7023 33.3036 41.027 33.2719 41.2615C31.4835 38.6718 29.8368 36.758 26.6721 37.3086C25.6345 37.4919 24.8491 38.0904 24.5176 38.9508C24.1795 39.828 24.3735 40.8356 25.0499 41.7196L32.437 52.5654C33.8505 54.6445 34.089 55.9111 34.089 57.9639C34.089 59.0866 35.0034 60 36.1273 60H49.9744C51.0985 60 52.0129 59.0866 52.0129 57.9639V54.3791C52.0129 53.0755 52.2849 52.5456 52.6614 51.8123C53.0626 51.0311 53.5619 50.0588 53.7753 48.0749C53.7786 48.0436 53.7803 48.0123 53.7803 47.9809V44.9713C53.7803 44.4859 53.3869 44.0924 52.9014 44.0924C52.4159 44.0924 52.0225 44.4859 52.0225 44.9713V47.933C51.8419 49.5599 51.4635 50.2968 51.0977 51.0094C50.6834 51.8162 50.2551 52.6505 50.2551 54.379V57.9637C50.2551 58.1147 50.1265 58.2421 49.9744 58.2421H36.1272C35.9751 58.2421 35.8467 58.1146 35.8467 57.9637C35.8467 55.6362 35.5441 54.0093 33.8902 51.5763L26.4883 40.7087C26.478 40.6937 26.4672 40.6788 26.4561 40.6644C26.1523 40.2732 26.0436 39.879 26.1577 39.5828C26.2625 39.3111 26.5613 39.1131 26.9756 39.0398C29.0047 38.6865 30.0912 39.7352 31.9078 42.3796C31.9201 42.3976 31.9333 42.4152 31.9469 42.4323C32.6099 43.2578 33.2735 43.5612 33.9187 43.3342C34.726 43.0501 35.0859 42.1017 35.0859 40.2591V39.7935V23.4655C35.0859 22.288 35.8714 21.8702 36.544 21.8702C37.2168 21.8702 38.0023 22.288 38.0023 23.4655V38.623C38.0023 39.1084 38.3957 39.5019 38.8812 39.5019C39.3667 39.5019 39.7601 39.1084 39.7601 38.623V31.5896C39.7601 30.4121 40.5458 29.9944 41.2184 29.9944C41.3805 29.9944 41.549 30.0193 41.7115 30.0727C41.7379 30.0839 41.7646 30.0939 41.7917 30.1024C42.2701 30.2906 42.6767 30.743 42.6767 31.5896V39.7969C42.6767 40.2823 43.0701 40.6758 43.5556 40.6758C44.0411 40.6758 44.4345 40.2823 44.4345 39.7969V33.5816C44.4345 32.4041 45.22 31.9863 45.8928 31.9863C46.5654 31.9863 47.351 32.4041 47.351 33.5816V40.9707C47.351 41.4561 47.7444 41.8496 48.2299 41.8496C48.7154 41.8496 49.1088 41.4561 49.1088 40.9707V35.5736C49.1088 34.3951 49.893 33.977 50.5646 33.977C50.946 33.977 51.3119 34.1155 51.5682 34.3569C51.8694 34.6405 52.022 35.0498 52.022 35.5734V40.9107C52.022 41.3961 52.4154 41.7896 52.901 41.7896C53.3865 41.7896 53.7799 41.3961 53.7799 40.9107V35.5734C53.7799 33.3713 52.1623 32.2191 50.5645 32.2191C50.0214 32.2191 49.4764 32.3527 48.9931 32.615C48.5963 31.0444 47.2376 30.2284 45.8926 30.2284C45.3488 30.2284 44.8029 30.362 44.3191 30.6246C44.1591 29.9904 43.8425 29.4792 43.4331 29.0951C44.6323 27.6782 45.3536 25.9474 45.5294 24.1382H50.3286C50.7333 26.0174 52.4074 27.4304 54.4059 27.4304C56.704 27.4304 58.5738 25.5593 58.5738 23.2593C58.5741 20.9575 56.7044 19.0848 54.4062 19.0848ZM50.7551 4.32727C50.7553 4.32715 50.7555 4.32691 50.7556 4.3268C51.5376 3.5441 52.5781 3.11297 53.6853 3.11297C54.7925 3.11297 55.833 3.5441 56.6154 4.32727C57.399 5.1102 57.8304 6.15188 57.8304 7.26047C57.8304 8.36906 57.3988 9.41086 56.6144 10.1947C55.8325 10.9787 54.7922 11.4105 53.6853 11.4105C52.5783 11.4105 51.5381 10.9788 50.7551 10.1938C49.9716 9.41086 49.5401 8.36918 49.5401 7.26059C49.5401 6.15199 49.9716 5.11008 50.7551 4.32727ZM13.7276 43.7712C13.7274 43.7713 13.7273 43.7713 13.7272 43.7714C11.944 44.8025 9.86689 45.0765 7.87881 44.5432C5.89037 44.01 4.22924 42.7331 3.2008 40.9471C1.0756 37.2645 2.34135 32.5368 6.02232 30.4083C7.20955 29.7219 8.52721 29.3712 9.86267 29.3712C10.5313 29.3712 11.2046 29.4592 11.8679 29.637C13.8574 30.1702 15.5197 31.447 16.5487 33.2326C18.6753 36.9176 17.4097 41.645 13.7276 43.7712ZM43.8136 23.2731C43.8122 25.1221 43.1042 26.9184 41.7979 28.2875C41.6064 28.2538 41.4124 28.2366 41.2185 28.2366C40.7176 28.2366 40.2146 28.3499 39.7603 28.573V23.4655C39.7603 21.2641 38.1424 20.1124 36.5442 20.1124C34.946 20.1124 33.3282 21.2641 33.3282 23.4655V29.7848C31.461 28.8684 30.0739 27.199 29.5212 25.1406C28.4849 21.2637 30.7918 17.2665 34.6644 16.23C36.5371 15.727 38.4943 15.984 40.1747 16.9545C41.8581 17.9263 43.0618 19.496 43.5642 21.3754C43.7297 21.9925 43.8118 22.6179 43.8142 23.2378C43.8141 23.245 43.8132 23.252 43.8132 23.2593C43.8131 23.2639 43.8136 23.2684 43.8136 23.2731ZM54.4062 25.6726C53.0754 25.6726 51.9928 24.59 51.9928 23.2593C51.9928 21.9267 53.0753 20.8426 54.4062 20.8426C55.7353 20.8426 56.8163 21.9267 56.8163 23.2593C56.8163 24.5899 55.7353 25.6726 54.4062 25.6726Z" fill="black"/>
<path d="M11.0268 32.7874C9.87895 32.4796 8.67907 32.6374 7.64723 33.233C5.5225 34.4618 4.79278 37.1917 6.02043 39.3183C6.61504 40.3485 7.57481 41.0851 8.72278 41.3926C9.10586 41.4952 9.49446 41.546 9.88082 41.546C10.6525 41.546 11.4146 41.3434 12.1014 40.947C12.1015 40.9469 12.1018 40.9467 12.102 40.9466C14.2259 39.7184 14.9557 36.9899 13.7293 34.8653C13.1347 33.8335 12.175 33.0956 11.0268 32.7874ZM11.2219 39.4249C10.5981 39.7849 9.87204 39.8809 9.1777 39.6947C8.48325 39.5087 7.9027 39.0628 7.54282 38.4395C6.79938 37.1516 7.24106 35.4986 8.52672 34.755C8.94262 34.5149 9.40364 34.3923 9.87051 34.3923C10.1043 34.3923 10.3396 34.423 10.5712 34.4853C11.2655 34.6716 11.8462 35.1182 12.2064 35.7435C12.949 37.03 12.5075 38.6815 11.2219 39.4249Z" fill="black"/>
</g>
<defs>
<clipPath id="clip0_546_22571">
<rect width="60" height="60" fill="white"/>
</clipPath>
</defs>
</svg>
