<svg width="34" height="33" viewBox="0 0 34 33" fill="none" xmlns="http://www.w3.org/2000/svg">
<path d="M13.4098 32.2862H6.16113V25.625H7.90947V30.5379H11.6614V24.1809H13.4098V32.2862Z" fill="#6441A5"/>
<path d="M7.90947 17.4272H6.16113V0.130859H7.0353C10.5495 0.130859 13.4098 2.99115 13.4098 6.50531V12.3046H11.6614V6.50531C11.6614 4.25345 10.0442 2.37223 7.90947 1.96137V17.4272Z" fill="#6441A5"/>
<path d="M26.6198 32.6484L17.9043 23.933L19.1404 22.6969L26.5603 30.1168C27.7789 28.3178 27.5936 25.8439 26.0009 24.2512L22.6633 20.9136L23.8994 19.6775L27.2369 23.0151C29.7231 25.5012 29.7231 29.5451 27.2369 32.0295L26.618 32.6484H26.6198Z" fill="#6441A5"/>
<path d="M33.5786 2.68692C33.8374 2.25857 34 1.97534 34 1.97534C34 1.97534 13.3171 8.84283 0 30.2425L6.20661 23.417C6.20661 23.417 16.8907 8.96871 33.5786 2.68692Z" fill="url(#paint0_linear_6452_670)"/>
<path d="M10.662 23.1112C10.662 23.1112 10.5728 21.6793 8.72485 21.0814C8.72485 21.0814 9.59028 20.8279 11.1113 21.3996C12.6324 21.9713 13.4768 22.2878 13.4768 22.2878C13.4768 22.2878 22.1853 18.5498 29.8798 7.74329C29.8798 7.74329 27.0475 8.07198 25.4635 6.93556C25.4635 6.93556 29.7539 7.46356 30.7452 6.67506C31.4708 6.09811 32.8764 3.85149 33.5793 2.68359C16.8914 8.96888 6.20898 23.4154 6.20898 23.4154C6.20898 23.4154 8.828 24.0134 10.662 23.1112Z" fill="url(#paint1_linear_6452_670)"/>
<defs>
<linearGradient id="paint0_linear_6452_670" x1="36.6627" y1="-2.61755" x2="-7.35877" y2="34.9036" gradientUnits="userSpaceOnUse">
<stop stop-color="#6441A5"/>
<stop offset="1" stop-color="#2A0845"/>
</linearGradient>
<linearGradient id="paint1_linear_6452_670" x1="16.776" y1="23.3437" x2="23.4966" y2="1.15904" gradientUnits="userSpaceOnUse">
<stop stop-color="#6441A5"/>
<stop offset="1" stop-color="#2A0845"/>
</linearGradient>
</defs>
</svg>