<svg width="29" height="37" viewBox="0 0 29 37" fill="none" xmlns="http://www.w3.org/2000/svg">
<path fill-rule="evenodd" clip-rule="evenodd" d="M13.8766 3.4416V1.16274C10.9564 1.30697 8.27149 2.31659 6.13465 4.14501L5.25816 3.36394C7.6169 1.29144 10.7678 -0.00442653 14.5311 1.13624e-05C14.6931 1.13624e-05 14.8529 1.13623e-05 15.0127 0.00444926V1.15165V3.45713C17.2582 3.58583 19.313 4.42681 20.9528 5.75818L20.0852 6.53038C18.5297 5.32105 16.5792 4.59767 14.4579 4.58436C14.2627 4.57992 14.0674 4.57992 13.8743 4.58658V3.4416H13.8766ZM6.24116 7.28704L4.55032 5.77815C4.2907 6.0999 4.0444 6.43718 3.81141 6.79221C2.53995 8.72714 1.8077 10.986 1.65015 13.2871H4.11318C4.13981 11.3655 4.65017 9.62359 5.52887 8.15686L6.39648 8.93128C5.67089 10.2138 5.25594 11.7405 5.25372 13.4535V25.3315C-1.25223 18.9077 -0.710809 9.50599 4.43715 4.14945L5.30476 4.92386L5.30032 4.9283L6.91572 6.36839C8.42016 4.84398 10.4372 3.83214 12.7405 3.53258V4.68865C10.4172 5.0348 8.38466 6.19753 7.02888 7.97491L6.24781 7.28038L6.24116 7.28704ZM14.4579 36.6282L23.6288 25.367C29.7132 18.5349 29.4425 10.9749 25.9033 5.9002L25.0312 6.67683C26.367 8.62506 27.1459 10.915 27.259 13.3115L24.7982 13.2937C24.6806 11.0592 23.8596 9.01116 22.5504 7.36914L25.1932 5.01927L25.2176 4.99708C22.992 2.30106 19.7834 0.468209 16.1465 0.0776746V1.2404C18.8004 1.56881 21.2767 2.73376 23.2472 4.59323C23.3626 4.70196 23.4757 4.81291 23.5889 4.92608L21.3677 6.90094H21.3699L20.9417 7.28482C22.6259 8.96234 23.6688 11.2834 23.6688 13.8462C23.6688 18.9254 19.5815 23.0482 14.5178 23.1081V18.3951C16.9786 18.3352 18.9557 16.3226 18.9557 13.8485C18.9557 11.3743 16.9187 9.29962 14.4069 9.29962C11.895 9.29962 9.85804 11.3366 9.85804 13.8485C9.85804 19.5689 9.88911 25.296 9.88911 31.0187L14.4579 36.6304V36.6282Z" fill="#E90013"/>
</svg>