<svg width="60" height="60" viewBox="0 0 60 60" fill="none" xmlns="http://www.w3.org/2000/svg">
<path d="M53.4375 2.8125H6.5625C4.49143 2.8125 2.8125 4.49143 2.8125 6.5625V40.3125C2.8125 42.3836 4.49143 44.0625 6.5625 44.0625H53.4375C55.5086 44.0625 57.1875 42.3836 57.1875 40.3125V6.5625C57.1875 4.49143 55.5086 2.8125 53.4375 2.8125Z" fill="#3D9AE2"/>
<path d="M4.6875 40.3125V6.5625C4.6875 5.56794 5.08259 4.61411 5.78585 3.91085C6.48911 3.20759 7.44294 2.8125 8.4375 2.8125H6.5625C5.56794 2.8125 4.61411 3.20759 3.91085 3.91085C3.20759 4.61411 2.8125 5.56794 2.8125 6.5625V40.3125C2.8125 41.3071 3.20759 42.2609 3.91085 42.9641C4.61411 43.6674 5.56794 44.0625 6.5625 44.0625H8.4375C7.44294 44.0625 6.48911 43.6674 5.78585 42.9641C5.08259 42.2609 4.6875 41.3071 4.6875 40.3125Z" fill="#1A6FB0"/>
<path d="M6.5625 6.5625H53.4375V38.4375H6.5625V6.5625Z" fill="#FFEB99"/>
<path d="M32.8125 17.8125H57.1875V47.8125H32.8125V17.8125Z" fill="#FFDAAA"/>
<path d="M53.4375 12.1875H36.5625C35.5679 12.1875 34.6141 12.5826 33.9109 13.2858C33.2076 13.9891 32.8125 14.9429 32.8125 15.9375V17.8125H57.1875V15.9375C57.1875 14.9429 56.7924 13.9891 56.0891 13.2858C55.3859 12.5826 54.4321 12.1875 53.4375 12.1875Z" fill="#006DF0"/>
<path d="M32.8125 47.8125V49.6875C32.8125 50.6821 33.2076 51.6359 33.9109 52.3391C34.6141 53.0424 35.5679 53.4375 36.5625 53.4375H53.4375C54.4321 53.4375 55.3859 53.0424 56.0891 52.3391C56.7924 51.6359 57.1875 50.6821 57.1875 49.6875V47.8125H32.8125Z" fill="#006DF0"/>
<path d="M32.8125 49.6875V44.0625H23.4375V51.5625H33.3319C32.9953 50.9947 32.816 50.3475 32.8125 49.6875Z" fill="#D1D3D4"/>
<path d="M49.5187 53.4375H36.5625C35.9068 53.4362 35.2629 53.2623 34.6958 52.9331C34.1287 52.604 33.6583 52.1312 33.3319 51.5625H13.125C12.3791 51.5625 11.6637 51.8588 11.1363 52.3863C10.6088 52.9137 10.3125 53.6291 10.3125 54.375C10.3125 55.1209 10.6088 55.8363 11.1363 56.3637C11.6637 56.8912 12.3791 57.1875 13.125 57.1875H46.875C47.6209 57.1875 48.3363 56.8912 48.8637 56.3637C49.3912 55.8363 49.6875 55.1209 49.6875 54.375C49.6895 54.0548 49.6323 53.7369 49.5187 53.4375Z" fill="#58595B"/>
<path d="M12.1875 54.375C12.1875 53.6291 12.4838 52.9137 13.0113 52.3863C13.5387 51.8588 14.2541 51.5625 15 51.5625H13.125C12.3791 51.5625 11.6637 51.8588 11.1363 52.3863C10.6088 52.9137 10.3125 53.6291 10.3125 54.375C10.3125 55.1209 10.6088 55.8363 11.1363 56.3637C11.6637 56.8912 12.3791 57.1875 13.125 57.1875H15C14.2541 57.1875 13.5387 56.8912 13.0113 56.3637C12.4838 55.8363 12.1875 55.1209 12.1875 54.375Z" fill="#414042"/>
<path d="M10.3125 10.3125H29.0625V17.8125H10.3125V10.3125Z" fill="#D80027"/>
<path d="M36.5625 44.0625H53.4375V38.4375H36.5625V44.0625Z" fill="#FF3051"/>
<path d="M32.8125 35.625C36.9546 35.625 40.3125 32.2671 40.3125 28.125C40.3125 23.9829 36.9546 20.625 32.8125 20.625C28.6704 20.625 25.3125 23.9829 25.3125 28.125C25.3125 32.2671 28.6704 35.625 32.8125 35.625Z" fill="#FFCD00"/>
<path d="M33.75 30H31.875C30.8804 30 29.9266 30.3951 29.2234 31.0984C28.5201 31.8016 28.125 32.7554 28.125 33.75V33.975C29.4539 35.0429 31.1077 35.6251 32.8125 35.6251C34.5173 35.6251 36.1711 35.0429 37.5 33.975V33.75C37.5 32.7554 37.1049 31.8016 36.4016 31.0984C35.6984 30.3951 34.7446 30 33.75 30Z" fill="#7ED63E"/>
<path d="M32.8125 28.125C33.848 28.125 34.6875 27.2855 34.6875 26.25C34.6875 25.2145 33.848 24.375 32.8125 24.375C31.777 24.375 30.9375 25.2145 30.9375 26.25C30.9375 27.2855 31.777 28.125 32.8125 28.125Z" fill="#7ED63E"/>
<path d="M23.4375 44.0625H32.8125V45.9375H23.4375V44.0625Z" fill="#BCBEC0"/>
<path d="M13.125 27.1875H15V29.0625H13.125V27.1875Z" fill="black"/>
<path d="M16.875 27.1875H18.75V29.0625H16.875V27.1875Z" fill="black"/>
<path d="M20.625 27.1875H22.5V29.0625H20.625V27.1875Z" fill="black"/>
<path d="M50.625 27.1875H52.5V29.0625H50.625V27.1875Z" fill="black"/>
<path d="M46.875 27.1875H48.75V29.0625H46.875V27.1875Z" fill="black"/>
<path d="M43.125 27.1875H45V29.0625H43.125V27.1875Z" fill="black"/>
<path d="M53.4375 1.875H6.5625C5.31975 1.87649 4.12834 2.37083 3.24958 3.24958C2.37083 4.12834 1.87649 5.31975 1.875 6.5625V40.3125C1.87649 41.5552 2.37083 42.7467 3.24958 43.6254C4.12834 44.5042 5.31975 44.9985 6.5625 45H22.5V50.625H13.125C12.1304 50.625 11.1766 51.0201 10.4733 51.7234C9.77009 52.4266 9.375 53.3804 9.375 54.375C9.375 55.3696 9.77009 56.3234 10.4733 57.0266C11.1766 57.7299 12.1304 58.125 13.125 58.125H46.875C47.8696 58.125 48.8234 57.7299 49.5266 57.0266C50.2299 56.3234 50.625 55.3696 50.625 54.375H53.4375C54.6802 54.3735 55.8717 53.8792 56.7504 53.0004C57.6292 52.1217 58.1235 50.9302 58.125 49.6875V6.5625C58.1235 5.31975 57.6292 4.12834 56.7504 3.24958C55.8717 2.37083 54.6802 1.87649 53.4375 1.875ZM3.75 40.3125V6.5625C3.75 5.81658 4.04632 5.10121 4.57376 4.57376C5.10121 4.04632 5.81658 3.75 6.5625 3.75H53.4375C54.1834 3.75 54.8988 4.04632 55.4262 4.57376C55.9537 5.10121 56.25 5.81658 56.25 6.5625V12.2119C55.698 11.7857 55.0572 11.4893 54.375 11.3447V6.5625C54.375 6.31386 54.2762 6.0754 54.1004 5.89959C53.9246 5.72377 53.6861 5.625 53.4375 5.625H6.5625C6.31386 5.625 6.0754 5.72377 5.89959 5.89959C5.72377 6.0754 5.625 6.31386 5.625 6.5625V38.4375C5.625 38.6861 5.72377 38.9246 5.89959 39.1004C6.0754 39.2762 6.31386 39.375 6.5625 39.375H31.875V43.125H6.5625C5.81658 43.125 5.10121 42.8287 4.57376 42.3012C4.04632 41.7738 3.75 41.0584 3.75 40.3125ZM52.5 11.25H36.5625C35.3198 11.2515 34.1283 11.7458 33.2496 12.6246C32.3708 13.5033 31.8765 14.6948 31.875 15.9375V19.7428C29.8178 19.9795 27.9195 20.9645 26.5415 22.5101C25.1635 24.0558 24.402 26.0543 24.402 28.125C24.402 30.1957 25.1635 32.1942 26.5415 33.7399C27.9195 35.2855 29.8178 36.2705 31.875 36.5072V37.5H7.5V7.5H52.5V11.25ZM32.8125 34.6875C31.4803 34.6882 30.1798 34.2808 29.0859 33.5203C29.1421 32.8184 29.4601 32.1633 29.9767 31.6849C30.4933 31.2065 31.1709 30.9397 31.875 30.9375H33.75C34.4541 30.9397 35.1317 31.2065 35.6483 31.6849C36.1649 32.1633 36.4829 32.8184 36.5391 33.5203C35.4452 34.2808 34.1447 34.6882 32.8125 34.6875ZM38.0925 32.0053C37.7446 31.1377 37.1452 30.394 36.3714 29.8696C35.5976 29.3452 34.6847 29.0641 33.75 29.0625H31.875C30.9403 29.0641 30.0274 29.3452 29.2536 29.8696C28.4798 30.394 27.8804 31.1377 27.5325 32.0053C26.8113 31.0282 26.3754 29.8701 26.2732 28.6599C26.1711 27.4498 26.4068 26.235 26.9541 25.1508C27.5014 24.0667 28.3388 23.1556 29.3731 22.5191C30.4074 21.8826 31.598 21.5456 32.8125 21.5456C34.027 21.5456 35.2176 21.8826 36.2519 22.5191C37.2862 23.1556 38.1236 24.0667 38.6709 25.1508C39.2182 26.235 39.4539 27.4498 39.3518 28.6599C39.2496 29.8701 38.8137 31.0282 38.0925 32.0053ZM33.75 36.5072C35.8072 36.2705 37.7055 35.2855 39.0835 33.7399C40.4615 32.1942 41.223 30.1957 41.223 28.125C41.223 26.0543 40.4615 24.0558 39.0835 22.5101C37.7055 20.9645 35.8072 19.9795 33.75 19.7428V18.75H56.25V46.875H33.75V36.5072ZM56.25 16.875H33.75V15.9375C33.75 15.1916 34.0463 14.4762 34.5738 13.9488C35.1012 13.4213 35.8166 13.125 36.5625 13.125H53.4375C54.1834 13.125 54.8988 13.4213 55.4262 13.9488C55.9537 14.4762 56.25 15.1916 56.25 15.9375V16.875ZM24.375 45H31.875V49.6875C31.8747 50.0024 31.9061 50.3164 31.9687 50.625H24.375V45ZM48.1997 55.6997C48.0263 55.8746 47.82 56.0133 47.5926 56.1078C47.3652 56.2022 47.1212 56.2506 46.875 56.25H13.125C12.6277 56.25 12.1508 56.0525 11.7992 55.7008C11.4475 55.3492 11.25 54.8723 11.25 54.375C11.25 53.8777 11.4475 53.4008 11.7992 53.0492C12.1508 52.6975 12.6277 52.5 13.125 52.5H32.8369C33.2699 53.0801 33.8319 53.5515 34.4785 53.877C35.1251 54.2024 35.8386 54.3729 36.5625 54.375H48.75C48.7506 54.6212 48.7022 54.8652 48.6078 55.0926C48.5133 55.32 48.3746 55.5263 48.1997 55.6997ZM53.4375 52.5H36.5625C35.8166 52.5 35.1012 52.2037 34.5738 51.6762C34.0463 51.1488 33.75 50.4334 33.75 49.6875V48.75H56.25V49.6875C56.25 50.4334 55.9537 51.1488 55.4262 51.6762C54.8988 52.2037 54.1834 52.5 53.4375 52.5Z" fill="black"/>
<path d="M45.9375 14.0625H49.6875V15.9375H45.9375V14.0625Z" fill="black"/>
<path d="M42.1875 14.0625H44.0625V15.9375H42.1875V14.0625Z" fill="black"/>
<path d="M43.125 49.6875H46.875V51.5625H43.125V49.6875Z" fill="black"/>
<path d="M35.625 26.25C35.625 25.6937 35.46 25.15 35.151 24.6875C34.842 24.2249 34.4027 23.8645 33.8888 23.6516C33.3749 23.4387 32.8094 23.383 32.2638 23.4915C31.7182 23.6001 31.2171 23.8679 30.8238 24.2613C30.4304 24.6546 30.1626 25.1557 30.054 25.7013C29.9455 26.2469 30.0012 26.8124 30.2141 27.3263C30.427 27.8402 30.7874 28.2795 31.25 28.5885C31.7125 28.8976 32.2562 29.0625 32.8125 29.0625C33.5584 29.0625 34.2738 28.7662 34.8012 28.2387C35.3287 27.7113 35.625 26.9959 35.625 26.25ZM32.8125 27.1875C32.6271 27.1875 32.4458 27.1325 32.2917 27.0295C32.1375 26.9265 32.0173 26.7801 31.9464 26.6088C31.8754 26.4375 31.8568 26.249 31.893 26.0671C31.9292 25.8852 32.0185 25.7182 32.1496 25.5871C32.2807 25.456 32.4477 25.3667 32.6296 25.3305C32.8115 25.2943 33 25.3129 33.1713 25.3839C33.3426 25.4548 33.489 25.575 33.592 25.7292C33.695 25.8833 33.75 26.0646 33.75 26.25C33.75 26.4986 33.6512 26.7371 33.4754 26.9129C33.2996 27.0887 33.0611 27.1875 32.8125 27.1875Z" fill="black"/>
<path d="M10.3125 18.75H29.0625C29.3111 18.75 29.5496 18.6512 29.7254 18.4754C29.9012 18.2996 30 18.0611 30 17.8125V10.3125C30 10.0639 29.9012 9.8254 29.7254 9.64959C29.5496 9.47377 29.3111 9.375 29.0625 9.375H10.3125C10.0639 9.375 9.8254 9.47377 9.64959 9.64959C9.47377 9.8254 9.375 10.0639 9.375 10.3125V17.8125C9.375 18.0611 9.47377 18.2996 9.64959 18.4754C9.8254 18.6512 10.0639 18.75 10.3125 18.75ZM11.25 11.25H28.125V16.875H11.25V11.25Z" fill="black"/>
<path d="M53.4375 37.5H36.5625C36.3139 37.5 36.0754 37.5988 35.8996 37.7746C35.7238 37.9504 35.625 38.1889 35.625 38.4375V44.0625C35.625 44.3111 35.7238 44.5496 35.8996 44.7254C36.0754 44.9012 36.3139 45 36.5625 45H53.4375C53.6861 45 53.9246 44.9012 54.1004 44.7254C54.2762 44.5496 54.375 44.3111 54.375 44.0625V38.4375C54.375 38.1889 54.2762 37.9504 54.1004 37.7746C53.9246 37.5988 53.6861 37.5 53.4375 37.5ZM52.5 43.125H37.5V39.375H52.5V43.125Z" fill="black"/>
<path d="M16.875 13.125H26.25V15H16.875V13.125Z" fill="black"/>
<path d="M13.125 13.125H15V15H13.125V13.125Z" fill="black"/>
<path d="M43.125 40.3125H50.625V42.1875H43.125V40.3125Z" fill="black"/>
<path d="M39.375 40.3125H41.25V42.1875H39.375V40.3125Z" fill="black"/>
</svg>
