<svg width="60" height="60" viewBox="0 0 60 60" fill="none" xmlns="http://www.w3.org/2000/svg">
<g clip-path="url(#clip0_546_22526)">
<path d="M34.5483 53.0327H21.0361L22.9484 42.4316H32.6359L34.5483 53.0327Z" fill="#688B96"/>
<path d="M32.6361 42.4316H28.1016L30.0139 53.0327H34.5485L32.6361 42.4316Z" fill="#557981"/>
<path d="M42.0417 56.9599H13.5429C12.8946 56.9599 12.3691 56.4344 12.3691 55.7862C12.3691 53.3334 14.3575 51.3452 16.8101 51.3452H38.7747C41.2274 51.3452 43.2156 53.3335 43.2156 55.7862C43.2156 56.4344 42.69 56.9599 42.0417 56.9599Z" fill="#3C5959"/>
<path d="M38.7744 51.3452H35.4429C37.2473 51.3452 38.7101 52.8079 38.7101 54.6124V56.96H42.0416C42.6899 56.96 43.2155 56.4344 43.2155 55.7863C43.2155 53.3334 41.2271 51.3452 38.7744 51.3452Z" fill="#394949"/>
<path d="M52.4711 45.0366H3.11355C1.87945 45.0366 0.878906 44.0362 0.878906 42.802V5.27469C0.878906 4.04059 1.87934 3.04004 3.11355 3.04004H52.4711C53.7052 3.04004 54.7057 4.04047 54.7057 5.27469V42.802C54.7057 44.0362 53.7052 45.0366 52.4711 45.0366Z" fill="#E8F3FF"/>
<path d="M52.471 3.04004H50.2371V42.802C50.2371 44.0362 49.2367 45.0366 48.0024 45.0366H52.4709C53.7051 45.0366 54.7056 44.0362 54.7056 42.802V5.27469C54.7057 4.04047 53.7051 3.04004 52.471 3.04004Z" fill="#C1E2FF"/>
<path d="M0.878906 42.802C0.878906 44.0361 1.87934 45.0366 3.11355 45.0366H52.4711C53.7052 45.0366 54.7057 44.0362 54.7057 42.802V38.624H0.878906V42.802Z" fill="#3C5959"/>
<path d="M50.2371 42.802C50.2371 44.0362 49.2367 45.0366 48.0024 45.0366H52.4709C52.8566 45.0366 53.2195 44.9389 53.536 44.7669C53.916 44.5605 54.2294 44.247 54.4358 43.8671C54.6078 43.5505 54.7056 43.1877 54.7056 42.802V38.624H50.2371V42.802Z" fill="#394949"/>
<path d="M43.0361 38.8628L45.7832 36.1158L50.7191 41.0517L47.9721 43.7988L43.0361 38.8628Z" fill="#B3D8FB"/>
<path d="M36.2923 42.1114C43.3335 42.1114 49.0416 36.4033 49.0416 29.3621C49.0416 22.3208 43.3335 16.6128 36.2923 16.6128C29.251 16.6128 23.543 22.3208 23.543 29.3621C23.543 36.4033 29.251 42.1114 36.2923 42.1114Z" fill="#69D8E4"/>
<path d="M45.3078 20.3468C42.248 17.287 38.02 16.1083 34.0596 16.8094C36.5436 17.249 38.9224 18.4276 40.8416 20.3468C45.8205 25.3257 45.8205 33.3981 40.8416 38.377C38.9224 40.2961 36.5436 41.4747 34.0596 41.9144C38.02 42.6154 42.248 41.4369 45.3078 38.377C50.2868 33.3982 50.2868 25.3257 45.3078 20.3468Z" fill="#29D0DF"/>
<path d="M58.9437 49.1578L56.0885 52.0131C55.8512 52.2504 55.4663 52.2504 55.229 52.0131L46.5691 43.3532C46.3318 43.1159 46.3318 42.731 46.5691 42.4937L49.4244 39.6384C49.6617 39.4011 50.0465 39.4011 50.2838 39.6384L58.9437 48.2984C59.181 48.5357 59.181 48.9205 58.9437 49.1578Z" fill="#FC5327"/>
<path d="M21.2025 17.5705C22.6168 17.5705 23.7634 16.424 23.7634 15.0096C23.7634 13.5953 22.6168 12.4487 21.2025 12.4487C19.7882 12.4487 18.6416 13.5953 18.6416 15.0096C18.6416 16.424 19.7882 17.5705 21.2025 17.5705Z" fill="#51BE26"/>
<path d="M7.38414 31.3889C8.79849 31.3889 9.94504 30.2423 9.94504 28.828C9.94504 27.4136 8.79849 26.2671 7.38414 26.2671C5.9698 26.2671 4.82324 27.4136 4.82324 28.828C4.82324 30.2423 5.9698 31.3889 7.38414 31.3889Z" fill="#51BE26"/>
<path d="M46.3485 13.0969C47.7628 13.0969 48.9094 11.9503 48.9094 10.536C48.9094 9.12165 47.7628 7.9751 46.3485 7.9751C44.9342 7.9751 43.7876 9.12165 43.7876 10.536C43.7876 11.9503 44.9342 13.0969 46.3485 13.0969Z" fill="#51BE26"/>
<path d="M36.8578 27.2441C37.3433 27.2441 37.7367 26.8506 37.7367 26.3652C37.7367 25.8798 37.3433 25.4863 36.8578 25.4863H34.292C33.8065 25.4863 33.4131 25.8798 33.4131 26.3652V32.4545C33.4131 32.9399 33.8065 33.3334 34.292 33.3334H36.8578C37.3433 33.3334 37.7367 32.9399 37.7367 32.4545C37.7367 31.9691 37.3433 31.5756 36.8578 31.5756H35.1709V30.2888H36.6686C37.1541 30.2888 37.5475 29.8953 37.5475 29.4099C37.5475 28.9245 37.1541 28.531 36.6686 28.531H35.1709V27.2441H36.8578Z" fill="black"/>
<path d="M30.3014 28.6336C29.5655 28.3622 28.879 28.0669 28.6489 27.9664C28.4598 27.801 28.5101 27.4107 28.9602 27.2752C29.7657 27.0323 30.5246 27.6262 30.5495 27.6461C31.4425 28.3852 32.5616 27.0412 31.6753 26.2961C31.6153 26.2457 30.1886 25.0693 28.4532 25.5922C26.3492 26.2259 26.3492 28.866 27.8514 29.536C27.8871 29.5519 28.7366 29.9301 29.6931 30.2829C31.0509 30.7836 30.2617 31.6036 29.4637 31.6036C28.8836 31.6036 28.3265 31.371 27.9735 30.9814C27.1933 30.1204 25.8896 31.2994 26.671 32.1617C27.3618 32.9241 28.3798 33.3613 29.4638 33.3613C32.3159 33.3615 33.4477 29.7942 30.3014 28.6336Z" fill="black"/>
<path d="M42.6919 25.4585C40.5129 25.4585 38.7402 27.2312 38.7402 29.4101C38.7402 31.5889 40.5129 33.3616 42.6919 33.3616C44.8708 33.3616 46.6435 31.5889 46.6435 29.4101C46.6435 27.2312 44.8707 25.4585 42.6919 25.4585ZM42.6919 31.6039C41.4823 31.6039 40.498 30.6198 40.498 29.4102C40.498 28.2006 41.4822 27.2164 42.6919 27.2164C43.9016 27.2164 44.8857 28.2006 44.8857 29.4102C44.8857 30.6198 43.9015 31.6039 42.6919 31.6039Z" fill="black"/>
<path d="M59.5652 47.6769L55.4811 43.5928C55.5491 43.3361 55.5846 43.072 55.5846 42.802V12.359C55.5846 11.8736 55.1912 11.4801 54.7057 11.4801C54.2202 11.4801 53.8268 11.8736 53.8268 12.359V37.7451H48.6662L47.7161 36.795C52.4282 29.5568 49.2608 19.781 41.2461 16.6584L44.4816 13.423C45.0197 13.7722 45.6605 13.9759 46.3484 13.9759C48.2452 13.9759 49.7883 12.4327 49.7883 10.5361C49.7883 8.63937 48.2452 7.09613 46.3484 7.09613C44.4516 7.09613 42.9084 8.63926 42.9084 10.5361C42.9084 11.1076 43.0494 11.6466 43.297 12.1214L39.3435 16.0749C38.3539 15.8497 37.3322 15.7336 36.2924 15.7336C32.8287 15.7336 29.5629 17.0178 27.0369 19.3596L24.2599 16.5826C24.5037 16.1108 24.6422 15.5762 24.6422 15.0096C24.6422 13.1128 23.0991 11.5698 21.2024 11.5698C19.3057 11.5698 17.7625 13.1129 17.7625 15.0096C17.7625 15.6396 17.9336 16.2301 18.2304 16.7386L9.11297 25.8559C8.60461 25.5589 8.0141 25.3879 7.38398 25.3879C5.48719 25.3879 3.94418 26.9311 3.94418 28.8277C3.94418 30.7244 5.4873 32.2677 7.38398 32.2677C9.28066 32.2677 10.8238 30.7245 10.8238 28.8277C10.8238 28.1977 10.6528 27.6072 10.3559 27.0987L19.4733 17.9813C19.9816 18.2783 20.5721 18.4493 21.2023 18.4493C21.895 18.4493 22.5401 18.2428 23.0805 17.889L25.8258 20.6342C21.7148 25.557 21.6218 32.7208 25.5472 37.7448H8.55703C8.07164 37.7448 7.67812 38.1383 7.67812 38.6237C7.67812 39.1091 8.07164 39.5026 8.55703 39.5026H27.1883C31.8614 43.7081 38.6876 44.0813 43.7276 40.7871L45.5468 42.6063C45.3391 43.5663 46.0819 44.0836 46.1306 44.1574H3.11355C2.36602 44.1574 1.75781 43.5492 1.75781 42.8016V39.5026H4.45406C4.93945 39.5026 5.33297 39.1091 5.33297 38.6237C5.33297 38.1383 4.93945 37.7448 4.45406 37.7448H1.75781V5.27469C1.75781 4.52715 2.36602 3.91906 3.11355 3.91906H52.4709C53.2185 3.91906 53.8267 4.52727 53.8267 5.27469V8.26168C53.8267 8.74707 54.2201 9.14059 54.7056 9.14059C55.1911 9.14059 55.5845 8.74707 55.5845 8.26168V5.27469C55.5845 3.55789 54.1877 2.16113 52.4708 2.16113H3.11355C1.39676 2.16125 0 3.55789 0 5.27469V42.802C0 44.5188 1.39676 45.9155 3.11355 45.9155H21.4269L20.606 50.4661H16.81C13.8765 50.4661 11.4901 52.8526 11.4901 55.7859C11.4901 56.9177 12.411 57.8386 13.5429 57.8386H42.0418C43.1737 57.8386 44.0946 56.9177 44.0946 55.7859C44.0946 52.8525 41.7081 50.4661 38.7747 50.4661H34.9786L34.1578 45.9155H47.8887L54.6076 52.6346C55.1885 53.2154 56.1293 53.2159 56.7102 52.6346L59.5656 49.7793C60.145 49.1997 60.145 48.2566 59.5652 47.6769ZM46.3485 8.85406C47.2759 8.85406 48.0306 9.60863 48.0306 10.5362C48.0306 11.4636 47.2759 12.2182 46.3485 12.2182C45.4211 12.2182 44.6664 11.4636 44.6664 10.5362C44.6664 9.60863 45.4211 8.85406 46.3485 8.85406ZM42.3367 55.786C42.3367 55.9486 42.2044 56.0809 42.0417 56.0809H13.5429C13.3802 56.0809 13.2479 55.9486 13.2479 55.786C13.2479 53.8219 14.8459 52.224 16.81 52.224H38.7745C40.7387 52.224 42.3367 53.8219 42.3367 55.786ZM33.1923 50.4662H22.3923L23.2132 45.9157H32.3715L33.1923 50.4662ZM53.8268 41.9384L51.3914 39.503H53.8268V41.9384ZM7.38422 30.5101C6.4568 30.5101 5.70223 29.7555 5.70223 28.828C5.70223 27.9005 6.4568 27.146 7.38422 27.146C8.31164 27.146 9.06621 27.9005 9.06621 28.828C9.06621 29.7555 8.31164 30.5101 7.38422 30.5101ZM21.2025 16.6918C20.275 16.6918 19.5204 15.9372 19.5204 15.0098C19.5204 14.0824 20.275 13.3278 21.2025 13.3278C22.1299 13.3278 22.8845 14.0824 22.8845 15.0098C22.8845 15.9372 22.1299 16.6918 21.2025 16.6918ZM27.8988 37.7555C23.2705 33.1272 23.2705 25.5965 27.8988 20.9682C30.1409 18.7262 33.1218 17.4915 36.2925 17.4915C46.8423 17.4915 52.1134 30.3282 44.6861 37.7555C40.0474 42.3944 32.5385 42.3952 27.8988 37.7555ZM45.9292 38.9986C46.1823 38.7454 46.4231 38.4847 46.6521 38.2171L48.1274 39.6924L46.6229 41.1969L45.1478 39.7217C45.4159 39.4918 45.6768 39.251 45.9292 38.9986ZM55.6587 51.1999L47.3823 42.9234L49.854 40.4516L58.1305 48.728L55.6587 51.1999Z" fill="black"/>
</g>
<defs>
<clipPath id="clip0_546_22526">
<rect width="60" height="60" fill="white"/>
</clipPath>
</defs>
</svg>
