<svg width="60" height="60" viewBox="0 0 60 60" fill="none" xmlns="http://www.w3.org/2000/svg">
<path d="M58.2367 6.50288V53.497C58.2367 56.1088 56.1102 58.2352 53.4984 58.2352H6.50434C3.88375 58.2352 1.76611 56.1088 1.76611 53.497V6.50288C1.76611 3.8823 3.88375 1.76465 6.50434 1.76465H53.4984C56.1102 1.76465 58.2367 3.8823 58.2367 6.50288Z" fill="#E5F4F7"/>
<path d="M58.2338 13.9426H51.6514L52.0926 14.9661C52.6044 16.1749 51.722 17.5161 50.4073 17.5161H32.6896C31.9573 17.5161 31.2955 17.0838 31.0132 16.4043L29.9543 13.9426H1.76318V6.50434C1.76318 3.88375 3.88083 1.76611 6.50141 1.76611H53.4955C56.1073 1.76611 58.2338 3.88375 58.2338 6.50434V13.9426Z" fill="#47D681"/>
<path d="M11.1191 7.97654C11.1191 9.35302 9.99852 10.4736 8.62205 10.4736C7.24558 10.4736 6.125 9.35302 6.125 7.97654C6.125 6.59125 7.24558 5.47949 8.62205 5.47949C9.99852 5.47949 11.1191 6.59125 11.1191 7.97654Z" fill="white"/>
<path d="M18.8447 7.97654C18.8447 9.35302 17.7241 10.4736 16.3476 10.4736C14.9712 10.4736 13.8506 9.35302 13.8506 7.97654C13.8506 6.59125 14.9712 5.47949 16.3476 5.47949C17.7241 5.47949 18.8447 6.59125 18.8447 7.97654Z" fill="white"/>
<path d="M26.5698 7.97654C26.5698 9.35302 25.4492 10.4736 24.0727 10.4736C22.6963 10.4736 21.5757 9.35302 21.5757 7.97654C21.5757 6.59125 22.6963 5.47949 24.0727 5.47949C25.4492 5.47949 26.5698 6.59125 26.5698 7.97654Z" fill="white"/>
<path d="M33.9844 45.944C33.9844 48.1455 32.2153 49.9146 30.0138 49.9146C27.7921 49.9146 26.0229 48.1455 26.0229 45.944C26.0229 43.7425 27.7921 41.9531 30.0138 41.9531C32.2153 41.9531 33.9844 43.7425 33.9844 45.944Z" fill="#2C3033"/>
<path d="M13.2671 32.8991C13.3571 32.7941 13.4612 32.69 13.5662 32.585C13.4612 32.69 13.3571 32.7941 13.2671 32.9141V32.8991Z" fill="#00D67F"/>
<path d="M44.9062 31.0874L39.5759 36.5527C36.9853 34.3662 33.6606 33.0489 30.0077 33.0489C26.1147 33.0489 22.58 34.5462 19.9303 37.0168C20.0944 36.8377 20.2594 36.7027 20.4245 36.5527L15.0933 31.0874C19.0612 27.5536 24.2874 25.4121 30.0077 25.4121C35.713 25.4121 40.9532 27.5536 44.9062 31.0874Z" fill="#FEBB50"/>
<path d="M52.4228 46.3754C52.4828 47.1537 51.8245 47.7978 51.0454 47.7978H46.1642C45.4601 47.7978 44.846 47.2887 44.786 46.6004C44.6069 44.5781 44.0228 42.6775 43.1245 40.9702C42.6754 40.116 42.1504 39.3228 41.5522 38.5887C41.2522 38.2146 40.938 37.8554 40.6089 37.5263C40.5489 37.4513 40.4739 37.3913 40.4139 37.3313C40.144 37.0613 39.8598 36.7922 39.5757 36.5531L44.906 31.0869C45.8493 31.926 46.7175 32.8393 47.5116 33.8125C50.3113 37.2863 52.0936 41.6293 52.4228 46.3754Z" fill="#FB545C"/>
<path d="M20.4244 36.5527C20.2594 36.7018 20.0944 36.8368 19.9303 37.0168C19.5853 37.3159 19.2562 37.6609 18.957 38.005C18.687 38.275 18.4629 38.5592 18.2379 38.8583C16.5614 41.0447 15.4682 43.7103 15.2132 46.6C15.1532 47.2883 14.54 47.7983 13.8359 47.7983H8.95381C8.17556 47.7983 7.51732 47.1542 7.57645 46.375C7.93644 41.2097 10.0179 36.5227 13.2667 32.9139C13.3567 32.7939 13.4608 32.6898 13.5667 32.5847C13.8059 32.3147 14.0459 32.0606 14.315 31.8206C14.5691 31.5665 14.8241 31.3265 15.0932 31.0874L20.4244 36.5527Z" fill="#43A2FF"/>
<path d="M28.4197 47.5181C27.4738 46.5723 27.5409 45.0193 28.5653 44.159L44.2323 30.997C44.6964 30.6061 45.3211 31.2317 44.932 31.6958L31.7797 47.3708C30.9194 48.397 29.3656 48.464 28.4197 47.5181Z" fill="#2C3033"/>
<path d="M31.1615 45.9367C31.1615 46.5773 30.6471 47.0917 30.0065 47.0917C29.3606 47.0917 28.8462 46.5773 28.8462 45.9367C28.8462 45.2961 29.3606 44.7764 30.0065 44.7764C30.6471 44.7764 31.1615 45.2961 31.1615 45.9367Z" fill="white"/>
</svg>
