<svg width="34" height="38" viewBox="0 0 34 38" fill="none" xmlns="http://www.w3.org/2000/svg">
<path d="M17.3234 26.6786C19.8715 24.172 22.3825 21.6265 24.9089 19.0974C25.0037 19.0027 25.0847 18.8933 25.1587 18.8063C23.9045 17.5521 22.6693 16.3177 21.3849 15.0333C21.217 15.1936 21.0585 15.34 20.906 15.4925C18.4476 17.9492 16.0064 20.4231 13.5264 22.8583C11.4737 24.8731 8.17018 24.4054 6.81175 21.9495C5.86507 20.2388 6.17689 18.2395 7.64558 16.7673C11.6993 12.7041 15.7609 8.64777 19.8232 4.59315C19.9757 4.44068 20.1721 4.33215 20.2419 4.28133C18.9084 2.94098 17.6568 1.68247 16.388 0.406738C15.0915 1.70401 13.7426 3.05124 12.3971 4.40106C9.38131 7.42372 6.29749 10.3826 3.37217 13.4906C-0.284484 17.3755 0.175505 23.7214 4.23357 27.186C8.07112 30.4619 13.6849 30.2586 17.3234 26.6786Z" fill="#053651"/>
<path d="M31.0058 14.7862C27.9107 11.7575 24.8752 8.66769 21.812 5.60627C21.6785 5.47275 21.5329 5.35216 21.5019 5.32373C20.2029 6.60808 18.9539 7.84247 17.6626 9.11907C17.7875 9.23019 17.9581 9.36715 18.1123 9.52048C21.2039 12.6095 24.3049 15.6898 27.3793 18.7961C28.922 20.3552 29.0487 22.6965 27.7428 24.396C26.4696 26.0525 24.1714 26.5022 22.2755 25.4659C22.1669 25.4065 22.0541 25.3556 21.8465 25.2531C21.98 25.4969 22.0567 25.633 22.1299 25.7708C23.5701 28.5006 21.8293 31.7231 18.7601 31.991C17.3379 32.1151 16.1655 31.5862 15.1766 30.5766C15.0268 30.4233 14.708 30.2553 14.5504 30.3147C12.3866 31.1313 10.1814 31.2321 7.85645 30.8609C8.92114 31.9238 9.96516 33.0092 11.0591 34.0403C11.7784 34.7182 12.5063 35.4237 13.341 35.9371C18.5103 39.1131 25.0673 36.9243 27.3646 31.3079C27.4499 31.0986 27.6489 30.8617 27.8513 30.7842C34.317 28.2922 36.1949 19.8651 31.0049 14.7854L31.0058 14.7862Z" fill="#053651"/>
</svg>