<svg width="60" height="60" viewBox="0 0 60 60" fill="none" xmlns="http://www.w3.org/2000/svg">
<path d="M1 18V4C1 3.20435 1.31607 2.44129 1.87868 1.87868C2.44129 1.31607 3.20435 1 4 1H18.19C19.3594 1.00025 20.4917 1.41035 21.39 2.159L24.608 4.841C25.5068 5.59009 26.6399 6.00022 27.81 6H56C56.7957 6 57.5587 6.31607 58.1213 6.87868C58.6839 7.44129 59 8.20435 59 9V18H1Z" fill="#E58B0A"/>
<path d="M6 16V13C6 12.2044 6.31607 11.4413 6.87868 10.8787C7.44129 10.3161 8.20435 10 9 10H51C51.7957 10 52.5587 10.3161 53.1213 10.8787C53.6839 11.4413 54 12.2044 54 13V16H6Z" fill="white"/>
<path d="M56 15H4C2.34315 15 1 16.3431 1 18V50C1 51.6569 2.34315 53 4 53H56C57.6569 53 59 51.6569 59 50V18C59 16.3431 57.6569 15 56 15Z" fill="#FFB90B"/>
<path d="M46 57V29.243C46 28.8489 45.9224 28.4586 45.7716 28.0945C45.6208 27.7304 45.3997 27.3996 45.121 27.121L38.879 20.879C38.6004 20.6003 38.2696 20.3792 37.9055 20.2284C37.5414 20.0776 37.1511 20 36.757 20H16C15.4696 20 14.9609 20.2107 14.5858 20.5858C14.2107 20.9609 14 21.4696 14 22V57C14 57.5304 14.2107 58.0391 14.5858 58.4142C14.9609 58.7893 15.4696 59 16 59H44C44.5304 59 45.0391 58.7893 45.4142 58.4142C45.7893 58.0391 46 57.5304 46 57Z" fill="#E9ECF4"/>
<path d="M45.73 27.9998H41C40.2044 27.9998 39.4413 27.6837 38.8787 27.1211C38.3161 26.5585 38 25.7954 38 24.9998V20.2798C38.3282 20.4231 38.6267 20.6266 38.88 20.8798L45.12 27.1198C45.373 27.3754 45.5794 27.6732 45.73 27.9998Z" fill="#C5CDDD"/>
<path d="M24 39C23.7836 39 23.5731 38.9298 23.4 38.8L19.4 35.8C19.2758 35.7069 19.175 35.5861 19.1056 35.4472C19.0361 35.3084 19 35.1552 19 35C19 34.8448 19.0361 34.6916 19.1056 34.5528C19.175 34.4139 19.2758 34.2931 19.4 34.2L23.4 31.2C23.5051 31.1212 23.6246 31.0639 23.7518 31.0313C23.879 30.9987 24.0114 30.9915 24.1414 31.0101C24.2714 31.0286 24.3965 31.0726 24.5095 31.1395C24.6225 31.2064 24.7212 31.2949 24.8 31.4C24.8788 31.5051 24.9361 31.6246 24.9687 31.7518C25.0013 31.879 25.0085 32.0114 24.99 32.1414C24.9714 32.2714 24.9274 32.3965 24.8605 32.5095C24.7936 32.6225 24.7051 32.7212 24.6 32.8L21.667 35L24.6 37.2C24.7679 37.3259 24.8919 37.5015 24.9545 37.7018C25.0171 37.9022 25.0151 38.1171 24.9487 38.3162C24.8823 38.5153 24.755 38.6885 24.5847 38.8112C24.4144 38.934 24.2099 39 24 39Z" fill="#1EAD6F"/>
<path d="M36 39C35.7901 39 35.5856 38.934 35.4153 38.8112C35.245 38.6885 35.1177 38.5153 35.0513 38.3162C34.9849 38.1171 34.9829 37.9022 35.0455 37.7018C35.1081 37.5015 35.2321 37.3259 35.4 37.2L38.333 35L35.4 32.8C35.1878 32.6409 35.0476 32.404 35.0101 32.1414C34.9725 31.8789 35.0409 31.6122 35.2 31.4C35.3591 31.1878 35.596 31.0476 35.8586 31.0101C36.1211 30.9725 36.3878 31.0409 36.6 31.2L40.6 34.2C40.7242 34.2932 40.825 34.4139 40.8944 34.5528C40.9639 34.6916 41 34.8448 41 35C41 35.1553 40.9639 35.3084 40.8944 35.4472C40.825 35.5861 40.7242 35.7069 40.6 35.8L36.6 38.8C36.4271 38.9302 36.2164 39.0004 36 39Z" fill="#1EAD6F"/>
<path d="M28.9998 40C28.9175 39.9998 28.8356 39.9898 28.7558 39.97C28.4987 39.9055 28.2778 39.7417 28.1415 39.5144C28.0052 39.2872 27.9646 39.0151 28.0288 38.758L30.0288 30.758C30.0978 30.5061 30.2627 30.2912 30.4882 30.1593C30.7137 30.0274 30.9818 29.989 31.2352 30.0522C31.4887 30.1154 31.7073 30.2753 31.8444 30.4977C31.9815 30.72 32.0261 30.9872 31.9688 31.242L29.9688 39.242C29.9148 39.4583 29.7902 39.6503 29.6146 39.7876C29.4391 39.925 29.2227 39.9997 28.9998 40Z" fill="#1EAD6F"/>
<path d="M40 45H20C19.7348 45 19.4804 44.8946 19.2929 44.7071C19.1054 44.5196 19 44.2652 19 44C19 43.7348 19.1054 43.4804 19.2929 43.2929C19.4804 43.1054 19.7348 43 20 43H40C40.2652 43 40.5196 43.1054 40.7071 43.2929C40.8946 43.4804 41 43.7348 41 44C41 44.2652 40.8946 44.5196 40.7071 44.7071C40.5196 44.8946 40.2652 45 40 45Z" fill="#C5CDDD"/>
<path d="M40 50H20C19.7348 50 19.4804 49.8946 19.2929 49.7071C19.1054 49.5196 19 49.2652 19 49C19 48.7348 19.1054 48.4804 19.2929 48.2929C19.4804 48.1054 19.7348 48 20 48H40C40.2652 48 40.5196 48.1054 40.7071 48.2929C40.8946 48.4804 41 48.7348 41 49C41 49.2652 40.8946 49.5196 40.7071 49.7071C40.5196 49.8946 40.2652 50 40 50Z" fill="#C5CDDD"/>
<path d="M33 55H20C19.7348 55 19.4804 54.8946 19.2929 54.7071C19.1054 54.5196 19 54.2652 19 54C19 53.7348 19.1054 53.4804 19.2929 53.2929C19.4804 53.1054 19.7348 53 20 53H33C33.2652 53 33.5196 53.1054 33.7071 53.2929C33.8946 53.4804 34 53.7348 34 54C34 54.2652 33.8946 54.5196 33.7071 54.7071C33.5196 54.8946 33.2652 55 33 55Z" fill="#C5CDDD"/>
</svg>
